<?xml version="1.0" encoding="UTF-8" standalone="no"?>
<svg
   xmlns:dc="http://purl.org/dc/elements/1.1/"
   xmlns:cc="http://creativecommons.org/ns#"
   xmlns:rdf="http://www.w3.org/1999/02/22-rdf-syntax-ns#"
   xmlns:svg="http://www.w3.org/2000/svg"
   xmlns="http://www.w3.org/2000/svg"
   xmlns:sodipodi="http://sodipodi.sourceforge.net/DTD/sodipodi-0.dtd"
   xmlns:inkscape="http://www.inkscape.org/namespaces/inkscape"
   width="48px"
   height="48px"
   viewBox="0 0 48 48"
   version="1.1"
   id="svg3009"
   inkscape:version="0.91 r13725"
   sodipodi:docname="facebook.svg">
  <metadata
     id="metadata3035">
    <rdf:RDF>
      <cc:Work
         rdf:about="">
        <dc:format>image/svg+xml</dc:format>
        <dc:type
           rdf:resource="http://purl.org/dc/dcmitype/StillImage" />
      </cc:Work>
    </rdf:RDF>
  </metadata>
  <sodipodi:namedview
     pagecolor="#ffffff"
     bordercolor="#666666"
     borderopacity="1"
     objecttolerance="10"
     gridtolerance="10"
     guidetolerance="10"
     inkscape:pageopacity="0"
     inkscape:pageshadow="2"
     inkscape:window-width="750"
     inkscape:window-height="982"
     id="namedview3033"
     showgrid="false"
     inkscape:zoom="9.8333333"
     inkscape:cx="23.113922"
     inkscape:cy="19.335072"
     inkscape:window-x="520"
     inkscape:window-y="32"
     inkscape:window-maximized="0"
     inkscape:current-layer="svg3009" />
  <defs
     id="defs3011">
    <linearGradient
       id="linear0"
       gradientUnits="userSpaceOnUse"
       x1="1"
       y1="0"
       x2="47"
       y2="0"
       gradientTransform="matrix(0,-1,1,0,0.00221467,48.000001)">
      <stop
         offset="0"
         style="stop-color:rgb(20.392157%,30.588235%,55.686275%);stop-opacity:1;"
         id="stop3014" />
      <stop
         offset="1"
         style="stop-color:rgb(22.745098%,33.72549%,61.176471%);stop-opacity:1;"
         id="stop3016" />
    </linearGradient>
  </defs>
  <path
     inkscape:connector-curvature="0"
     id="path3025"
     d="M 1,43 1,5 C 1,2.789062 2.789062,1 5,1 l 38,0 c 2.210938,0 4,1.789062 4,4 l 0,38 c 0,2.210938 -1.789062,4 -4,4 L 5,47 C 2.789062,47 1,45.210938 1,43 z m 0,0"
     style="fill:#3a569c;fill-rule:nonzero;stroke:none;fill-opacity:1" />
  <path
     inkscape:connector-curvature="0"
     id="path3029"
     d="m 17,19.000094 3,0 0,-2 c 0,-1.558594 0.222656,-2.632812 0.585938,-3.402344 0.378906,-0.765625 1.058593,-1.386718 2.046874,-1.867187 1,-0.484375 2.261719,-0.730469 3.785157,-0.730469 1.558593,0 3.195312,0.402344 4.582031,1 l -1,3 c -0.871094,-0.1875 -1.453125,-0.234375 -2.257812,-0.234375 -0.792969,0 -1.363282,0.167969 -1.714844,0.507813 C 25.6875,15.59775 25,16.058688 25,17.004 l 0,2 5,0 0,3 -5,0 0,15 -4.960938,0 -0.03906,-15 -3,0"
     style="fill:#f8f8f8;fill-opacity:1;fill-rule:nonzero;stroke:none" />
</svg>
