<?xml version="1.0" encoding="UTF-8" standalone="no"?>
<svg
   xmlns:dc="http://purl.org/dc/elements/1.1/"
   xmlns:cc="http://creativecommons.org/ns#"
   xmlns:rdf="http://www.w3.org/1999/02/22-rdf-syntax-ns#"
   xmlns:svg="http://www.w3.org/2000/svg"
   xmlns="http://www.w3.org/2000/svg"
   xmlns:sodipodi="http://sodipodi.sourceforge.net/DTD/sodipodi-0.dtd"
   xmlns:inkscape="http://www.inkscape.org/namespaces/inkscape"
   width="48px"
   height="48px"
   viewBox="0 0 48 48"
   version="1.1"
   id="svg3043"
   inkscape:version="0.91 r13725"
   sodipodi:docname="gmail.svg">
  <metadata
     id="metadata3089">
    <rdf:RDF>
      <cc:Work
         rdf:about="">
        <dc:format>image/svg+xml</dc:format>
        <dc:type
           rdf:resource="http://purl.org/dc/dcmitype/StillImage" />
      </cc:Work>
    </rdf:RDF>
  </metadata>
  <sodipodi:namedview
     pagecolor="#ffffff"
     bordercolor="#666666"
     borderopacity="1"
     objecttolerance="10"
     gridtolerance="10"
     guidetolerance="10"
     inkscape:pageopacity="0"
     inkscape:pageshadow="2"
     inkscape:window-width="622"
     inkscape:window-height="982"
     id="namedview3087"
     showgrid="false"
     inkscape:zoom="6.9532167"
     inkscape:cx="29.244373"
     inkscape:cy="17.205518"
     inkscape:window-x="648"
     inkscape:window-y="32"
     inkscape:window-maximized="0"
     inkscape:current-layer="svg3043" />
  <defs
     id="defs3045">
    <linearGradient
       id="linear0"
       gradientUnits="userSpaceOnUse"
       x1="1"
       y1="0"
       x2="47"
       y2="0"
       gradientTransform="matrix(0,-1,1,0,0.00221467,48.000001)">
      <stop
         offset="0"
         style="stop-color:rgb(81.176471%,81.176471%,81.176471%);stop-opacity:1;"
         id="stop3048" />
      <stop
         offset="1"
         style="stop-color:rgb(85.098039%,85.098039%,85.098039%);stop-opacity:1;"
         id="stop3050" />
    </linearGradient>
  </defs>
  <path
     inkscape:connector-curvature="0"
     id="path3059"
     d="M 1,43 1,5 C 1,2.789062 2.789062,1 5,1 l 38,0 c 2.210938,0 4,1.789062 4,4 l 0,38 c 0,2.210938 -1.789062,4 -4,4 L 5,47 C 2.789062,47 1,45.210938 1,43 z m 0,0"
     style="fill:#d9d9d9;fill-rule:nonzero;stroke:none;fill-opacity:1" />
  <path
     inkscape:connector-curvature="0"
     id="path3069"
     d="m 12,16 c -0.542969,0 -0.996094,0.453125 -0.996094,0.996094 l 0,1 13,8.65625 0,-3.3125 -11,-7.34375 -1,0 M 12,16"
     style="fill:#000000;fill-opacity:0.10196102;fill-rule:nonzero;stroke:none" />
  <path
     inkscape:connector-curvature="0"
     id="path3071"
     d="m 36,16 c 0.546875,0 1,0.453125 1,0.996094 l 0,1 -13,8.65625 0,-3.3125 10.996094,-7.34375 1,0 M 36,16"
     style="fill:#000000;fill-opacity:0.10196102;fill-rule:nonzero;stroke:none" />
  <path
     inkscape:connector-curvature="0"
     id="path3073"
     d="m 11.984375,15 24.03125,0 c 0.542969,0 0.976563,0.441406 0.976563,0.984375 l 0,16.03125 c 0,0.542969 -0.4375,0.976563 -0.976563,0.976563 l -24.03125,0 C 11.4375,32.992188 11,32.554688 11,32.015625 l 0,-16.03125 C 11,15.441406 11.4375,15 11.984375,15 m 0,0"
     style="fill:#f8f8f8;fill-opacity:1;fill-rule:nonzero;stroke:none" />
  <path
     inkscape:connector-curvature="0"
     id="path3075"
     d="M 37,17 24,25.65625 35,33 l 1,0 c 0.546875,0 1,-0.453125 1,-1 m 0,-15"
     style="fill:#cccccc;fill-opacity:1;fill-rule:nonzero;stroke:none" />
  <path
     inkscape:connector-curvature="0"
     id="path3077"
     d="m 35,15 0,18 1,0 c 0.546875,0 1,-0.453125 1,-1 l 0,-16 c 0,-0.542969 -0.453125,-0.996094 -1,-0.996094 m -1,0"
     style="fill:#bf2b1e;fill-opacity:1;fill-rule:nonzero;stroke:none" />
  <path
     inkscape:connector-curvature="0"
     id="path3079"
     d="m 12,15 c -0.542969,0 -0.996094,0.453125 -0.996094,0.996094 l 0,16 c 0,0.546875 0.453125,1 0.996094,1 l 1,0 0,-18 m -1,0"
     style="fill:#ff473a;fill-opacity:1;fill-rule:nonzero;stroke:none" />
  <path
     inkscape:connector-curvature="0"
     id="path3081"
     d="m 12,15 c -0.542969,0 -0.996094,0.453125 -0.996094,0.996094 l 0,1 13,8.65625 0,-3.3125 -11,-7.34375 -1,0 M 12,15"
     style="fill:#ff473a;fill-opacity:1;fill-rule:nonzero;stroke:none" />
  <path
     inkscape:connector-curvature="0"
     id="path3083"
     d="m 36,15 c 0.546875,0 1,0.453125 1,0.996094 l 0,1 -13,8.65625 0,-3.3125 10.996094,-7.34375 1,0 M 36,15"
     style="fill:#ff473a;fill-opacity:1;fill-rule:nonzero;stroke:none" />
</svg>
