<?xml version="1.0" encoding="UTF-8" standalone="no"?>
<svg
   xmlns:dc="http://purl.org/dc/elements/1.1/"
   xmlns:cc="http://creativecommons.org/ns#"
   xmlns:rdf="http://www.w3.org/1999/02/22-rdf-syntax-ns#"
   xmlns:svg="http://www.w3.org/2000/svg"
   xmlns="http://www.w3.org/2000/svg"
   xmlns:sodipodi="http://sodipodi.sourceforge.net/DTD/sodipodi-0.dtd"
   xmlns:inkscape="http://www.inkscape.org/namespaces/inkscape"
   width="48px"
   height="48px"
   viewBox="0 0 48 48"
   version="1.1"
   id="svg3392"
   inkscape:version="0.91 r13725"
   sodipodi:docname="twitter.svg">
  <metadata
     id="metadata3418">
    <rdf:RDF>
      <cc:Work
         rdf:about="">
        <dc:format>image/svg+xml</dc:format>
        <dc:type
           rdf:resource="http://purl.org/dc/dcmitype/StillImage" />
      </cc:Work>
    </rdf:RDF>
  </metadata>
  <sodipodi:namedview
     pagecolor="#ffffff"
     bordercolor="#666666"
     borderopacity="1"
     objecttolerance="10"
     gridtolerance="10"
     guidetolerance="10"
     inkscape:pageopacity="0"
     inkscape:pageshadow="2"
     inkscape:window-width="622"
     inkscape:window-height="982"
     id="namedview3416"
     showgrid="false"
     inkscape:zoom="6.9532167"
     inkscape:cx="23.485925"
     inkscape:cy="13.643114"
     inkscape:window-x="648"
     inkscape:window-y="32"
     inkscape:window-maximized="0"
     inkscape:current-layer="svg3392" />
  <defs
     id="defs3394">
    <linearGradient
       id="linear0"
       gradientUnits="userSpaceOnUse"
       x1="1"
       y1="0"
       x2="47"
       y2="0"
       gradientTransform="matrix(0,-1,1,0,0.00221467,48.000001)">
      <stop
         offset="0"
         style="stop-color:rgb(0%,67.45098%,92.54902%);stop-opacity:1;"
         id="stop3397" />
      <stop
         offset="1"
         style="stop-color:rgb(0.392157%,72.54902%,100%);stop-opacity:1;"
         id="stop3399" />
    </linearGradient>
  </defs>
  <path
     inkscape:connector-curvature="0"
     id="path3408"
     d="M 1,43 1,5 C 1,2.789062 2.789062,1 5,1 l 38,0 c 2.210938,0 4,1.789062 4,4 l 0,38 c 0,2.210938 -1.789062,4 -4,4 L 5,47 C 2.789062,47 1,45.210938 1,43 z m 0,0"
     style="fill:#01b9ff;fill-rule:nonzero;stroke:none;fill-opacity:1" />
  <path
     inkscape:connector-curvature="0"
     id="path3412"
     d="m 27.289062,13.257786 c -2.347656,0.875 -3.832031,3.128907 -3.664062,5.59375 l 0.05469,0.953126 -0.9375,-0.117188 c -3.417969,-0.445312 -6.40625,-1.960938 -8.941407,-4.503906 l -1.242187,-1.265625 -0.316406,0.933593 c -0.679688,2.078126 -0.246094,4.273438 1.164062,5.75 0.75,0.8125 0.582031,0.929688 -0.714844,0.445313 -0.449218,-0.15625 -0.847656,-0.273437 -0.882812,-0.214844 -0.132813,0.136719 0.316406,1.90625 0.675781,2.601563 0.488281,0.972656 1.484375,1.925781 2.574219,2.488281 l 0.917968,0.445313 -1.085937,0.01953 c -1.054687,0 -1.089844,0.01953 -0.980469,0.425781 0.378906,1.265625 1.863282,2.605469 3.523438,3.1875 l 1.164062,0.410156 -1.023437,0.617188 c -1.5,0.894531 -3.265625,1.398437 -5.027344,1.4375 -0.847656,0.01953 -1.542969,0.09766 -1.542969,0.15625 0,0.195312 2.292969,1.28125 3.625,1.707031 4,1.265625 8.753906,0.71875 12.324219,-1.433594 2.535156,-1.535156 5.074219,-4.585937 6.257813,-7.535156 0.636718,-1.574219 1.277343,-4.449219 1.277343,-5.828125 0,-0.890625 0.05469,-1.007812 1.109375,-2.078125 0.617188,-0.621094 1.199219,-1.300781 1.3125,-1.492187 0.1875,-0.371094 0.167969,-0.371094 -0.789062,-0.03906 -1.597656,0.578125 -1.824219,0.503906 -1.03125,-0.371094 0.582031,-0.621093 1.273437,-1.746093 1.273437,-2.078125 0,-0.05859 -0.28125,0.03906 -0.597656,0.214844 -0.339844,0.191406 -1.089844,0.484375 -1.652344,0.660156 l -1.015625,0.328125 -0.921875,-0.640625 c -0.523437,-0.347656 -1.230469,-0.738281 -1.605469,-0.855468 -0.957031,-0.269532 -2.421874,-0.230469 -3.285156,0.07812 m 0,0"
     style="fill:#f8f8f8;fill-opacity:1;fill-rule:nonzero;stroke:none" />
</svg>
