
<svg xmlns="http://www.w3.org/2000/svg" xmlns:xlink="http://www.w3.org/1999/xlink" width="48px" height="48px" viewBox="0 0 48 48" version="1.1">
<defs>
<linearGradient id="linear0" gradientUnits="userSpaceOnUse" x1="1" y1="0" x2="47" y2="0" gradientTransform="matrix(0,-1,1,0,0.00221467,48.000001)">
<stop offset="0" style="stop-color:rgb(81.176471%,81.176471%,81.176471%);stop-opacity:1;"/>
<stop offset="1" style="stop-color:rgb(85.098039%,85.098039%,85.098039%);stop-opacity:1;"/>
</linearGradient>
</defs>
<g id="surface1">
<path style=" stroke:none;fill-rule:nonzero;fill:rgb(0%,0%,0%);fill-opacity:0.0196078;" d="M 1 43 L 1 43.25 C 1 45.464844 2.785156 47.25 5 47.25 L 43 47.25 C 45.214844 47.25 47 45.464844 47 43.25 L 47 43 C 47 45.214844 45.214844 47 43 47 L 5 47 C 2.785156 47 1 45.214844 1 43 Z M 1 43.5 L 1 44 C 1 46.214844 2.785156 48 5 48 L 43 48 C 45.214844 48 47 46.214844 47 44 L 47 43.5 C 47 45.714844 45.214844 47.5 43 47.5 L 5 47.5 C 2.785156 47.5 1 45.714844 1 43.5 Z M 1 43.5 "/>
<path style=" stroke:none;fill-rule:nonzero;fill:rgb(0%,0%,0%);fill-opacity:0.0509804;" d="M 1 43.25 L 1 43.5 C 1 45.714844 2.785156 47.5 5 47.5 L 43 47.5 C 45.214844 47.5 47 45.714844 47 43.5 L 47 43.25 C 47 45.464844 45.214844 47.25 43 47.25 L 5 47.25 C 2.785156 47.25 1 45.464844 1 43.25 Z M 1 43.25 "/>
<path style=" stroke:none;fill-rule:nonzero;fill:rgb(0%,0%,0%);fill-opacity:0.101961;" d="M 1 43 L 1 43.25 C 1 45.464844 2.785156 47.25 5 47.25 L 43 47.25 C 45.214844 47.25 47 45.464844 47 43.25 L 47 43 C 47 45.214844 45.214844 47 43 47 L 5 47 C 2.785156 47 1 45.214844 1 43 Z M 1 43 "/>
<path style=" stroke:none;fill-rule:nonzero;fill:url(#linear0);" d="M 1 43 L 1 5 C 1 2.789062 2.789062 1 5 1 L 43 1 C 45.210938 1 47 2.789062 47 5 L 47 43 C 47 45.210938 45.210938 47 43 47 L 5 47 C 2.789062 47 1 45.210938 1 43 Z M 1 43 "/>
<path style=" stroke:none;fill-rule:nonzero;fill:rgb(0%,0%,0%);fill-opacity:0.101961;" d="M 11.984375 15 L 36.015625 15 C 36.558594 15 36.992188 15.441406 36.992188 15.984375 L 36.992188 32.015625 C 36.992188 32.558594 36.554688 32.992188 36.015625 32.992188 L 11.984375 32.992188 C 11.4375 32.992188 11 32.554688 11 32.015625 L 11 15.984375 C 11 15.441406 11.4375 15 11.984375 15 M 11.984375 15 "/>
<path style=" stroke:none;fill-rule:nonzero;fill:rgb(0%,0%,0%);fill-opacity:0.101961;" d="M 37 17 L 24 25.65625 L 35 33 L 36 33 C 36.546875 33 37 32.546875 37 32 M 37 17 "/>
<path style=" stroke:none;fill-rule:nonzero;fill:rgb(0%,0%,0%);fill-opacity:0.101961;" d="M 35 15 L 35 33 L 36 33 C 36.546875 33 37 32.546875 37 32 L 37 16 C 37 15.457031 36.546875 15.003906 36 15.003906 M 35 15.003906 "/>
<path style=" stroke:none;fill-rule:nonzero;fill:rgb(0%,0%,0%);fill-opacity:0.101961;" d="M 12 15 C 11.457031 15 11.003906 15.453125 11.003906 15.996094 L 11.003906 31.996094 C 11.003906 32.542969 11.457031 32.996094 12 32.996094 L 13 32.996094 L 13 14.996094 M 12 14.996094 "/>
<path style=" stroke:none;fill-rule:nonzero;fill:rgb(0%,0%,0%);fill-opacity:0.101961;" d="M 12 15 C 11.457031 15 11.003906 15.453125 11.003906 15.996094 L 11.003906 16.996094 L 24.003906 25.652344 L 24.003906 22.339844 L 13.003906 14.996094 L 12.003906 14.996094 M 12 15 "/>
<path style=" stroke:none;fill-rule:nonzero;fill:rgb(0%,0%,0%);fill-opacity:0.101961;" d="M 36 15 C 36.546875 15 37 15.453125 37 15.996094 L 37 16.996094 L 24 25.652344 L 24 22.339844 L 34.996094 14.996094 L 35.996094 14.996094 M 36 15 "/>
<path style=" stroke:none;fill-rule:nonzero;fill:rgb(97.647059%,97.647059%,97.647059%);fill-opacity:1;" d="M 11.984375 14 L 36.015625 14 C 36.558594 14 36.992188 14.441406 36.992188 14.984375 L 36.992188 31.015625 C 36.992188 31.558594 36.554688 31.992188 36.015625 31.992188 L 11.984375 31.992188 C 11.4375 31.992188 11 31.554688 11 31.015625 L 11 14.984375 C 11 14.441406 11.4375 14 11.984375 14 M 11.984375 14 "/>
<path style=" stroke:none;fill-rule:nonzero;fill:rgb(80%,80%,80%);fill-opacity:1;" d="M 37 16 L 24 24.65625 L 35 32 L 36 32 C 36.546875 32 37 31.546875 37 31 M 37 16 "/>
<path style=" stroke:none;fill-rule:nonzero;fill:rgb(75.294118%,17.254902%,12.156863%);fill-opacity:1;" d="M 35 14 L 35 32 L 36 32 C 36.546875 32 37 31.546875 37 31 L 37 15 C 37 14.457031 36.546875 14.003906 36 14.003906 M 35 14.003906 "/>
<path style=" stroke:none;fill-rule:nonzero;fill:rgb(100%,28.627451%,23.529412%);fill-opacity:1;" d="M 12 14 C 11.457031 14 11.003906 14.453125 11.003906 14.996094 L 11.003906 30.996094 C 11.003906 31.542969 11.457031 31.996094 12 31.996094 L 13 31.996094 L 13 13.996094 M 12 13.996094 "/>
<path style=" stroke:none;fill-rule:nonzero;fill:rgb(100%,28.627451%,23.529412%);fill-opacity:1;" d="M 12 14 C 11.457031 14 11.003906 14.453125 11.003906 14.996094 L 11.003906 15.996094 L 24.003906 24.652344 L 24.003906 21.339844 L 13.003906 13.996094 L 12.003906 13.996094 M 12 14 "/>
<path style=" stroke:none;fill-rule:nonzero;fill:rgb(100%,28.627451%,23.529412%);fill-opacity:1;" d="M 36 14 C 36.546875 14 37 14.453125 37 14.996094 L 37 15.996094 L 24 24.652344 L 24 21.339844 L 34.996094 13.996094 L 35.996094 13.996094 M 36 14 "/>
<path style=" stroke:none;fill-rule:nonzero;fill:rgb(0%,0%,0%);fill-opacity:0.101961;" d="M 1 38.996094 L 1 42.996094 C 1 45.214844 2.785156 46.996094 5 46.996094 L 43 46.996094 C 45.214844 46.996094 47 45.214844 47 42.996094 L 47 38.996094 C 47 41.214844 45.214844 42.996094 43 42.996094 L 5 42.996094 C 2.785156 42.996094 1 41.214844 1 38.996094 Z M 1 38.996094 "/>
</g>
</svg>
