<?xml version="1.0" encoding="UTF-8" standalone="no"?>
<svg
   xmlns:dc="http://purl.org/dc/elements/1.1/"
   xmlns:cc="http://creativecommons.org/ns#"
   xmlns:rdf="http://www.w3.org/1999/02/22-rdf-syntax-ns#"
   xmlns:svg="http://www.w3.org/2000/svg"
   xmlns="http://www.w3.org/2000/svg"
   xmlns:xlink="http://www.w3.org/1999/xlink"
   xmlns:sodipodi="http://sodipodi.sourceforge.net/DTD/sodipodi-0.dtd"
   xmlns:inkscape="http://www.inkscape.org/namespaces/inkscape"
   viewBox="0 0 48 48"
   id="svg2"
   version="1.1"
   inkscape:version="0.48.5 r10040"
   width="100%"
   height="100%"
   sodipodi:docname="gmail.svg">
  <metadata
     id="metadata81">
    <rdf:RDF>
      <cc:Work
         rdf:about="">
        <dc:format>image/svg+xml</dc:format>
        <dc:type
           rdf:resource="http://purl.org/dc/dcmitype/StillImage" />
      </cc:Work>
    </rdf:RDF>
  </metadata>
  <sodipodi:namedview
     pagecolor="#ffffff"
     bordercolor="#666666"
     borderopacity="1"
     objecttolerance="10"
     gridtolerance="10"
     guidetolerance="10"
     inkscape:pageopacity="0"
     inkscape:pageshadow="2"
     inkscape:window-width="640"
     inkscape:window-height="480"
     id="namedview79"
     showgrid="false"
     inkscape:zoom="4.9166667"
     inkscape:cx="24"
     inkscape:cy="24"
     inkscape:window-x="0"
     inkscape:window-y="0"
     inkscape:window-maximized="0"
     inkscape:current-layer="svg2" />
  <defs
     id="defs4">
    <linearGradient
       id="linearGradient3764"
       x1="1"
       x2="47"
       gradientUnits="userSpaceOnUse"
       gradientTransform="translate(-48.000001,0.00221467)">
      <stop
         stop-color="#cfcfcf"
         stop-opacity="1"
         id="stop7" />
      <stop
         offset="1"
         stop-color="#d9d9d9"
         stop-opacity="1"
         id="stop9" />
    </linearGradient>
    <clipPath
       id="clipPath-253737952">
      <g
         transform="translate(0,-1004.3622)"
         id="g12">
        <rect
           rx="4"
           y="1005.36"
           x="1"
           height="46"
           width="46"
           fill="#1890d0"
           id="rect14" />
      </g>
    </clipPath>
    <clipPath
       id="clipPath-268180066">
      <g
         transform="translate(0,-1004.3622)"
         id="g17">
        <rect
           rx="4"
           y="1005.36"
           x="1"
           height="46"
           width="46"
           fill="#1890d0"
           id="rect19" />
      </g>
    </clipPath>
    <linearGradient
       inkscape:collect="always"
       xlink:href="#linearGradient3764"
       id="linearGradient4466"
       gradientUnits="userSpaceOnUse"
       gradientTransform="translate(-48.000001,0.00221467)"
       x1="1"
       x2="47" />
  </defs>
  <path
     style="opacity:0.02000002"
     inkscape:connector-curvature="0"
     id="path23"
     d="m 1,43 0,0.25 c 0,2.216 1.784,4 4,4 l 38,0 c 2.216,0 4,-1.784 4,-4 L 47,43 c 0,2.216 -1.784,4 -4,4 L 5,47 C 2.784,47 1,45.216 1,43 z m 0,0.5 0,0.5 c 0,2.216 1.784,4 4,4 l 38,0 c 2.216,0 4,-1.784 4,-4 l 0,-0.5 c 0,2.216 -1.784,4 -4,4 l -38,0 c -2.216,0 -4,-1.784 -4,-4 z" />
  <path
     style="opacity:0.05"
     inkscape:connector-curvature="0"
     id="path25"
     d="m 1,43.25 0,0.25 c 0,2.216 1.784,4 4,4 l 38,0 c 2.216,0 4,-1.784 4,-4 l 0,-0.25 c 0,2.216 -1.784,4 -4,4 l -38,0 c -2.216,0 -4,-1.784 -4,-4 z" />
  <path
     style="opacity:0.1"
     inkscape:connector-curvature="0"
     id="path27"
     d="m 1,43 0,0.25 c 0,2.216 1.784,4 4,4 l 38,0 c 2.216,0 4,-1.784 4,-4 L 47,43 c 0,2.216 -1.784,4 -4,4 L 5,47 C 2.784,47 1,45.216 1,43 z" />
  <rect
     style="fill:url(#linearGradient4466);fill-opacity:1"
     id="rect31"
     transform="matrix(0,-1,1,0,0,0)"
     rx="4"
     y="1"
     x="-47"
     height="46"
     width="46" />
  <path
     d="m 11.984,15 24.03,0 c 0.543,0 0.977,0.441 0.977,0.984 l 0,16.03 c 0,0.543 -0.438,0.977 -0.977,0.977 l -24.03,0 C 11.437,32.991 11,32.553 11,32.014 l 0,-16.03 C 11,15.441 11.438,15 11.984,15 m 0,0"
     id="path41"
     inkscape:connector-curvature="0"
     style="opacity:0.1;fill:#000000;fill-opacity:1;fill-rule:nonzero;stroke:none" />
  <path
     d="M 37,17 24,25.656 35,33 l 1,0 c 0.547,0 1,-0.453 1,-1 m 0,-15"
     id="path43"
     inkscape:connector-curvature="0"
     style="opacity:0.1;fill:#000000;fill-opacity:1;fill-rule:nonzero;stroke:none" />
  <path
     d="m 35,15 0,18 1,0 c 0.547,0 1,-0.453 1,-1 l 0,-16 c 0,-0.543 -0.453,-0.996 -1,-0.996 m -1,0"
     id="path45"
     inkscape:connector-curvature="0"
     style="opacity:0.1;fill:#000000;fill-opacity:1;fill-rule:nonzero;stroke:none" />
  <path
     d="m 12,15 c -0.543,0 -0.996,0.453 -0.996,0.996 l 0,16 c 0,0.547 0.453,1 0.996,1 l 1,0 0,-18 m -1,0"
     id="path47"
     inkscape:connector-curvature="0"
     style="opacity:0.1;fill:#000000;fill-opacity:1;fill-rule:nonzero;stroke:none" />
  <path
     d="m 12,15 c -0.543,0 -0.996,0.453 -0.996,0.996 l 0,1 13,8.656 0,-3.313 -11,-7.344 -1,0 M 12,14.999"
     id="path49"
     inkscape:connector-curvature="0"
     style="opacity:0.1;fill:#000000;fill-opacity:1;fill-rule:nonzero;stroke:none" />
  <path
     d="m 36,15 c 0.547,0 1,0.453 1,0.996 l 0,1 -13,8.656 0,-3.313 10.996,-7.344 1,0 M 36,14.999"
     id="path51"
     inkscape:connector-curvature="0"
     style="opacity:0.1;fill:#000000;fill-opacity:1;fill-rule:nonzero;stroke:none" />
  <path
     d="m 11.984,14 24.03,0 c 0.543,0 0.977,0.441 0.977,0.984 l 0,16.03 c 0,0.543 -0.438,0.977 -0.977,0.977 l -24.03,0 C 11.437,31.991 11,31.553 11,31.014 l 0,-16.03 C 11,14.441 11.438,14 11.984,14 m 0,0"
     id="path61"
     inkscape:connector-curvature="0"
     style="fill:#f9f9f9;fill-opacity:1;fill-rule:nonzero;stroke:none" />
  <path
     d="M 37,16 24,24.656 35,32 l 1,0 c 0.547,0 1,-0.453 1,-1 m 0,-15"
     id="path63"
     inkscape:connector-curvature="0"
     style="fill:#cccccc;fill-opacity:1;fill-rule:nonzero;stroke:none" />
  <path
     d="m 35,14 0,18 1,0 c 0.547,0 1,-0.453 1,-1 l 0,-16 c 0,-0.543 -0.453,-0.996 -1,-0.996 m -1,0"
     id="path65"
     inkscape:connector-curvature="0"
     style="fill:#c02c1f;fill-opacity:1;fill-rule:nonzero;stroke:none" />
  <path
     d="m 12,14 c -0.543,0 -0.996,0.453 -0.996,0.996 l 0,16 c 0,0.547 0.453,1 0.996,1 l 1,0 0,-18 m -1,0"
     id="path67"
     inkscape:connector-curvature="0"
     style="fill:#ff493c;fill-opacity:1;fill-rule:nonzero;stroke:none" />
  <path
     d="m 12,14 c -0.543,0 -0.996,0.453 -0.996,0.996 l 0,1 13,8.656 0,-3.313 -11,-7.344 -1,0 M 12,13.999"
     id="path69"
     inkscape:connector-curvature="0"
     style="fill:#ff493c;fill-opacity:1;fill-rule:nonzero;stroke:none" />
  <path
     d="m 36,14 c 0.547,0 1,0.453 1,0.996 l 0,1 -13,8.656 0,-3.313 10.996,-7.344 1,0 M 36,13.999"
     id="path71"
     inkscape:connector-curvature="0"
     style="fill:#ff493c;fill-opacity:1;fill-rule:nonzero;stroke:none" />
  <path
     d="m 1,38.9978 0,4 c 0,2.216 1.784,4 4,4 l 38,0 c 2.216,0 4,-1.784 4,-4 l 0,-4 c 0,2.216 -1.784,4 -4,4 l -38,0 c -2.216,0 -4,-1.784 -4,-4 z"
     id="path77"
     inkscape:connector-curvature="0"
     style="opacity:0.1" />
</svg>
