<?xml version="1.0" encoding="UTF-8" standalone="no"?>
<svg
   xmlns:dc="http://purl.org/dc/elements/1.1/"
   xmlns:cc="http://creativecommons.org/ns#"
   xmlns:rdf="http://www.w3.org/1999/02/22-rdf-syntax-ns#"
   xmlns:svg="http://www.w3.org/2000/svg"
   xmlns="http://www.w3.org/2000/svg"
   xmlns:xlink="http://www.w3.org/1999/xlink"
   xmlns:sodipodi="http://sodipodi.sourceforge.net/DTD/sodipodi-0.dtd"
   xmlns:inkscape="http://www.inkscape.org/namespaces/inkscape"
   viewBox="0 0 48 48"
   id="svg3058"
   version="1.1"
   inkscape:version="0.48.5 r10040"
   width="100%"
   height="100%"
   sodipodi:docname="googleplus.svg">
  <metadata
     id="metadata3121">
    <rdf:RDF>
      <cc:Work
         rdf:about="">
        <dc:format>image/svg+xml</dc:format>
        <dc:type
           rdf:resource="http://purl.org/dc/dcmitype/StillImage" />
      </cc:Work>
    </rdf:RDF>
  </metadata>
  <sodipodi:namedview
     pagecolor="#ffffff"
     bordercolor="#666666"
     borderopacity="1"
     objecttolerance="10"
     gridtolerance="10"
     guidetolerance="10"
     inkscape:pageopacity="0"
     inkscape:pageshadow="2"
     inkscape:window-width="640"
     inkscape:window-height="480"
     id="namedview3119"
     showgrid="false"
     inkscape:zoom="4.9166667"
     inkscape:cx="24"
     inkscape:cy="24"
     inkscape:window-x="0"
     inkscape:window-y="0"
     inkscape:window-maximized="0"
     inkscape:current-layer="svg3058" />
  <defs
     id="defs3060">
    <linearGradient
       id="linearGradient3764"
       x1="1"
       x2="47"
       gradientUnits="userSpaceOnUse"
       gradientTransform="translate(-48.000001,0.00221467)">
      <stop
         stop-color="#d84430"
         stop-opacity="1"
         id="stop3063" />
      <stop
         offset="1"
         stop-color="#db5441"
         stop-opacity="1"
         id="stop3065" />
    </linearGradient>
    <clipPath
       id="clipPath-272098452">
      <g
         transform="translate(0,-1004.3622)"
         id="g3068">
        <rect
           rx="4"
           y="1005.36"
           x="1"
           height="46"
           width="46"
           fill="#1890d0"
           id="rect3070" />
      </g>
    </clipPath>
    <clipPath
       id="clipPath-286296608">
      <g
         transform="translate(0,-1004.3622)"
         id="g3073">
        <rect
           rx="4"
           y="1005.36"
           x="1"
           height="46"
           width="46"
           fill="#1890d0"
           id="rect3075" />
      </g>
    </clipPath>
    <linearGradient
       inkscape:collect="always"
       xlink:href="#linearGradient3764"
       id="linearGradient4448"
       gradientUnits="userSpaceOnUse"
       gradientTransform="translate(-48.000001,0.00221467)"
       x1="1"
       x2="47" />
  </defs>
  <path
     style="opacity:0.02000002"
     inkscape:connector-curvature="0"
     id="path3079"
     d="m 1,43 0,0.25 c 0,2.216 1.784,4 4,4 l 38,0 c 2.216,0 4,-1.784 4,-4 L 47,43 c 0,2.216 -1.784,4 -4,4 L 5,47 C 2.784,47 1,45.216 1,43 z m 0,0.5 0,0.5 c 0,2.216 1.784,4 4,4 l 38,0 c 2.216,0 4,-1.784 4,-4 l 0,-0.5 c 0,2.216 -1.784,4 -4,4 l -38,0 c -2.216,0 -4,-1.784 -4,-4 z" />
  <path
     style="opacity:0.05"
     inkscape:connector-curvature="0"
     id="path3081"
     d="m 1,43.25 0,0.25 c 0,2.216 1.784,4 4,4 l 38,0 c 2.216,0 4,-1.784 4,-4 l 0,-0.25 c 0,2.216 -1.784,4 -4,4 l -38,0 c -2.216,0 -4,-1.784 -4,-4 z" />
  <path
     style="opacity:0.1"
     inkscape:connector-curvature="0"
     id="path3083"
     d="m 1,43 0,0.25 c 0,2.216 1.784,4 4,4 l 38,0 c 2.216,0 4,-1.784 4,-4 L 47,43 c 0,2.216 -1.784,4 -4,4 L 5,47 C 2.784,47 1,45.216 1,43 z" />
  <rect
     style="fill:url(#linearGradient4448);fill-opacity:1"
     id="rect3087"
     transform="matrix(0,-1,1,0,0,0)"
     rx="4"
     y="1"
     x="-47"
     height="46"
     width="46" />
  <g
     id="g3091"
     clip-path="url(#clipPath-272098452)">
    <g
       style="opacity:0.1"
       id="g3093">
      <!-- color: #db5441 -->
      <g
         id="g3095">
        <path
           style="fill:#000000;fill-opacity:1;fill-rule:nonzero;stroke:none"
           inkscape:connector-curvature="0"
           id="path3097"
           d="m 21.04,13.148 c 0.191,0.148 0.418,0.348 0.676,0.598 0.258,0.23 0.508,0.527 0.742,0.883 0.238,0.336 0.441,0.734 0.613,1.199 0.172,0.461 0.258,0.984 0.258,1.574 0,0.586 -0.074,1.102 -0.227,1.543 -0.148,0.441 -0.355,0.84 -0.613,1.195 -0.258,0.336 -0.547,0.652 -0.871,0.945 -0.32,0.273 -0.656,0.535 -1,0.789 -0.215,0.207 -0.418,0.43 -0.613,0.66 -0.191,0.23 -0.289,0.523 -0.289,0.883 0,0.355 0.098,0.641 0.289,0.848 0.195,0.191 0.379,0.359 0.551,0.508 l 1.16,0.879 c 0.344,0.297 0.68,0.59 1,0.883 0.344,0.293 0.637,0.609 0.871,0.945 0.258,0.336 0.465,0.715 0.613,1.133 0.152,0.422 0.227,0.902 0.227,1.449 0,0.734 -0.184,1.461 -0.547,2.176 -0.367,0.711 -0.906,1.344 -1.613,1.887 -0.711,0.566 -1.605,1.02 -2.68,1.355 -1.055,0.355 -2.27,0.535 -3.645,0.535 -1.164,0 -2.184,-0.125 -3.066,-0.379 -0.859,-0.25 -1.582,-0.586 -2.16,-1.012 C 10.134,34.206 9.704,33.722 9.423,33.175 9.146,32.652 9.005,32.097 9.005,31.507 c 0,-0.566 0.184,-1.219 0.547,-1.953 0.348,-0.715 0.992,-1.344 1.938,-1.891 0.496,-0.293 1.023,-0.535 1.582,-0.723 0.578,-0.168 1.148,-0.305 1.707,-0.41 0.566,-0.105 1.086,-0.18 1.582,-0.219 0.496,-0.043 0.926,-0.074 1.289,-0.098 -0.234,-0.293 -0.461,-0.605 -0.676,-0.91 -0.195,-0.336 -0.289,-0.746 -0.289,-1.23 0,-0.273 0.031,-0.492 0.094,-0.66 0.066,-0.191 0.148,-0.379 0.23,-0.566 -0.172,0.02 -0.348,0.039 -0.52,0.063 -0.172,0 -0.344,0 -0.516,0 -0.859,0 -1.625,-0.137 -2.289,-0.406 -0.668,-0.293 -1.227,-0.676 -1.68,-1.137 -0.453,-0.465 -0.797,-0.984 -1.031,-1.578 -0.238,-0.602 -0.355,-1.215 -0.355,-1.82 0,-0.734 0.172,-1.473 0.52,-2.207 0.344,-0.754 0.855,-1.426 1.551,-2.023 0.922,-0.73 1.891,-1.207 2.902,-1.418 1.027,-0.207 1.984,-0.313 2.871,-0.313 l 6.645,0 -2.066,1.133 -2,0 m -3.551,8.883 c 0.41,0 0.816,-0.086 1.195,-0.254 0.406,-0.168 0.742,-0.375 1,-0.629 0.363,-0.355 0.59,-0.754 0.676,-1.195 0.086,-0.438 0.129,-0.809 0.129,-1.102 0,-0.57 -0.086,-1.188 -0.258,-1.859 -0.172,-0.672 -0.43,-1.301 -0.77,-1.891 -0.348,-0.586 -0.773,-1.07 -1.289,-1.449 -0.496,-0.398 -1.078,-0.598 -1.742,-0.598 -0.434,0 -0.855,0.094 -1.258,0.285 -0.41,0.188 -0.742,0.438 -1,0.754 -0.277,0.336 -0.477,0.703 -0.578,1.102 -0.086,0.398 -0.129,0.809 -0.129,1.23 0,0.523 0.07,1.113 0.227,1.762 0.172,0.652 0.418,1.262 0.742,1.828 0.344,0.566 0.762,1.051 1.258,1.449 0.523,0.379 1.117,0.566 1.805,0.566 m 4.777,9.262 c 0,-0.402 -0.078,-0.77 -0.227,-1.105 -0.133,-0.313 -0.336,-0.629 -0.613,-0.945 -0.281,-0.313 -0.648,-0.637 -1.098,-0.973 -0.453,-0.336 -0.98,-0.715 -1.582,-1.137 -0.133,-0.02 -0.246,-0.031 -0.355,-0.031 -0.086,0 -0.215,0 -0.387,0 -0.066,0 -0.215,0 -0.449,0 -0.238,0.023 -0.516,0.043 -0.84,0.063 -0.324,0.043 -0.668,0.102 -1.031,0.16 -0.367,0.082 -0.723,0.176 -1.063,0.281 -0.176,0.063 -0.418,0.16 -0.742,0.285 -0.301,0.145 -0.605,0.344 -0.902,0.598 -0.301,0.25 -0.57,0.566 -0.809,0.945 -0.215,0.379 -0.32,0.852 -0.32,1.418 0,1.133 0.504,2.059 1.516,2.77 1.031,0.715 2.418,1.07 4.16,1.07 1.566,0 2.73,-0.324 3.523,-0.977 0.813,-0.629 1.227,-1.438 1.227,-2.422" />
        <path
           style="fill:#000000;fill-opacity:1;fill-rule:nonzero;stroke:none"
           inkscape:connector-curvature="0"
           id="path3099"
           d="m 34,16.738 0,5.262 5,0 0,2 -5,0 0,5 -2,0 0,-5 -5,0 0,-2 5,0 0,-5.262" />
      </g>
    </g>
  </g>
  <g
     id="g3103"
     clip-path="url(#clipPath-286296608)">
    <g
       id="g3105"
       transform="translate(0,-1)">
      <!-- color: #db5441 -->
      <g
         id="g3107">
        <path
           style="fill:#f9f9f9;fill-opacity:1;fill-rule:nonzero;stroke:none"
           inkscape:connector-curvature="0"
           id="path3109"
           d="m 21.04,13.148 c 0.191,0.148 0.418,0.348 0.676,0.598 0.258,0.23 0.508,0.527 0.742,0.883 0.238,0.336 0.441,0.734 0.613,1.199 0.172,0.461 0.258,0.984 0.258,1.574 0,0.586 -0.074,1.102 -0.227,1.543 -0.148,0.441 -0.355,0.84 -0.613,1.195 -0.258,0.336 -0.547,0.652 -0.871,0.945 -0.32,0.273 -0.656,0.535 -1,0.789 -0.215,0.207 -0.418,0.43 -0.613,0.66 -0.191,0.23 -0.289,0.523 -0.289,0.883 0,0.355 0.098,0.641 0.289,0.848 0.195,0.191 0.379,0.359 0.551,0.508 l 1.16,0.879 c 0.344,0.297 0.68,0.59 1,0.883 0.344,0.293 0.637,0.609 0.871,0.945 0.258,0.336 0.465,0.715 0.613,1.133 0.152,0.422 0.227,0.902 0.227,1.449 0,0.734 -0.184,1.461 -0.547,2.176 -0.367,0.711 -0.906,1.344 -1.613,1.887 -0.711,0.566 -1.605,1.02 -2.68,1.355 -1.055,0.355 -2.27,0.535 -3.645,0.535 -1.164,0 -2.184,-0.125 -3.066,-0.379 -0.859,-0.25 -1.582,-0.586 -2.16,-1.012 C 10.134,34.206 9.704,33.722 9.423,33.175 9.146,32.652 9.005,32.097 9.005,31.507 c 0,-0.566 0.184,-1.219 0.547,-1.953 0.348,-0.715 0.992,-1.344 1.938,-1.891 0.496,-0.293 1.023,-0.535 1.582,-0.723 0.578,-0.168 1.148,-0.305 1.707,-0.41 0.566,-0.105 1.086,-0.18 1.582,-0.219 0.496,-0.043 0.926,-0.074 1.289,-0.098 -0.234,-0.293 -0.461,-0.605 -0.676,-0.91 -0.195,-0.336 -0.289,-0.746 -0.289,-1.23 0,-0.273 0.031,-0.492 0.094,-0.66 0.066,-0.191 0.148,-0.379 0.23,-0.566 -0.172,0.02 -0.348,0.039 -0.52,0.063 -0.172,0 -0.344,0 -0.516,0 -0.859,0 -1.625,-0.137 -2.289,-0.406 -0.668,-0.293 -1.227,-0.676 -1.68,-1.137 -0.453,-0.465 -0.797,-0.984 -1.031,-1.578 -0.238,-0.602 -0.355,-1.215 -0.355,-1.82 0,-0.734 0.172,-1.473 0.52,-2.207 0.344,-0.754 0.855,-1.426 1.551,-2.023 0.922,-0.73 1.891,-1.207 2.902,-1.418 1.027,-0.207 1.984,-0.313 2.871,-0.313 l 6.645,0 -2.066,1.133 -2,0 m -3.551,8.883 c 0.41,0 0.816,-0.086 1.195,-0.254 0.406,-0.168 0.742,-0.375 1,-0.629 0.363,-0.355 0.59,-0.754 0.676,-1.195 0.086,-0.438 0.129,-0.809 0.129,-1.102 0,-0.57 -0.086,-1.188 -0.258,-1.859 -0.172,-0.672 -0.43,-1.301 -0.77,-1.891 -0.348,-0.586 -0.773,-1.07 -1.289,-1.449 -0.496,-0.398 -1.078,-0.598 -1.742,-0.598 -0.434,0 -0.855,0.094 -1.258,0.285 -0.41,0.188 -0.742,0.438 -1,0.754 -0.277,0.336 -0.477,0.703 -0.578,1.102 -0.086,0.398 -0.129,0.809 -0.129,1.23 0,0.523 0.07,1.113 0.227,1.762 0.172,0.652 0.418,1.262 0.742,1.828 0.344,0.566 0.762,1.051 1.258,1.449 0.523,0.379 1.117,0.566 1.805,0.566 m 4.777,9.262 c 0,-0.402 -0.078,-0.77 -0.227,-1.105 -0.133,-0.313 -0.336,-0.629 -0.613,-0.945 -0.281,-0.313 -0.648,-0.637 -1.098,-0.973 -0.453,-0.336 -0.98,-0.715 -1.582,-1.137 -0.133,-0.02 -0.246,-0.031 -0.355,-0.031 -0.086,0 -0.215,0 -0.387,0 -0.066,0 -0.215,0 -0.449,0 -0.238,0.023 -0.516,0.043 -0.84,0.063 -0.324,0.043 -0.668,0.102 -1.031,0.16 -0.367,0.082 -0.723,0.176 -1.063,0.281 -0.176,0.063 -0.418,0.16 -0.742,0.285 -0.301,0.145 -0.605,0.344 -0.902,0.598 -0.301,0.25 -0.57,0.566 -0.809,0.945 -0.215,0.379 -0.32,0.852 -0.32,1.418 0,1.133 0.504,2.059 1.516,2.77 1.031,0.715 2.418,1.07 4.16,1.07 1.566,0 2.73,-0.324 3.523,-0.977 0.813,-0.629 1.227,-1.438 1.227,-2.422" />
        <path
           style="fill:#f9f9f9;fill-opacity:1;fill-rule:nonzero;stroke:none"
           inkscape:connector-curvature="0"
           id="path3111"
           d="m 34,16.738 0,5.262 5,0 0,2 -5,0 0,5 -2,0 0,-5 -5,0 0,-2 5,0 0,-5.262" />
      </g>
    </g>
  </g>
  <g
     id="g3115"
     transform="translate(0,-1004.3622)">
    <path
       style="opacity:0.1"
       inkscape:connector-curvature="0"
       id="path3117"
       d="m 1,1043.36 0,4 c 0,2.216 1.784,4 4,4 l 38,0 c 2.216,0 4,-1.784 4,-4 l 0,-4 c 0,2.216 -1.784,4 -4,4 l -38,0 c -2.216,0 -4,-1.784 -4,-4 z" />
  </g>
</svg>
