<?xml version="1.0" encoding="UTF-8" standalone="no"?>
<svg
   xmlns:dc="http://purl.org/dc/elements/1.1/"
   xmlns:cc="http://creativecommons.org/ns#"
   xmlns:rdf="http://www.w3.org/1999/02/22-rdf-syntax-ns#"
   xmlns:svg="http://www.w3.org/2000/svg"
   xmlns="http://www.w3.org/2000/svg"
   xmlns:xlink="http://www.w3.org/1999/xlink"
   xmlns:sodipodi="http://sodipodi.sourceforge.net/DTD/sodipodi-0.dtd"
   xmlns:inkscape="http://www.inkscape.org/namespaces/inkscape"
   viewBox="0 0 48 48"
   id="svg2"
   version="1.1"
   inkscape:version="0.48.5 r10040"
   width="100%"
   height="100%"
   sodipodi:docname="numix.svg">
  <metadata
     id="metadata61">
    <rdf:RDF>
      <cc:Work
         rdf:about="">
        <dc:format>image/svg+xml</dc:format>
        <dc:type
           rdf:resource="http://purl.org/dc/dcmitype/StillImage" />
      </cc:Work>
    </rdf:RDF>
  </metadata>
  <sodipodi:namedview
     pagecolor="#ffffff"
     bordercolor="#666666"
     borderopacity="1"
     objecttolerance="10"
     gridtolerance="10"
     guidetolerance="10"
     inkscape:pageopacity="0"
     inkscape:pageshadow="2"
     inkscape:window-width="1280"
     inkscape:window-height="970"
     id="namedview59"
     showgrid="false"
     inkscape:zoom="4.9166667"
     inkscape:cx="24"
     inkscape:cy="24"
     inkscape:window-x="0"
     inkscape:window-y="0"
     inkscape:window-maximized="1"
     inkscape:current-layer="svg2" />
  <defs
     id="defs4">
    <linearGradient
       id="linearGradient3764"
       x1="1"
       x2="47"
       gradientUnits="userSpaceOnUse"
       gradientTransform="translate(-48.000001,0.00221467)">
      <stop
         stop-color="#c83e2c"
         stop-opacity="1"
         id="stop7" />
      <stop
         offset="1"
         stop-color="#d34836"
         stop-opacity="1"
         id="stop9" />
    </linearGradient>
    <clipPath
       id="clipPath-703321343">
      <g
         transform="translate(0,-1004.3622)"
         id="g12">
        <rect
           rx="4"
           y="1005.36"
           x="1"
           height="46"
           width="46"
           fill="#1890d0"
           id="rect14" />
      </g>
    </clipPath>
    <clipPath
       id="clipPath-716062168">
      <g
         transform="translate(0,-1004.3622)"
         id="g17">
        <rect
           rx="4"
           y="1005.36"
           x="1"
           height="46"
           width="46"
           fill="#1890d0"
           id="rect19" />
      </g>
    </clipPath>
    <linearGradient
       inkscape:collect="always"
       xlink:href="#linearGradient3764"
       id="linearGradient3042"
       gradientUnits="userSpaceOnUse"
       gradientTransform="translate(-48.000001,0.00221467)"
       x1="1"
       x2="47" />
  </defs>
  <path
     style="opacity:0.02000002"
     inkscape:connector-curvature="0"
     id="path23"
     d="m 1,43 0,0.25 c 0,2.216 1.784,4 4,4 l 38,0 c 2.216,0 4,-1.784 4,-4 L 47,43 c 0,2.216 -1.784,4 -4,4 L 5,47 C 2.784,47 1,45.216 1,43 z m 0,0.5 0,0.5 c 0,2.216 1.784,4 4,4 l 38,0 c 2.216,0 4,-1.784 4,-4 l 0,-0.5 c 0,2.216 -1.784,4 -4,4 l -38,0 c -2.216,0 -4,-1.784 -4,-4 z" />
  <path
     style="opacity:0.05"
     inkscape:connector-curvature="0"
     id="path25"
     d="m 1,43.25 0,0.25 c 0,2.216 1.784,4 4,4 l 38,0 c 2.216,0 4,-1.784 4,-4 l 0,-0.25 c 0,2.216 -1.784,4 -4,4 l -38,0 c -2.216,0 -4,-1.784 -4,-4 z" />
  <path
     style="opacity:0.1"
     inkscape:connector-curvature="0"
     id="path27"
     d="m 1,43 0,0.25 c 0,2.216 1.784,4 4,4 l 38,0 c 2.216,0 4,-1.784 4,-4 L 47,43 c 0,2.216 -1.784,4 -4,4 L 5,47 C 2.784,47 1,45.216 1,43 z" />
  <rect
     style="fill:url(#linearGradient3042);fill-opacity:1"
     id="rect31"
     transform="matrix(0,-1,1,0,0,0)"
     rx="4"
     y="1"
     x="-47"
     height="46"
     width="46" />
  <path
     d="M 23.656,14.03 C 19.304,14.03 16,17.62 16,21.936 l 0,11.531 c 0,0.27 0.223,0.5 0.5,0.5 0.277,0 0.5,-0.23 0.5,-0.5 l 0,-11.531 c 0,-3.816 2.852,-6.906 6.656,-6.906 3.789,0 7.375,3.152 7.375,6.906 l 0,11.531 c 0,0.27 0.223,0.5 0.5,0.5 0.277,0 0.5,-0.23 0.5,-0.5 l 0,-11.531 c 0,-4.375 -4.04,-7.906 -8.375,-7.906 m -7.25,0.063 c -0.238,0.047 -0.41,0.258 -0.406,0.5 l 0,2.156 c 0,0.273 0.223,0.5 0.5,0.5 0.277,0 0.5,-0.227 0.5,-0.5 l 0,-2.156 c 0.004,-0.152 -0.063,-0.297 -0.18,-0.391 -0.113,-0.098 -0.266,-0.137 -0.414,-0.109 m 0,0"
     id="path41"
     inkscape:connector-curvature="0"
     style="opacity:0.1;fill:#000000;fill-opacity:1;fill-rule:nonzero;stroke:none" />
  <path
     d="M 23.656,13.03 C 19.304,13.03 16,16.62 16,20.936 l 0,11.531 c 0,0.27 0.223,0.5 0.5,0.5 0.277,0 0.5,-0.23 0.5,-0.5 l 0,-11.531 c 0,-3.816 2.852,-6.906 6.656,-6.906 3.789,0 7.375,3.152 7.375,6.906 l 0,11.531 c 0,0.27 0.223,0.5 0.5,0.5 0.277,0 0.5,-0.23 0.5,-0.5 l 0,-11.531 c 0,-4.375 -4.04,-7.906 -8.375,-7.906 m -7.25,0.063 c -0.238,0.047 -0.41,0.258 -0.406,0.5 l 0,2.156 c 0,0.273 0.223,0.5 0.5,0.5 0.277,0 0.5,-0.227 0.5,-0.5 l 0,-2.156 c 0.004,-0.152 -0.063,-0.297 -0.18,-0.391 -0.113,-0.098 -0.266,-0.137 -0.414,-0.109 m 0,0"
     id="path51"
     inkscape:connector-curvature="0"
     style="fill:#f8f8f8;fill-opacity:1;fill-rule:nonzero;stroke:none" />
  <path
     d="m 1,38.9978 0,4 c 0,2.216 1.784,4 4,4 l 38,0 c 2.216,0 4,-1.784 4,-4 l 0,-4 c 0,2.216 -1.784,4 -4,4 l -38,0 c -2.216,0 -4,-1.784 -4,-4 z"
     id="path57"
     inkscape:connector-curvature="0"
     style="opacity:0.1" />
</svg>
