
<svg xmlns="http://www.w3.org/2000/svg" xmlns:xlink="http://www.w3.org/1999/xlink" width="48px" height="48px" viewBox="0 0 48 48" version="1.1">
<defs>
<linearGradient id="linear0" gradientUnits="userSpaceOnUse" x1="1" y1="0" x2="47" y2="0" gradientTransform="matrix(0,-1,1,0,0.00221467,48.000001)">
<stop offset="0" style="stop-color:rgb(78.431373%,24.313725%,17.254902%);stop-opacity:1;"/>
<stop offset="1" style="stop-color:rgb(82.745098%,28.235294%,21.176471%);stop-opacity:1;"/>
</linearGradient>
</defs>
<g id="surface1">
<path style=" stroke:none;fill-rule:nonzero;fill:rgb(0%,0%,0%);fill-opacity:0.0196078;" d="M 1 43 L 1 43.25 C 1 45.464844 2.785156 47.25 5 47.25 L 43 47.25 C 45.214844 47.25 47 45.464844 47 43.25 L 47 43 C 47 45.214844 45.214844 47 43 47 L 5 47 C 2.785156 47 1 45.214844 1 43 Z M 1 43.5 L 1 44 C 1 46.214844 2.785156 48 5 48 L 43 48 C 45.214844 48 47 46.214844 47 44 L 47 43.5 C 47 45.714844 45.214844 47.5 43 47.5 L 5 47.5 C 2.785156 47.5 1 45.714844 1 43.5 Z M 1 43.5 "/>
<path style=" stroke:none;fill-rule:nonzero;fill:rgb(0%,0%,0%);fill-opacity:0.0509804;" d="M 1 43.25 L 1 43.5 C 1 45.714844 2.785156 47.5 5 47.5 L 43 47.5 C 45.214844 47.5 47 45.714844 47 43.5 L 47 43.25 C 47 45.464844 45.214844 47.25 43 47.25 L 5 47.25 C 2.785156 47.25 1 45.464844 1 43.25 Z M 1 43.25 "/>
<path style=" stroke:none;fill-rule:nonzero;fill:rgb(0%,0%,0%);fill-opacity:0.101961;" d="M 1 43 L 1 43.25 C 1 45.464844 2.785156 47.25 5 47.25 L 43 47.25 C 45.214844 47.25 47 45.464844 47 43.25 L 47 43 C 47 45.214844 45.214844 47 43 47 L 5 47 C 2.785156 47 1 45.214844 1 43 Z M 1 43 "/>
<path style=" stroke:none;fill-rule:nonzero;fill:url(#linear0);" d="M 1 43 L 1 5 C 1 2.789062 2.789062 1 5 1 L 43 1 C 45.210938 1 47 2.789062 47 5 L 47 43 C 47 45.210938 45.210938 47 43 47 L 5 47 C 2.789062 47 1 45.210938 1 43 Z M 1 43 "/>
<path style=" stroke:none;fill-rule:nonzero;fill:rgb(0%,0%,0%);fill-opacity:0.101961;" d="M 23.65625 14.03125 C 19.304688 14.03125 16 17.621094 16 21.9375 L 16 33.46875 C 16 33.738281 16.222656 33.96875 16.5 33.96875 C 16.777344 33.96875 17 33.738281 17 33.46875 L 17 21.9375 C 17 18.121094 19.851562 15.03125 23.65625 15.03125 C 27.445312 15.03125 31.03125 18.183594 31.03125 21.9375 L 31.03125 33.46875 C 31.03125 33.738281 31.253906 33.96875 31.53125 33.96875 C 31.808594 33.96875 32.03125 33.738281 32.03125 33.46875 L 32.03125 21.9375 C 32.03125 17.5625 27.992188 14.03125 23.65625 14.03125 M 16.40625 14.09375 C 16.167969 14.140625 15.996094 14.351562 16 14.59375 L 16 16.75 C 16 17.023438 16.222656 17.25 16.5 17.25 C 16.777344 17.25 17 17.023438 17 16.75 L 17 14.59375 C 17.003906 14.441406 16.9375 14.296875 16.820312 14.203125 C 16.707031 14.105469 16.554688 14.066406 16.40625 14.09375 M 16.40625 14.09375 "/>
<path style=" stroke:none;fill-rule:nonzero;fill:rgb(97.254902%,97.254902%,97.254902%);fill-opacity:1;" d="M 23.65625 13.03125 C 19.304688 13.03125 16 16.621094 16 20.9375 L 16 32.46875 C 16 32.738281 16.222656 32.96875 16.5 32.96875 C 16.777344 32.96875 17 32.738281 17 32.46875 L 17 20.9375 C 17 17.121094 19.851562 14.03125 23.65625 14.03125 C 27.445312 14.03125 31.03125 17.183594 31.03125 20.9375 L 31.03125 32.46875 C 31.03125 32.738281 31.253906 32.96875 31.53125 32.96875 C 31.808594 32.96875 32.03125 32.738281 32.03125 32.46875 L 32.03125 20.9375 C 32.03125 16.5625 27.992188 13.03125 23.65625 13.03125 M 16.40625 13.09375 C 16.167969 13.140625 15.996094 13.351562 16 13.59375 L 16 15.75 C 16 16.023438 16.222656 16.25 16.5 16.25 C 16.777344 16.25 17 16.023438 17 15.75 L 17 13.59375 C 17.003906 13.441406 16.9375 13.296875 16.820312 13.203125 C 16.707031 13.105469 16.554688 13.066406 16.40625 13.09375 M 16.40625 13.09375 "/>
<path style=" stroke:none;fill-rule:nonzero;fill:rgb(0%,0%,0%);fill-opacity:0.101961;" d="M 1 38.996094 L 1 42.996094 C 1 45.214844 2.785156 46.996094 5 46.996094 L 43 46.996094 C 45.214844 46.996094 47 45.214844 47 42.996094 L 47 38.996094 C 47 41.214844 45.214844 42.996094 43 42.996094 L 5 42.996094 C 2.785156 42.996094 1 41.214844 1 38.996094 Z M 1 38.996094 "/>
</g>
</svg>
