<?xml version="1.0" encoding="UTF-8" standalone="no"?>
<svg
   xmlns:dc="http://purl.org/dc/elements/1.1/"
   xmlns:cc="http://creativecommons.org/ns#"
   xmlns:rdf="http://www.w3.org/1999/02/22-rdf-syntax-ns#"
   xmlns:svg="http://www.w3.org/2000/svg"
   xmlns="http://www.w3.org/2000/svg"
   xmlns:sodipodi="http://sodipodi.sourceforge.net/DTD/sodipodi-0.dtd"
   xmlns:inkscape="http://www.inkscape.org/namespaces/inkscape"
   viewBox="0 0 48 48"
   id="svg3281"
   version="1.1"
   inkscape:version="0.48.5 r10040"
   width="100%"
   height="100%"
   sodipodi:docname="reddit.svg">
  <metadata
     id="metadata3368">
    <rdf:RDF>
      <cc:Work
         rdf:about="">
        <dc:format>image/svg+xml</dc:format>
        <dc:type
           rdf:resource="http://purl.org/dc/dcmitype/StillImage" />
      </cc:Work>
    </rdf:RDF>
  </metadata>
  <sodipodi:namedview
     pagecolor="#ffffff"
     bordercolor="#666666"
     borderopacity="1"
     objecttolerance="10"
     gridtolerance="10"
     guidetolerance="10"
     inkscape:pageopacity="0"
     inkscape:pageshadow="2"
     inkscape:window-width="688"
     inkscape:window-height="480"
     id="namedview3366"
     showgrid="false"
     inkscape:zoom="4.9166667"
     inkscape:cx="21.222709"
     inkscape:cy="16.556592"
     inkscape:window-x="0"
     inkscape:window-y="0"
     inkscape:window-maximized="0"
     inkscape:current-layer="svg3281" />
  <defs
     id="defs3283">
    <linearGradient
       id="linearGradient3764"
       x1="1"
       x2="47"
       gradientUnits="userSpaceOnUse"
       gradientTransform="translate(-48.000001,0.00221467)">
      <stop
         stop-color="#bddaf5"
         stop-opacity="1"
         id="stop3286" />
      <stop
         offset="1"
         stop-color="#cfe4f8"
         stop-opacity="1"
         id="stop3288" />
    </linearGradient>
    <clipPath
       id="clipPath-824481942">
      <g
         transform="translate(0,-1004.3622)"
         id="g3291">
        <rect
           rx="4"
           y="1005.36"
           x="1"
           height="46"
           width="46"
           fill="#1890d0"
           id="rect3293" />
      </g>
    </clipPath>
    <clipPath
       id="clipPath-838771789">
      <g
         transform="translate(0,-1004.3622)"
         id="g3296">
        <rect
           rx="4"
           y="1005.36"
           x="1"
           height="46"
           width="46"
           fill="#1890d0"
           id="rect3298" />
      </g>
    </clipPath>
  </defs>
  <g
     id="g3300">
    <path
       d="m 1 43 l 0 0.25 c 0 2.216 1.784 4 4 4 l 38 0 c 2.216 0 4 -1.784 4 -4 l 0 -0.25 c 0 2.216 -1.784 4 -4 4 l -38 0 c -2.216 0 -4 -1.784 -4 -4 z m 0 0.5 l 0 0.5 c 0 2.216 1.784 4 4 4 l 38 0 c 2.216 0 4 -1.784 4 -4 l 0 -0.5 c 0 2.216 -1.784 4 -4 4 l -38 0 c -2.216 0 -4 -1.784 -4 -4 z"
       opacity="0.02"
       id="path3302" />
    <path
       d="m 1 43.25 l 0 0.25 c 0 2.216 1.784 4 4 4 l 38 0 c 2.216 0 4 -1.784 4 -4 l 0 -0.25 c 0 2.216 -1.784 4 -4 4 l -38 0 c -2.216 0 -4 -1.784 -4 -4 z"
       opacity="0.05"
       id="path3304" />
    <path
       d="m 1 43 l 0 0.25 c 0 2.216 1.784 4 4 4 l 38 0 c 2.216 0 4 -1.784 4 -4 l 0 -0.25 c 0 2.216 -1.784 4 -4 4 l -38 0 c -2.216 0 -4 -1.784 -4 -4 z"
       opacity="0.1"
       id="path3306" />
  </g>
  <g
     id="g3308">
    <rect
       width="46"
       height="46"
       x="-47"
       y="1"
       rx="4"
       transform="matrix(0,-1,1,0,0,0)"
       fill="url(#linearGradient3764)"
       fill-opacity="1"
       id="rect3310" />
  </g>
  <g
     id="g3312">
    <g
       clip-path="url(#clipPath-824481942)"
       id="g3314">
      <g
         opacity="0.1"
         id="g3316">
        <!-- color: #cfe4f8 -->
        <g
           id="g3318">
          <path
             d="m 369.28 125.3 c 0.071 8.965 -4.483 17.262 -11.92 21.782 c -7.437 4.482 -16.581 4.482 -24.02 0 c -7.437 -4.519 -11.956 -12.817 -11.92 -21.782 c -0.036 -8.965 4.483 -17.3 11.92 -21.782 c 7.437 -4.519 16.581 -4.519 24.02 0 c 7.437 4.482 11.991 12.817 11.92 21.782 m 0 0"
             transform="matrix(0.109781,0,0,0.105449,-23.786475,10.103772)"
             stroke-opacity="1"
             fill-rule="nonzero"
             stroke="#000"
             stroke-linejoin="miter"
             fill-opacity="1"
             stroke-linecap="butt"
             stroke-width="9.295"
             stroke-miterlimit="4"
             fill="#000"
             id="path3320" />
          <path
             d="m 369.28 125.3 c 0.071 8.965 -4.483 17.262 -11.92 21.782 c -7.401 4.482 -16.581 4.482 -24.02 0 c -7.401 -4.519 -11.956 -12.817 -11.92 -21.782 c -0.036 -8.965 4.519 -17.3 11.92 -21.782 c 7.437 -4.519 16.617 -4.519 24.02 0 c 7.437 4.482 11.991 12.817 11.92 21.782 m 0 0"
             transform="matrix(0.109781,0,0,0.105449,-4.03982,10.162209)"
             stroke-opacity="1"
             fill-rule="nonzero"
             stroke="#000"
             stroke-linejoin="miter"
             fill-opacity="1"
             stroke-linecap="butt"
             stroke-width="9.295"
             stroke-miterlimit="4"
             fill="#000"
             id="path3322" />
          <path
             d="m 169.02 -152.1 c -15.286 -6.257 -30.812 -13.671 -42.494 -5.568 c -13.514 6.225 -12.853 26.591 -11.832 47.36"
             transform="matrix(0.130075,0,0,0.124866,7.350661,33.988003)"
             stroke-opacity="1"
             stroke="#000"
             stroke-linejoin="miter"
             stroke-linecap="butt"
             stroke-width="7.847"
             stroke-miterlimit="4"
             fill="#000"
             id="path3324" />
          <path
             d="m 497.87 154.19 c 0 32.17 -36.954 58.23 -82.5 58.23 c -45.575 0 -82.5 -26.07 -82.5 -58.23 c 0 -32.14 36.924 -58.2 82.5 -58.2 c 45.545 0 82.5 26.07 82.5 58.2 m 0 0"
             transform="matrix(0.131394,0,0,0.126176,-30.514581,7.696688)"
             stroke-opacity="1"
             fill-rule="nonzero"
             stroke="#000"
             stroke-linejoin="miter"
             fill-opacity="1"
             stroke-linecap="round"
             stroke-width="7.767"
             stroke-miterlimit="4"
             fill="#000"
             id="path3326" />
          <path
             d="m 509.3 71.35 c 0 10.849 -8.163 19.644 -18.235 19.644 c -10.04 0 -18.204 -8.795 -18.204 -19.644 c 0 -10.849 8.163 -19.644 18.204 -19.644 c 10.07 0 18.235 8.795 18.235 19.644 m 0 0"
             transform="matrix(0.126815,0,0,0.121696,-31.196779,7.203927)"
             stroke-opacity="1"
             fill-rule="nonzero"
             stroke="#000"
             stroke-linejoin="miter"
             fill-opacity="1"
             stroke-linecap="round"
             stroke-width="8.05"
             stroke-miterlimit="4"
             fill="#000"
             id="path3328" />
          <path
             d="m 21.12 25.676 c 0 0.84 -0.691 1.523 -1.547 1.523 c -0.855 0 -1.551 -0.684 -1.551 -1.523 c 0 -0.84 0.695 -1.52 1.551 -1.52 c 0.855 0 1.547 0.68 1.547 1.52 m 0 0"
             stroke="none"
             fill-rule="nonzero"
             fill-opacity="1"
             fill="#000"
             id="path3330" />
          <path
             d="m 29.17 25.547 c 0 0.84 -0.695 1.52 -1.566 1.52 c -0.852 0 -1.551 -0.68 -1.551 -1.52 c 0 -0.84 0.688 -1.523 1.551 -1.523 c 0.855 0 1.566 0.684 1.566 1.523 m 0 0"
             stroke="none"
             fill-rule="nonzero"
             fill-opacity="1"
             fill="#000"
             id="path3332" />
          <path
             d="m 93.19 -34.19 c 26.427 18.676 46.34 11.293 65.44 0.688"
             transform="matrix(0.130075,0,0,0.124866,7.350661,33.988003)"
             stroke-opacity="1"
             stroke="#000"
             stroke-linejoin="miter"
             stroke-linecap="round"
             stroke-width="7.847"
             stroke-miterlimit="4"
             fill="#000"
             id="path3334" />
        </g>
      </g>
    </g>
  </g>
  <path
     d="m 16.753453,22.316532 c 0.0078,0.94535 -0.492149,1.82026 -1.30859,2.29689 -0.816441,0.472622 -1.820279,0.472622 -2.636939,0 -0.816442,-0.476524 -1.312542,-1.35154 -1.30859,-2.29689 -0.004,-0.945351 0.492148,-1.824268 1.30859,-2.29689 0.816441,-0.476524 1.820278,-0.476524 2.636939,0 0.816441,0.472622 1.316384,1.351539 1.30859,2.29689 m 0,0"
     stroke-miterlimit="4"
     id="path3344"
     inkscape:connector-curvature="0"
     style="fill:#ffffff;fill-opacity:1;fill-rule:nonzero;stroke:#2d2d2d;stroke-width:1.00007880000000005;stroke-linecap:butt;stroke-linejoin:miter;stroke-miterlimit:4;stroke-opacity:1" />
  <path
     d="m 36.500108,22.374969 c 0.0078,0.94535 -0.492149,1.82026 -1.30859,2.29689 -0.812489,0.472622 -1.820279,0.472622 -2.636939,0 -0.81249,-0.476524 -1.312542,-1.35154 -1.30859,-2.29689 -0.004,-0.945351 0.4961,-1.824268 1.30859,-2.29689 0.816441,-0.476524 1.82423,-0.476524 2.636939,0 0.816441,0.472622 1.316384,1.351539 1.30859,2.29689 m 0,0"
     stroke-miterlimit="4"
     id="path3346"
     inkscape:connector-curvature="0"
     style="fill:#ffffff;fill-opacity:1;fill-rule:nonzero;stroke:#2d2d2d;stroke-width:1.00007880000000005;stroke-linecap:butt;stroke-linejoin:miter;stroke-miterlimit:4;stroke-opacity:1" />
  <path
     d="m 29.335937,13.995884 c -1.988326,-0.781286 -4.00787,-1.707043 -5.527407,-0.695253 -1.757833,0.77729 -1.671854,3.320311 -1.539047,5.913653"
     stroke-miterlimit="4"
     id="path3348"
     inkscape:connector-curvature="0"
     style="fill:none;stroke:#2d2d2d;stroke-width:1.00005221000000000;stroke-linecap:butt;stroke-linejoin:miter;stroke-miterlimit:4;stroke-opacity:1" />
  <path
     d="m 34.90255,26.151765 c 0,4.059082 -4.855534,7.347229 -10.840005,7.347229 -5.988282,0 -10.840005,-3.289408 -10.840005,-7.347229 0,-4.055296 4.851592,-7.343443 10.840005,-7.343443 5.98434,0 10.840005,3.289409 10.840005,7.343443 m 0,0"
     stroke-miterlimit="4"
     id="path3350"
     inkscape:connector-curvature="0"
     style="fill:#ffffff;fill-opacity:1;fill-rule:nonzero;stroke:#2d2d2d;stroke-width:1.00006783000000010;stroke-linecap:round;stroke-linejoin:miter;stroke-miterlimit:4;stroke-opacity:1" />
  <path
     d="m 33.390101,14.886937 c 0,1.32028 -1.035191,2.390596 -2.312472,2.390596 -1.273223,0 -2.30854,-1.070316 -2.30854,-2.390596 0,-1.32028 1.035191,-2.390597 2.30854,-2.390597 1.277027,0 2.312472,1.070317 2.312472,2.390597 m 0,0"
     stroke-miterlimit="4"
     id="path3352"
     inkscape:connector-curvature="0"
     style="fill:#ffffff;fill-opacity:1;fill-rule:nonzero;stroke:#2d2d2d;stroke-width:1.00004457999999996;stroke-linecap:round;stroke-linejoin:miter;stroke-miterlimit:4;stroke-opacity:1" />
  <path
     d="m 21.12,24.676 c 0,0.84 -0.691,1.523 -1.547,1.523 -0.855,0 -1.551,-0.684 -1.551,-1.523 0,-0.84 0.695,-1.52 1.551,-1.52 0.855,0 1.547,0.68 1.547,1.52 m 0,0"
     id="path3354"
     inkscape:connector-curvature="0"
     style="fill:#ff4500;fill-opacity:1;fill-rule:nonzero;stroke:none" />
  <path
     d="m 29.17,24.547 c 0,0.84 -0.695,1.52 -1.566,1.52 -0.852,0 -1.551,-0.68 -1.551,-1.52 0,-0.84 0.688,-1.523 1.551,-1.523 0.855,0 1.566,0.684 1.566,1.523 m 0,0"
     id="path3356"
     inkscape:connector-curvature="0"
     style="fill:#ff4500;fill-opacity:1;fill-rule:nonzero;stroke:none" />
  <path
     d="m 19.47235,28.718834 c 3.437492,2.331998 6.027676,1.410112 8.512108,0.08591"
     stroke-miterlimit="4"
     id="path3358"
     inkscape:connector-curvature="0"
     style="fill:none;stroke:#2d2d2d;stroke-width:1.00005221000000000;stroke-linecap:round;stroke-linejoin:miter;stroke-miterlimit:4;stroke-opacity:1" />
  <g
     id="g3360">
    <g
       transform="translate(0,-1004.3622)"
       id="g3362">
      <path
         d="m 1 1043.36 0 4 c 0 2.216 1.784 4 4 4 l 38 0 c 2.216 0 4 -1.784 4 -4 l 0 -4 c 0 2.216 -1.784 4 -4 4 l -38 0 c -2.216 0 -4 -1.784 -4 -4 z"
         opacity="0.1"
         id="path3364" />
    </g>
  </g>
</svg>
