<?xml version="1.0" encoding="UTF-8" standalone="no"?>
<svg
   xmlns:dc="http://purl.org/dc/elements/1.1/"
   xmlns:cc="http://creativecommons.org/ns#"
   xmlns:rdf="http://www.w3.org/1999/02/22-rdf-syntax-ns#"
   xmlns:svg="http://www.w3.org/2000/svg"
   xmlns="http://www.w3.org/2000/svg"
   xmlns:xlink="http://www.w3.org/1999/xlink"
   xmlns:sodipodi="http://sodipodi.sourceforge.net/DTD/sodipodi-0.dtd"
   xmlns:inkscape="http://www.inkscape.org/namespaces/inkscape"
   viewBox="0 0 48 48"
   id="svg3281"
   version="1.1"
   inkscape:version="0.48.5 r10040"
   width="100%"
   height="100%"
   sodipodi:docname="reddit.svg">
  <metadata
     id="metadata3368">
    <rdf:RDF>
      <cc:Work
         rdf:about="">
        <dc:format>image/svg+xml</dc:format>
        <dc:type
           rdf:resource="http://purl.org/dc/dcmitype/StillImage" />
      </cc:Work>
    </rdf:RDF>
  </metadata>
  <sodipodi:namedview
     pagecolor="#ffffff"
     bordercolor="#666666"
     borderopacity="1"
     objecttolerance="10"
     gridtolerance="10"
     guidetolerance="10"
     inkscape:pageopacity="0"
     inkscape:pageshadow="2"
     inkscape:window-width="1280"
     inkscape:window-height="970"
     id="namedview3366"
     showgrid="false"
     inkscape:zoom="4.9166667"
     inkscape:cx="21.222709"
     inkscape:cy="16.556592"
     inkscape:window-x="0"
     inkscape:window-y="0"
     inkscape:window-maximized="1"
     inkscape:current-layer="svg3281" />
  <defs
     id="defs3283">
    <linearGradient
       id="linearGradient3764"
       x1="1"
       x2="47"
       gradientUnits="userSpaceOnUse"
       gradientTransform="translate(-48.000001,0.00221467)">
      <stop
         stop-color="#bddaf5"
         stop-opacity="1"
         id="stop3286" />
      <stop
         offset="1"
         stop-color="#cfe4f8"
         stop-opacity="1"
         id="stop3288" />
    </linearGradient>
    <clipPath
       id="clipPath-824481942">
      <g
         transform="translate(0,-1004.3622)"
         id="g3291">
        <rect
           rx="4"
           y="1005.36"
           x="1"
           height="46"
           width="46"
           fill="#1890d0"
           id="rect3293" />
      </g>
    </clipPath>
    <clipPath
       id="clipPath-838771789">
      <g
         transform="translate(0,-1004.3622)"
         id="g3296">
        <rect
           rx="4"
           y="1005.36"
           x="1"
           height="46"
           width="46"
           fill="#1890d0"
           id="rect3298" />
      </g>
    </clipPath>
    <linearGradient
       inkscape:collect="always"
       xlink:href="#linearGradient3764"
       id="linearGradient3444"
       gradientUnits="userSpaceOnUse"
       gradientTransform="translate(-48.000001,0.00221467)"
       x1="1"
       x2="47" />
  </defs>
  <path
     style="opacity:0.02000002"
     inkscape:connector-curvature="0"
     id="path3302"
     d="m 1,43 0,0.25 c 0,2.216 1.784,4 4,4 l 38,0 c 2.216,0 4,-1.784 4,-4 L 47,43 c 0,2.216 -1.784,4 -4,4 L 5,47 C 2.784,47 1,45.216 1,43 z m 0,0.5 0,0.5 c 0,2.216 1.784,4 4,4 l 38,0 c 2.216,0 4,-1.784 4,-4 l 0,-0.5 c 0,2.216 -1.784,4 -4,4 l -38,0 c -2.216,0 -4,-1.784 -4,-4 z" />
  <path
     style="opacity:0.05"
     inkscape:connector-curvature="0"
     id="path3304"
     d="m 1,43.25 0,0.25 c 0,2.216 1.784,4 4,4 l 38,0 c 2.216,0 4,-1.784 4,-4 l 0,-0.25 c 0,2.216 -1.784,4 -4,4 l -38,0 c -2.216,0 -4,-1.784 -4,-4 z" />
  <path
     style="opacity:0.1"
     inkscape:connector-curvature="0"
     id="path3306"
     d="m 1,43 0,0.25 c 0,2.216 1.784,4 4,4 l 38,0 c 2.216,0 4,-1.784 4,-4 L 47,43 c 0,2.216 -1.784,4 -4,4 L 5,47 C 2.784,47 1,45.216 1,43 z" />
  <rect
     style="fill:url(#linearGradient3444);fill-opacity:1"
     id="rect3310"
     transform="matrix(0,-1,1,0,0,0)"
     rx="4"
     y="1"
     x="-47"
     height="46"
     width="46" />
  <path
     d="m 16.753453,23.316532 c 0.0078,0.94535 -0.492149,1.82026 -1.30859,2.29689 -0.816441,0.472622 -1.820279,0.472622 -2.636939,0 -0.816442,-0.476524 -1.312542,-1.35154 -1.30859,-2.29689 -0.004,-0.945351 0.492148,-1.824268 1.30859,-2.29689 0.816441,-0.476524 1.820278,-0.476524 2.636939,0 0.816441,0.472622 1.316384,1.351539 1.30859,2.29689 m 0,0"
     stroke-miterlimit="4"
     id="path3320"
     inkscape:connector-curvature="0"
     style="opacity:0.1;fill:#000000;fill-opacity:1;fill-rule:nonzero;stroke:#000000;stroke-width:1.0000788;stroke-linecap:butt;stroke-linejoin:miter;stroke-miterlimit:4;stroke-opacity:1" />
  <path
     d="m 36.500108,23.374969 c 0.0078,0.94535 -0.492149,1.82026 -1.30859,2.29689 -0.812489,0.472622 -1.820279,0.472622 -2.636939,0 -0.81249,-0.476524 -1.312542,-1.35154 -1.30859,-2.29689 -0.004,-0.945351 0.4961,-1.824268 1.30859,-2.29689 0.816441,-0.476524 1.82423,-0.476524 2.636939,0 0.816441,0.472622 1.316384,1.351539 1.30859,2.29689 m 0,0"
     stroke-miterlimit="4"
     id="path3322"
     inkscape:connector-curvature="0"
     style="opacity:0.1;fill:#000000;fill-opacity:1;fill-rule:nonzero;stroke:#000000;stroke-width:1.0000788;stroke-linecap:butt;stroke-linejoin:miter;stroke-miterlimit:4;stroke-opacity:1" />
  <path
     d="m 29.335937,14.995884 c -1.988326,-0.781286 -4.00787,-1.707043 -5.527407,-0.695253 -1.757833,0.77729 -1.671854,3.320311 -1.539047,5.913653"
     stroke-miterlimit="4"
     id="path3324"
     inkscape:connector-curvature="0"
     style="opacity:0.1;fill:#000000;stroke:#000000;stroke-width:1.00005221;stroke-linecap:butt;stroke-linejoin:miter;stroke-miterlimit:4;stroke-opacity:1" />
  <path
     d="m 34.90255,27.151765 c 0,4.059082 -4.855534,7.347229 -10.840005,7.347229 -5.988282,0 -10.840005,-3.289408 -10.840005,-7.347229 0,-4.055296 4.851592,-7.343443 10.840005,-7.343443 5.98434,0 10.840005,3.289409 10.840005,7.343443 m 0,0"
     stroke-miterlimit="4"
     id="path3326"
     inkscape:connector-curvature="0"
     style="opacity:0.1;fill:#000000;fill-opacity:1;fill-rule:nonzero;stroke:#000000;stroke-width:1.00006783;stroke-linecap:round;stroke-linejoin:miter;stroke-miterlimit:4;stroke-opacity:1" />
  <path
     d="m 33.390101,15.886937 c 0,1.32028 -1.035191,2.390596 -2.312472,2.390596 -1.273223,0 -2.30854,-1.070316 -2.30854,-2.390596 0,-1.32028 1.035191,-2.390597 2.30854,-2.390597 1.277027,0 2.312472,1.070317 2.312472,2.390597 m 0,0"
     stroke-miterlimit="4"
     id="path3328"
     inkscape:connector-curvature="0"
     style="opacity:0.1;fill:#000000;fill-opacity:1;fill-rule:nonzero;stroke:#000000;stroke-width:1.00004458;stroke-linecap:round;stroke-linejoin:miter;stroke-miterlimit:4;stroke-opacity:1" />
  <path
     d="m 21.12,25.676 c 0,0.84 -0.691,1.523 -1.547,1.523 -0.855,0 -1.551,-0.684 -1.551,-1.523 0,-0.84 0.695,-1.52 1.551,-1.52 0.855,0 1.547,0.68 1.547,1.52 m 0,0"
     id="path3330"
     inkscape:connector-curvature="0"
     style="opacity:0.1;fill:#000000;fill-opacity:1;fill-rule:nonzero;stroke:none" />
  <path
     d="m 29.17,25.547 c 0,0.84 -0.695,1.52 -1.566,1.52 -0.852,0 -1.551,-0.68 -1.551,-1.52 0,-0.84 0.688,-1.523 1.551,-1.523 0.855,0 1.566,0.684 1.566,1.523 m 0,0"
     id="path3332"
     inkscape:connector-curvature="0"
     style="opacity:0.1;fill:#000000;fill-opacity:1;fill-rule:nonzero;stroke:none" />
  <path
     d="m 19.47235,29.718834 c 3.437492,2.331998 6.027676,1.410112 8.512108,0.08591"
     stroke-miterlimit="4"
     id="path3334"
     inkscape:connector-curvature="0"
     style="opacity:0.1;fill:#000000;stroke:#000000;stroke-width:1.00005221;stroke-linecap:round;stroke-linejoin:miter;stroke-miterlimit:4;stroke-opacity:1" />
  <path
     d="m 16.753453,22.316532 c 0.0078,0.94535 -0.492149,1.82026 -1.30859,2.29689 -0.816441,0.472622 -1.820279,0.472622 -2.636939,0 -0.816442,-0.476524 -1.312542,-1.35154 -1.30859,-2.29689 -0.004,-0.945351 0.492148,-1.824268 1.30859,-2.29689 0.816441,-0.476524 1.820278,-0.476524 2.636939,0 0.816441,0.472622 1.316384,1.351539 1.30859,2.29689 m 0,0"
     stroke-miterlimit="4"
     id="path3344"
     inkscape:connector-curvature="0"
     style="fill:#ffffff;fill-opacity:1;fill-rule:nonzero;stroke:#2d2d2d;stroke-width:1.00007880000000005;stroke-linecap:butt;stroke-linejoin:miter;stroke-miterlimit:4;stroke-opacity:1" />
  <path
     d="m 36.500108,22.374969 c 0.0078,0.94535 -0.492149,1.82026 -1.30859,2.29689 -0.812489,0.472622 -1.820279,0.472622 -2.636939,0 -0.81249,-0.476524 -1.312542,-1.35154 -1.30859,-2.29689 -0.004,-0.945351 0.4961,-1.824268 1.30859,-2.29689 0.816441,-0.476524 1.82423,-0.476524 2.636939,0 0.816441,0.472622 1.316384,1.351539 1.30859,2.29689 m 0,0"
     stroke-miterlimit="4"
     id="path3346"
     inkscape:connector-curvature="0"
     style="fill:#ffffff;fill-opacity:1;fill-rule:nonzero;stroke:#2d2d2d;stroke-width:1.00007880000000005;stroke-linecap:butt;stroke-linejoin:miter;stroke-miterlimit:4;stroke-opacity:1" />
  <path
     d="m 29.335937,13.995884 c -1.988326,-0.781286 -4.00787,-1.707043 -5.527407,-0.695253 -1.757833,0.77729 -1.671854,3.320311 -1.539047,5.913653"
     stroke-miterlimit="4"
     id="path3348"
     inkscape:connector-curvature="0"
     style="fill:none;stroke:#2d2d2d;stroke-width:1.00005221000000000;stroke-linecap:butt;stroke-linejoin:miter;stroke-miterlimit:4;stroke-opacity:1" />
  <path
     d="m 34.90255,26.151765 c 0,4.059082 -4.855534,7.347229 -10.840005,7.347229 -5.988282,0 -10.840005,-3.289408 -10.840005,-7.347229 0,-4.055296 4.851592,-7.343443 10.840005,-7.343443 5.98434,0 10.840005,3.289409 10.840005,7.343443 m 0,0"
     stroke-miterlimit="4"
     id="path3350"
     inkscape:connector-curvature="0"
     style="fill:#ffffff;fill-opacity:1;fill-rule:nonzero;stroke:#2d2d2d;stroke-width:1.00006783000000010;stroke-linecap:round;stroke-linejoin:miter;stroke-miterlimit:4;stroke-opacity:1" />
  <path
     d="m 33.390101,14.886937 c 0,1.32028 -1.035191,2.390596 -2.312472,2.390596 -1.273223,0 -2.30854,-1.070316 -2.30854,-2.390596 0,-1.32028 1.035191,-2.390597 2.30854,-2.390597 1.277027,0 2.312472,1.070317 2.312472,2.390597 m 0,0"
     stroke-miterlimit="4"
     id="path3352"
     inkscape:connector-curvature="0"
     style="fill:#ffffff;fill-opacity:1;fill-rule:nonzero;stroke:#2d2d2d;stroke-width:1.00004457999999996;stroke-linecap:round;stroke-linejoin:miter;stroke-miterlimit:4;stroke-opacity:1" />
  <path
     d="m 21.12,24.676 c 0,0.84 -0.691,1.523 -1.547,1.523 -0.855,0 -1.551,-0.684 -1.551,-1.523 0,-0.84 0.695,-1.52 1.551,-1.52 0.855,0 1.547,0.68 1.547,1.52 m 0,0"
     id="path3354"
     inkscape:connector-curvature="0"
     style="fill:#ff4500;fill-opacity:1;fill-rule:nonzero;stroke:none" />
  <path
     d="m 29.17,24.547 c 0,0.84 -0.695,1.52 -1.566,1.52 -0.852,0 -1.551,-0.68 -1.551,-1.52 0,-0.84 0.688,-1.523 1.551,-1.523 0.855,0 1.566,0.684 1.566,1.523 m 0,0"
     id="path3356"
     inkscape:connector-curvature="0"
     style="fill:#ff4500;fill-opacity:1;fill-rule:nonzero;stroke:none" />
  <path
     d="m 19.47235,28.718834 c 3.437492,2.331998 6.027676,1.410112 8.512108,0.08591"
     stroke-miterlimit="4"
     id="path3358"
     inkscape:connector-curvature="0"
     style="fill:none;stroke:#2d2d2d;stroke-width:1.00005221000000000;stroke-linecap:round;stroke-linejoin:miter;stroke-miterlimit:4;stroke-opacity:1" />
  <path
     d="m 1,38.9978 0,4 c 0,2.216 1.784,4 4,4 l 38,0 c 2.216,0 4,-1.784 4,-4 l 0,-4 c 0,2.216 -1.784,4 -4,4 l -38,0 c -2.216,0 -4,-1.784 -4,-4 z"
     id="path3364"
     inkscape:connector-curvature="0"
     style="opacity:0.1" />
</svg>
