
<svg xmlns="http://www.w3.org/2000/svg" xmlns:xlink="http://www.w3.org/1999/xlink" width="48px" height="48px" viewBox="0 0 48 48" version="1.1">
<defs>
<linearGradient id="linear0" gradientUnits="userSpaceOnUse" x1="1" y1="0" x2="47" y2="0" gradientTransform="matrix(0,-1,1,0,0.00221467,48.000001)">
<stop offset="0" style="stop-color:rgb(74.117647%,85.490196%,96.078431%);stop-opacity:1;"/>
<stop offset="1" style="stop-color:rgb(81.176471%,89.411765%,97.254902%);stop-opacity:1;"/>
</linearGradient>
<filter id="alpha" filterUnits="objectBoundingBox" x="0%" y="0%" width="100%" height="100%">
  <feColorMatrix type="matrix" in="SourceGraphic" values="0 0 0 0 1 0 0 0 0 1 0 0 0 0 1 0 0 0 1 0"/>
</filter>
<mask id="mask0">
  <g filter="url(#alpha)">
<rect x="0" y="0" width="48" height="48" style="fill:rgb(0%,0%,0%);fill-opacity:0.101961;stroke:none;"/>
  </g>
</mask>
<clipPath id="clip1">
  <rect width="48" height="48"/>
</clipPath>
<g id="surface6" clip-path="url(#clip1)">
<path style="fill-rule:nonzero;fill:rgb(0%,0%,0%);fill-opacity:1;stroke-width:1.000079;stroke-linecap:butt;stroke-linejoin:miter;stroke:rgb(0%,0%,0%);stroke-opacity:1;stroke-miterlimit:4;" d="M 16.753906 23.316406 C 16.761719 24.261719 16.261719 25.136719 15.445312 25.613281 C 14.628906 26.085938 13.625 26.085938 12.808594 25.613281 C 11.992188 25.136719 11.496094 24.261719 11.5 23.316406 C 11.496094 22.371094 11.992188 21.492188 12.808594 21.019531 C 13.625 20.542969 14.628906 20.542969 15.445312 21.019531 C 16.261719 21.492188 16.761719 22.371094 16.753906 23.316406 M 16.753906 23.316406 "/>
</g>
<mask id="mask1">
  <g filter="url(#alpha)">
<rect x="0" y="0" width="48" height="48" style="fill:rgb(0%,0%,0%);fill-opacity:0.101961;stroke:none;"/>
  </g>
</mask>
<clipPath id="clip2">
  <rect width="48" height="48"/>
</clipPath>
<g id="surface9" clip-path="url(#clip2)">
<path style="fill-rule:nonzero;fill:rgb(0%,0%,0%);fill-opacity:1;stroke-width:1.000079;stroke-linecap:butt;stroke-linejoin:miter;stroke:rgb(0%,0%,0%);stroke-opacity:1;stroke-miterlimit:4;" d="M 36.5 23.375 C 36.507812 24.320312 36.007812 25.195312 35.191406 25.671875 C 34.378906 26.144531 33.371094 26.144531 32.554688 25.671875 C 31.742188 25.195312 31.242188 24.320312 31.246094 23.375 C 31.242188 22.429688 31.742188 21.550781 32.554688 21.078125 C 33.371094 20.601562 34.378906 20.601562 35.191406 21.078125 C 36.007812 21.550781 36.507812 22.429688 36.5 23.375 M 36.5 23.375 "/>
</g>
<mask id="mask2">
  <g filter="url(#alpha)">
<rect x="0" y="0" width="48" height="48" style="fill:rgb(0%,0%,0%);fill-opacity:0.101961;stroke:none;"/>
  </g>
</mask>
<clipPath id="clip3">
  <rect width="48" height="48"/>
</clipPath>
<g id="surface12" clip-path="url(#clip3)">
<path style="fill-rule:nonzero;fill:rgb(0%,0%,0%);fill-opacity:1;stroke-width:1.000052;stroke-linecap:butt;stroke-linejoin:miter;stroke:rgb(0%,0%,0%);stroke-opacity:1;stroke-miterlimit:4;" d="M 29.335938 14.996094 C 27.347656 14.214844 25.328125 13.289062 23.808594 14.300781 C 22.050781 15.078125 22.136719 17.621094 22.269531 20.214844 "/>
</g>
<mask id="mask3">
  <g filter="url(#alpha)">
<rect x="0" y="0" width="48" height="48" style="fill:rgb(0%,0%,0%);fill-opacity:0.101961;stroke:none;"/>
  </g>
</mask>
<clipPath id="clip4">
  <rect width="48" height="48"/>
</clipPath>
<g id="surface15" clip-path="url(#clip4)">
<path style="fill-rule:nonzero;fill:rgb(0%,0%,0%);fill-opacity:1;stroke-width:1.000068;stroke-linecap:round;stroke-linejoin:miter;stroke:rgb(0%,0%,0%);stroke-opacity:1;stroke-miterlimit:4;" d="M 34.902344 27.152344 C 34.902344 31.210938 30.046875 34.5 24.0625 34.5 C 18.074219 34.5 13.222656 31.210938 13.222656 27.152344 C 13.222656 23.097656 18.074219 19.808594 24.0625 19.808594 C 30.046875 19.808594 34.902344 23.097656 34.902344 27.152344 M 34.902344 27.152344 "/>
</g>
<mask id="mask4">
  <g filter="url(#alpha)">
<rect x="0" y="0" width="48" height="48" style="fill:rgb(0%,0%,0%);fill-opacity:0.101961;stroke:none;"/>
  </g>
</mask>
<clipPath id="clip5">
  <rect width="48" height="48"/>
</clipPath>
<g id="surface18" clip-path="url(#clip5)">
<path style="fill-rule:nonzero;fill:rgb(0%,0%,0%);fill-opacity:1;stroke-width:1.000045;stroke-linecap:round;stroke-linejoin:miter;stroke:rgb(0%,0%,0%);stroke-opacity:1;stroke-miterlimit:4;" d="M 33.390625 15.886719 C 33.390625 17.207031 32.355469 18.277344 31.078125 18.277344 C 29.804688 18.277344 28.769531 17.207031 28.769531 15.886719 C 28.769531 14.566406 29.804688 13.496094 31.078125 13.496094 C 32.355469 13.496094 33.390625 14.566406 33.390625 15.886719 M 33.390625 15.886719 "/>
</g>
<mask id="mask5">
  <g filter="url(#alpha)">
<rect x="0" y="0" width="48" height="48" style="fill:rgb(0%,0%,0%);fill-opacity:0.101961;stroke:none;"/>
  </g>
</mask>
<clipPath id="clip6">
  <rect width="48" height="48"/>
</clipPath>
<g id="surface21" clip-path="url(#clip6)">
<path style="fill-rule:nonzero;fill:rgb(0%,0%,0%);fill-opacity:1;stroke-width:1.000052;stroke-linecap:round;stroke-linejoin:miter;stroke:rgb(0%,0%,0%);stroke-opacity:1;stroke-miterlimit:4;" d="M 19.472656 29.71875 C 22.910156 32.050781 25.5 31.128906 27.984375 29.804688 "/>
</g>
</defs>
<g id="surface1">
<path style=" stroke:none;fill-rule:nonzero;fill:rgb(0%,0%,0%);fill-opacity:0.0196078;" d="M 1 43 L 1 43.25 C 1 45.464844 2.785156 47.25 5 47.25 L 43 47.25 C 45.214844 47.25 47 45.464844 47 43.25 L 47 43 C 47 45.214844 45.214844 47 43 47 L 5 47 C 2.785156 47 1 45.214844 1 43 Z M 1 43.5 L 1 44 C 1 46.214844 2.785156 48 5 48 L 43 48 C 45.214844 48 47 46.214844 47 44 L 47 43.5 C 47 45.714844 45.214844 47.5 43 47.5 L 5 47.5 C 2.785156 47.5 1 45.714844 1 43.5 Z M 1 43.5 "/>
<path style=" stroke:none;fill-rule:nonzero;fill:rgb(0%,0%,0%);fill-opacity:0.0509804;" d="M 1 43.25 L 1 43.5 C 1 45.714844 2.785156 47.5 5 47.5 L 43 47.5 C 45.214844 47.5 47 45.714844 47 43.5 L 47 43.25 C 47 45.464844 45.214844 47.25 43 47.25 L 5 47.25 C 2.785156 47.25 1 45.464844 1 43.25 Z M 1 43.25 "/>
<path style=" stroke:none;fill-rule:nonzero;fill:rgb(0%,0%,0%);fill-opacity:0.101961;" d="M 1 43 L 1 43.25 C 1 45.464844 2.785156 47.25 5 47.25 L 43 47.25 C 45.214844 47.25 47 45.464844 47 43.25 L 47 43 C 47 45.214844 45.214844 47 43 47 L 5 47 C 2.785156 47 1 45.214844 1 43 Z M 1 43 "/>
<path style=" stroke:none;fill-rule:nonzero;fill:url(#linear0);" d="M 1 43 L 1 5 C 1 2.789062 2.789062 1 5 1 L 43 1 C 45.210938 1 47 2.789062 47 5 L 47 43 C 47 45.210938 45.210938 47 43 47 L 5 47 C 2.789062 47 1 45.210938 1 43 Z M 1 43 "/>
<use xlink:href="#surface6" mask="url(#mask0)"/>
<use xlink:href="#surface9" mask="url(#mask1)"/>
<use xlink:href="#surface12" mask="url(#mask2)"/>
<use xlink:href="#surface15" mask="url(#mask3)"/>
<use xlink:href="#surface18" mask="url(#mask4)"/>
<path style=" stroke:none;fill-rule:nonzero;fill:rgb(0%,0%,0%);fill-opacity:0.101961;" d="M 21.121094 25.675781 C 21.121094 26.515625 20.429688 27.199219 19.574219 27.199219 C 18.71875 27.199219 18.023438 26.515625 18.023438 25.675781 C 18.023438 24.835938 18.71875 24.15625 19.574219 24.15625 C 20.429688 24.15625 21.121094 24.835938 21.121094 25.675781 M 21.121094 25.675781 "/>
<path style=" stroke:none;fill-rule:nonzero;fill:rgb(0%,0%,0%);fill-opacity:0.101961;" d="M 29.171875 25.546875 C 29.171875 26.386719 28.476562 27.066406 27.605469 27.066406 C 26.753906 27.066406 26.054688 26.386719 26.054688 25.546875 C 26.054688 24.707031 26.742188 24.023438 27.605469 24.023438 C 28.460938 24.023438 29.171875 24.707031 29.171875 25.546875 M 29.171875 25.546875 "/>
<use xlink:href="#surface21" mask="url(#mask5)"/>
<path style="fill-rule:nonzero;fill:rgb(100%,100%,100%);fill-opacity:1;stroke-width:1.000079;stroke-linecap:butt;stroke-linejoin:miter;stroke:rgb(17.647059%,17.647059%,17.647059%);stroke-opacity:1;stroke-miterlimit:4;" d="M 16.753906 22.316406 C 16.761719 23.261719 16.261719 24.136719 15.445312 24.613281 C 14.628906 25.085938 13.625 25.085938 12.808594 24.613281 C 11.992188 24.136719 11.496094 23.261719 11.5 22.316406 C 11.496094 21.371094 11.992188 20.492188 12.808594 20.019531 C 13.625 19.542969 14.628906 19.542969 15.445312 20.019531 C 16.261719 20.492188 16.761719 21.371094 16.753906 22.316406 M 16.753906 22.316406 "/>
<path style="fill-rule:nonzero;fill:rgb(100%,100%,100%);fill-opacity:1;stroke-width:1.000079;stroke-linecap:butt;stroke-linejoin:miter;stroke:rgb(17.647059%,17.647059%,17.647059%);stroke-opacity:1;stroke-miterlimit:4;" d="M 36.5 22.375 C 36.507812 23.320312 36.007812 24.195312 35.191406 24.671875 C 34.378906 25.144531 33.371094 25.144531 32.554688 24.671875 C 31.742188 24.195312 31.242188 23.320312 31.246094 22.375 C 31.242188 21.429688 31.742188 20.550781 32.554688 20.078125 C 33.371094 19.601562 34.378906 19.601562 35.191406 20.078125 C 36.007812 20.550781 36.507812 21.429688 36.5 22.375 M 36.5 22.375 "/>
<path style="fill:none;stroke-width:1.000052;stroke-linecap:butt;stroke-linejoin:miter;stroke:rgb(17.647059%,17.647059%,17.647059%);stroke-opacity:1;stroke-miterlimit:4;" d="M 29.335938 13.996094 C 27.347656 13.214844 25.328125 12.289062 23.808594 13.300781 C 22.050781 14.078125 22.136719 16.621094 22.269531 19.214844 "/>
<path style="fill-rule:nonzero;fill:rgb(100%,100%,100%);fill-opacity:1;stroke-width:1.000068;stroke-linecap:round;stroke-linejoin:miter;stroke:rgb(17.647059%,17.647059%,17.647059%);stroke-opacity:1;stroke-miterlimit:4;" d="M 34.902344 26.152344 C 34.902344 30.210938 30.046875 33.5 24.0625 33.5 C 18.074219 33.5 13.222656 30.210938 13.222656 26.152344 C 13.222656 22.097656 18.074219 18.808594 24.0625 18.808594 C 30.046875 18.808594 34.902344 22.097656 34.902344 26.152344 M 34.902344 26.152344 "/>
<path style="fill-rule:nonzero;fill:rgb(100%,100%,100%);fill-opacity:1;stroke-width:1.000045;stroke-linecap:round;stroke-linejoin:miter;stroke:rgb(17.647059%,17.647059%,17.647059%);stroke-opacity:1;stroke-miterlimit:4;" d="M 33.390625 14.886719 C 33.390625 16.207031 32.355469 17.277344 31.078125 17.277344 C 29.804688 17.277344 28.769531 16.207031 28.769531 14.886719 C 28.769531 13.566406 29.804688 12.496094 31.078125 12.496094 C 32.355469 12.496094 33.390625 13.566406 33.390625 14.886719 M 33.390625 14.886719 "/>
<path style=" stroke:none;fill-rule:nonzero;fill:rgb(100%,27.058824%,0%);fill-opacity:1;" d="M 21.121094 24.675781 C 21.121094 25.515625 20.429688 26.199219 19.574219 26.199219 C 18.71875 26.199219 18.023438 25.515625 18.023438 24.675781 C 18.023438 23.835938 18.71875 23.15625 19.574219 23.15625 C 20.429688 23.15625 21.121094 23.835938 21.121094 24.675781 M 21.121094 24.675781 "/>
<path style=" stroke:none;fill-rule:nonzero;fill:rgb(100%,27.058824%,0%);fill-opacity:1;" d="M 29.171875 24.546875 C 29.171875 25.386719 28.476562 26.066406 27.605469 26.066406 C 26.753906 26.066406 26.054688 25.386719 26.054688 24.546875 C 26.054688 23.707031 26.742188 23.023438 27.605469 23.023438 C 28.460938 23.023438 29.171875 23.707031 29.171875 24.546875 M 29.171875 24.546875 "/>
<path style="fill:none;stroke-width:1.000052;stroke-linecap:round;stroke-linejoin:miter;stroke:rgb(17.647059%,17.647059%,17.647059%);stroke-opacity:1;stroke-miterlimit:4;" d="M 19.472656 28.71875 C 22.910156 31.050781 25.5 30.128906 27.984375 28.804688 "/>
<path style=" stroke:none;fill-rule:nonzero;fill:rgb(0%,0%,0%);fill-opacity:0.101961;" d="M 1 38.996094 L 1 42.996094 C 1 45.214844 2.785156 46.996094 5 46.996094 L 43 46.996094 C 45.214844 46.996094 47 45.214844 47 42.996094 L 47 38.996094 C 47 41.214844 45.214844 42.996094 43 42.996094 L 5 42.996094 C 2.785156 42.996094 1 41.214844 1 38.996094 Z M 1 38.996094 "/>
</g>
</svg>
