
<svg xmlns="http://www.w3.org/2000/svg" xmlns:xlink="http://www.w3.org/1999/xlink" width="48px" height="48px" viewBox="0 0 48 48" version="1.1">
<defs>
<linearGradient id="linear0" gradientUnits="userSpaceOnUse" x1="1" y1="0" x2="47" y2="0" gradientTransform="matrix(0,-1,1,0,0.00221467,48.000001)">
<stop offset="0" style="stop-color:rgb(22.745098%,62.745098%,69.803922%);stop-opacity:1;"/>
<stop offset="1" style="stop-color:rgb(25.098039%,67.45098%,75.686275%);stop-opacity:1;"/>
</linearGradient>
</defs>
<g id="surface1">
<path style=" stroke:none;fill-rule:nonzero;fill:rgb(0%,0%,0%);fill-opacity:0.0196078;" d="M 1 43 L 1 43.25 C 1 45.464844 2.785156 47.25 5 47.25 L 43 47.25 C 45.214844 47.25 47 45.464844 47 43.25 L 47 43 C 47 45.214844 45.214844 47 43 47 L 5 47 C 2.785156 47 1 45.214844 1 43 Z M 1 43.5 L 1 44 C 1 46.214844 2.785156 48 5 48 L 43 48 C 45.214844 48 47 46.214844 47 44 L 47 43.5 C 47 45.714844 45.214844 47.5 43 47.5 L 5 47.5 C 2.785156 47.5 1 45.714844 1 43.5 Z M 1 43.5 "/>
<path style=" stroke:none;fill-rule:nonzero;fill:rgb(0%,0%,0%);fill-opacity:0.0509804;" d="M 1 43.25 L 1 43.5 C 1 45.714844 2.785156 47.5 5 47.5 L 43 47.5 C 45.214844 47.5 47 45.714844 47 43.5 L 47 43.25 C 47 45.464844 45.214844 47.25 43 47.25 L 5 47.25 C 2.785156 47.25 1 45.464844 1 43.25 Z M 1 43.25 "/>
<path style=" stroke:none;fill-rule:nonzero;fill:rgb(0%,0%,0%);fill-opacity:0.101961;" d="M 1 43 L 1 43.25 C 1 45.464844 2.785156 47.25 5 47.25 L 43 47.25 C 45.214844 47.25 47 45.464844 47 43.25 L 47 43 C 47 45.214844 45.214844 47 43 47 L 5 47 C 2.785156 47 1 45.214844 1 43 Z M 1 43 "/>
<path style=" stroke:none;fill-rule:nonzero;fill:url(#linear0);" d="M 1 43 L 1 5 C 1 2.789062 2.789062 1 5 1 L 43 1 C 45.210938 1 47 2.789062 47 5 L 47 43 C 47 45.210938 45.210938 47 43 47 L 5 47 C 2.789062 47 1 45.210938 1 43 Z M 1 43 "/>
<path style=" stroke:none;fill-rule:nonzero;fill:rgb(0%,0%,0%);fill-opacity:0.101961;" d="M 14.78125 11 C 13.800781 11 13 11.800781 13 12.78125 L 13 35.21875 C 13 36.199219 13.800781 37 14.78125 37 L 35.21875 37 C 36.203125 37 37.003906 36.199219 37.003906 35.21875 L 37.003906 16.996094 L 31.003906 11 M 14.78125 11 "/>
<path style=" stroke:none;fill-rule:nonzero;fill:rgb(0%,0%,0%);fill-opacity:0.0196078;" d="M 37 17 L 31 17 L 37 23 M 37 17 "/>
<path style=" stroke:none;fill-rule:nonzero;fill:rgb(0%,0%,0%);fill-opacity:0.101961;" d="M 16.355469 14 L 31.648438 14 C 31.84375 14 32.003906 14.160156 32.003906 14.355469 L 32.003906 15.644531 C 32.003906 15.839844 31.84375 15.996094 31.648438 15.996094 L 16.355469 15.996094 C 16.160156 15.996094 16 15.839844 16 15.644531 L 16 14.355469 C 16 14.160156 16.160156 14 16.355469 14 M 16.355469 14 "/>
<path style=" stroke:none;fill-rule:nonzero;fill:rgb(0%,0%,0%);fill-opacity:0.101961;" d="M 37 17 L 31 17 L 31 11.003906 M 37 17 "/>
<path style=" stroke:none;fill-rule:nonzero;fill:rgb(0%,0%,0%);fill-opacity:0.101961;" d="M 16.355469 20 L 31.648438 20 C 31.84375 20 32.003906 20.15625 32.003906 20.351562 L 32.003906 21.640625 C 32.003906 21.839844 31.84375 21.996094 31.648438 21.996094 L 16.355469 21.996094 C 16.160156 21.996094 16 21.839844 16 21.640625 L 16 20.351562 C 16 20.15625 16.160156 20 16.355469 20 M 16.355469 20 "/>
<path style=" stroke:none;fill-rule:nonzero;fill:rgb(0%,0%,0%);fill-opacity:0.101961;" d="M 16.355469 26 L 31.648438 26 C 31.84375 26 32.003906 26.160156 32.003906 26.355469 L 32.003906 27.644531 C 32.003906 27.839844 31.84375 28 31.648438 28 L 16.355469 28 C 16.160156 28 16 27.839844 16 27.644531 L 16 26.355469 C 16 26.160156 16.160156 26 16.355469 26 M 16.355469 26 "/>
<path style=" stroke:none;fill-rule:nonzero;fill:rgb(0%,0%,0%);fill-opacity:0.101961;" d="M 16.355469 31.996094 L 31.648438 31.996094 C 31.84375 31.996094 32.003906 32.15625 32.003906 32.351562 L 32.003906 33.640625 C 32.003906 33.835938 31.84375 33.996094 31.648438 33.996094 L 16.355469 33.996094 C 16.160156 33.996094 16 33.835938 16 33.640625 L 16 32.351562 C 16 32.15625 16.160156 31.996094 16.355469 31.996094 M 16.355469 31.996094 "/>
<path style=" stroke:none;fill-rule:nonzero;fill:rgb(92.54902%,94.901961%,94.901961%);fill-opacity:1;" d="M 14.78125 10 C 13.800781 10 13 10.800781 13 11.78125 L 13 34.21875 C 13 35.199219 13.800781 36 14.78125 36 L 35.21875 36 C 36.203125 36 37.003906 35.199219 37.003906 34.21875 L 37.003906 15.996094 L 31.003906 10 M 14.78125 10 "/>
<path style=" stroke:none;fill-rule:nonzero;fill:rgb(0%,0%,0%);fill-opacity:0.0196078;" d="M 37 16 L 31 16 L 37 22 M 37 16 "/>
<path style=" stroke:none;fill-rule:nonzero;fill:rgb(35.686275%,63.921569%,92.54902%);fill-opacity:1;" d="M 16.355469 13 L 31.648438 13 C 31.84375 13 32.003906 13.160156 32.003906 13.355469 L 32.003906 14.644531 C 32.003906 14.839844 31.84375 14.996094 31.648438 14.996094 L 16.355469 14.996094 C 16.160156 14.996094 16 14.839844 16 14.644531 L 16 13.355469 C 16 13.160156 16.160156 13 16.355469 13 M 16.355469 13 "/>
<path style=" stroke:none;fill-rule:nonzero;fill:rgb(100%,100%,100%);fill-opacity:1;" d="M 37 16 L 31 16 L 31 10.003906 M 37 16 "/>
<path style=" stroke:none;fill-rule:nonzero;fill:rgb(35.686275%,63.921569%,92.54902%);fill-opacity:1;" d="M 16.355469 19 L 31.648438 19 C 31.84375 19 32.003906 19.15625 32.003906 19.351562 L 32.003906 20.640625 C 32.003906 20.839844 31.84375 20.996094 31.648438 20.996094 L 16.355469 20.996094 C 16.160156 20.996094 16 20.839844 16 20.640625 L 16 19.351562 C 16 19.15625 16.160156 19 16.355469 19 M 16.355469 19 "/>
<path style=" stroke:none;fill-rule:nonzero;fill:rgb(35.686275%,63.921569%,92.54902%);fill-opacity:1;" d="M 16.355469 25 L 31.648438 25 C 31.84375 25 32.003906 25.160156 32.003906 25.355469 L 32.003906 26.644531 C 32.003906 26.839844 31.84375 27 31.648438 27 L 16.355469 27 C 16.160156 27 16 26.839844 16 26.644531 L 16 25.355469 C 16 25.160156 16.160156 25 16.355469 25 M 16.355469 25 "/>
<path style=" stroke:none;fill-rule:nonzero;fill:rgb(35.686275%,63.921569%,92.54902%);fill-opacity:1;" d="M 16.355469 30.996094 L 31.648438 30.996094 C 31.84375 30.996094 32.003906 31.15625 32.003906 31.351562 L 32.003906 32.640625 C 32.003906 32.835938 31.84375 32.996094 31.648438 32.996094 L 16.355469 32.996094 C 16.160156 32.996094 16 32.835938 16 32.640625 L 16 31.351562 C 16 31.15625 16.160156 30.996094 16.355469 30.996094 M 16.355469 30.996094 "/>
<path style=" stroke:none;fill-rule:nonzero;fill:rgb(0%,0%,0%);fill-opacity:0.101961;" d="M 1 38.996094 L 1 42.996094 C 1 45.214844 2.785156 46.996094 5 46.996094 L 43 46.996094 C 45.214844 46.996094 47 45.214844 47 42.996094 L 47 38.996094 C 47 41.214844 45.214844 42.996094 43 42.996094 L 5 42.996094 C 2.785156 42.996094 1 41.214844 1 38.996094 Z M 1 38.996094 "/>
</g>
</svg>
