<?xml version="1.0" encoding="UTF-8" standalone="no"?>
<svg
   xmlns:dc="http://purl.org/dc/elements/1.1/"
   xmlns:cc="http://creativecommons.org/ns#"
   xmlns:rdf="http://www.w3.org/1999/02/22-rdf-syntax-ns#"
   xmlns:svg="http://www.w3.org/2000/svg"
   xmlns="http://www.w3.org/2000/svg"
   xmlns:sodipodi="http://sodipodi.sourceforge.net/DTD/sodipodi-0.dtd"
   xmlns:inkscape="http://www.inkscape.org/namespaces/inkscape"
   viewBox="0 0 48 48"
   id="svg3454"
   version="1.1"
   inkscape:version="0.48.5 r10040"
   width="100%"
   height="100%"
   sodipodi:docname="twitter.svg">
  <metadata
     id="metadata3513">
    <rdf:RDF>
      <cc:Work
         rdf:about="">
        <dc:format>image/svg+xml</dc:format>
        <dc:type
           rdf:resource="http://purl.org/dc/dcmitype/StillImage" />
      </cc:Work>
    </rdf:RDF>
  </metadata>
  <sodipodi:namedview
     pagecolor="#ffffff"
     bordercolor="#666666"
     borderopacity="1"
     objecttolerance="10"
     gridtolerance="10"
     guidetolerance="10"
     inkscape:pageopacity="0"
     inkscape:pageshadow="2"
     inkscape:window-width="640"
     inkscape:window-height="480"
     id="namedview3511"
     showgrid="false"
     inkscape:zoom="4.9166667"
     inkscape:cx="24"
     inkscape:cy="24"
     inkscape:window-x="0"
     inkscape:window-y="0"
     inkscape:window-maximized="0"
     inkscape:current-layer="svg3454" />
  <defs
     id="defs3456">
    <linearGradient
       id="linearGradient3764"
       x1="1"
       x2="47"
       gradientUnits="userSpaceOnUse"
       gradientTransform="translate(-48.000001,0.00221467)">
      <stop
         stop-color="#00acec"
         stop-opacity="1"
         id="stop3459" />
      <stop
         offset="1"
         stop-color="#01b9ff"
         stop-opacity="1"
         id="stop3461" />
    </linearGradient>
    <clipPath
       id="clipPath-211114165">
      <g
         transform="translate(0,-1004.3622)"
         id="g3464">
        <rect
           rx="4"
           y="1005.36"
           x="1"
           height="46"
           width="46"
           fill="#1890d0"
           id="rect3466" />
      </g>
    </clipPath>
    <clipPath
       id="clipPath-224828732">
      <g
         transform="translate(0,-1004.3622)"
         id="g3469">
        <rect
           rx="4"
           y="1005.36"
           x="1"
           height="46"
           width="46"
           fill="#1890d0"
           id="rect3471" />
      </g>
    </clipPath>
  </defs>
  <g
     id="g3473">
    <path
       d="m 1 43 l 0 0.25 c 0 2.216 1.784 4 4 4 l 38 0 c 2.216 0 4 -1.784 4 -4 l 0 -0.25 c 0 2.216 -1.784 4 -4 4 l -38 0 c -2.216 0 -4 -1.784 -4 -4 z m 0 0.5 l 0 0.5 c 0 2.216 1.784 4 4 4 l 38 0 c 2.216 0 4 -1.784 4 -4 l 0 -0.5 c 0 2.216 -1.784 4 -4 4 l -38 0 c -2.216 0 -4 -1.784 -4 -4 z"
       opacity="0.02"
       id="path3475" />
    <path
       d="m 1 43.25 l 0 0.25 c 0 2.216 1.784 4 4 4 l 38 0 c 2.216 0 4 -1.784 4 -4 l 0 -0.25 c 0 2.216 -1.784 4 -4 4 l -38 0 c -2.216 0 -4 -1.784 -4 -4 z"
       opacity="0.05"
       id="path3477" />
    <path
       d="m 1 43 l 0 0.25 c 0 2.216 1.784 4 4 4 l 38 0 c 2.216 0 4 -1.784 4 -4 l 0 -0.25 c 0 2.216 -1.784 4 -4 4 l -38 0 c -2.216 0 -4 -1.784 -4 -4 z"
       opacity="0.1"
       id="path3479" />
  </g>
  <g
     id="g3481">
    <rect
       width="46"
       height="46"
       x="-47"
       y="1"
       rx="4"
       transform="matrix(0,-1,1,0,0,0)"
       fill="url(#linearGradient3764)"
       fill-opacity="1"
       id="rect3483" />
  </g>
  <g
     id="g3485">
    <g
       clip-path="url(#clipPath-211114165)"
       id="g3487">
      <g
         opacity="0.1"
         id="g3489">
        <!-- color: #01b9ff -->
        <g
           id="g3491">
          <path
             d="m 27.29 13.258 c -2.348 0.875 -3.832 3.129 -3.664 5.594 l 0.055 0.953 l -0.938 -0.117 c -3.418 -0.445 -6.406 -1.961 -8.941 -4.504 l -1.242 -1.266 l -0.316 0.934 c -0.68 2.078 -0.246 4.273 1.164 5.75 c 0.75 0.813 0.582 0.93 -0.715 0.445 c -0.449 -0.156 -0.848 -0.273 -0.883 -0.215 c -0.133 0.137 0.316 1.906 0.676 2.602 c 0.488 0.973 1.484 1.926 2.574 2.488 l 0.918 0.445 l -1.086 0.02 c -1.055 0 -1.09 0.02 -0.98 0.426 c 0.379 1.266 1.863 2.605 3.523 3.188 l 1.164 0.41 l -1.023 0.617 c -1.5 0.895 -3.266 1.398 -5.03 1.438 c -0.848 0.02 -1.543 0.098 -1.543 0.156 c 0 0.195 2.293 1.281 3.625 1.707 c 4 1.266 8.754 0.719 12.324 -1.434 c 2.535 -1.535 5.074 -4.586 6.258 -7.535 c 0.637 -1.574 1.277 -4.449 1.277 -5.828 c 0 -0.891 0.055 -1.01 1.109 -2.078 c 0.617 -0.621 1.199 -1.301 1.313 -1.492 c 0.188 -0.371 0.168 -0.371 -0.789 -0.039 c -1.598 0.578 -1.824 0.504 -1.031 -0.371 c 0.582 -0.621 1.273 -1.746 1.273 -2.078 c 0 -0.059 -0.281 0.039 -0.598 0.215 c -0.34 0.191 -1.09 0.484 -1.652 0.66 l -1.016 0.328 l -0.922 -0.641 c -0.523 -0.348 -1.23 -0.738 -1.605 -0.855 c -0.957 -0.27 -2.422 -0.23 -3.285 0.078 m 0 0"
             stroke="none"
             fill-rule="nonzero"
             fill-opacity="1"
             fill="#000"
             id="path3493" />
        </g>
      </g>
    </g>
  </g>
  <g
     id="g3497"
     clip-path="url(#clipPath-224828732)">
    <g
       id="g3499"
       transform="translate(0,-1)">
      <!-- color: #01b9ff -->
      <g
         id="g3501">
        <path
           style="fill:#f9f9f9;fill-opacity:1;fill-rule:nonzero;stroke:none"
           inkscape:connector-curvature="0"
           id="path3503"
           d="m 27.29,13.258 c -2.348,0.875 -3.832,3.129 -3.664,5.594 l 0.055,0.953 -0.938,-0.117 c -3.418,-0.445 -6.406,-1.961 -8.941,-4.504 l -1.242,-1.266 -0.316,0.934 c -0.68,2.078 -0.246,4.273 1.164,5.75 0.75,0.813 0.582,0.93 -0.715,0.445 -0.449,-0.156 -0.848,-0.273 -0.883,-0.215 -0.133,0.137 0.316,1.906 0.676,2.602 0.488,0.973 1.484,1.926 2.574,2.488 l 0.918,0.445 -1.086,0.02 c -1.055,0 -1.09,0.02 -0.98,0.426 0.379,1.266 1.863,2.605 3.523,3.188 l 1.164,0.41 -1.023,0.617 c -1.5,0.895 -3.266,1.398 -5.03,1.438 -0.848,0.02 -1.543,0.098 -1.543,0.156 0,0.195 2.293,1.281 3.625,1.707 4,1.266 8.754,0.719 12.324,-1.434 2.535,-1.535 5.074,-4.586 6.258,-7.535 0.637,-1.574 1.277,-4.449 1.277,-5.828 0,-0.891 0.055,-1.01 1.109,-2.078 0.617,-0.621 1.199,-1.301 1.313,-1.492 0.188,-0.371 0.168,-0.371 -0.789,-0.039 -1.598,0.578 -1.824,0.504 -1.031,-0.371 0.582,-0.621 1.273,-1.746 1.273,-2.078 0,-0.059 -0.281,0.039 -0.598,0.215 -0.34,0.191 -1.09,0.484 -1.652,0.66 l -1.016,0.328 -0.922,-0.641 c -0.523,-0.348 -1.23,-0.738 -1.605,-0.855 -0.957,-0.27 -2.422,-0.23 -3.285,0.078 m 0,0" />
      </g>
    </g>
  </g>
  <g
     id="g3505">
    <g
       transform="translate(0,-1004.3622)"
       id="g3507">
      <path
         d="m 1 1043.36 0 4 c 0 2.216 1.784 4 4 4 l 38 0 c 2.216 0 4 -1.784 4 -4 l 0 -4 c 0 2.216 -1.784 4 -4 4 l -38 0 c -2.216 0 -4 -1.784 -4 -4 z"
         opacity="0.1"
         id="path3509" />
    </g>
  </g>
</svg>
