
<svg xmlns="http://www.w3.org/2000/svg" xmlns:xlink="http://www.w3.org/1999/xlink" width="48px" height="48px" viewBox="0 0 48 48" version="1.1">
<defs>
<linearGradient id="linear0" gradientUnits="userSpaceOnUse" x1="1" y1="0" x2="47" y2="0" gradientTransform="matrix(0,-1,1,0,0.00221467,48.000001)">
<stop offset="0" style="stop-color:rgb(0%,67.45098%,92.54902%);stop-opacity:1;"/>
<stop offset="1" style="stop-color:rgb(0.392157%,72.54902%,100%);stop-opacity:1;"/>
</linearGradient>
</defs>
<g id="surface1">
<path style=" stroke:none;fill-rule:nonzero;fill:rgb(0%,0%,0%);fill-opacity:0.0196078;" d="M 1 43 L 1 43.25 C 1 45.464844 2.785156 47.25 5 47.25 L 43 47.25 C 45.214844 47.25 47 45.464844 47 43.25 L 47 43 C 47 45.214844 45.214844 47 43 47 L 5 47 C 2.785156 47 1 45.214844 1 43 Z M 1 43.5 L 1 44 C 1 46.214844 2.785156 48 5 48 L 43 48 C 45.214844 48 47 46.214844 47 44 L 47 43.5 C 47 45.714844 45.214844 47.5 43 47.5 L 5 47.5 C 2.785156 47.5 1 45.714844 1 43.5 Z M 1 43.5 "/>
<path style=" stroke:none;fill-rule:nonzero;fill:rgb(0%,0%,0%);fill-opacity:0.0509804;" d="M 1 43.25 L 1 43.5 C 1 45.714844 2.785156 47.5 5 47.5 L 43 47.5 C 45.214844 47.5 47 45.714844 47 43.5 L 47 43.25 C 47 45.464844 45.214844 47.25 43 47.25 L 5 47.25 C 2.785156 47.25 1 45.464844 1 43.25 Z M 1 43.25 "/>
<path style=" stroke:none;fill-rule:nonzero;fill:rgb(0%,0%,0%);fill-opacity:0.101961;" d="M 1 43 L 1 43.25 C 1 45.464844 2.785156 47.25 5 47.25 L 43 47.25 C 45.214844 47.25 47 45.464844 47 43.25 L 47 43 C 47 45.214844 45.214844 47 43 47 L 5 47 C 2.785156 47 1 45.214844 1 43 Z M 1 43 "/>
<path style=" stroke:none;fill-rule:nonzero;fill:url(#linear0);" d="M 1 43 L 1 5 C 1 2.789062 2.789062 1 5 1 L 43 1 C 45.210938 1 47 2.789062 47 5 L 47 43 C 47 45.210938 45.210938 47 43 47 L 5 47 C 2.789062 47 1 45.210938 1 43 Z M 1 43 "/>
<path style=" stroke:none;fill-rule:nonzero;fill:rgb(0%,0%,0%);fill-opacity:0.101961;" d="M 27.289062 13.257812 C 24.941406 14.132812 23.457031 16.386719 23.625 18.851562 L 23.679688 19.804688 L 22.742188 19.6875 C 19.324219 19.242188 16.335938 17.726562 13.800781 15.183594 L 12.558594 13.917969 L 12.242188 14.851562 C 11.5625 16.929688 11.996094 19.125 13.40625 20.601562 C 14.15625 21.414062 13.988281 21.53125 12.691406 21.046875 C 12.242188 20.890625 11.84375 20.773438 11.808594 20.832031 C 11.675781 20.96875 12.125 22.738281 12.484375 23.433594 C 12.972656 24.40625 13.96875 25.359375 15.058594 25.921875 L 15.976562 26.367188 L 14.890625 26.386719 C 13.835938 26.386719 13.800781 26.40625 13.910156 26.8125 C 14.289062 28.078125 15.773438 29.417969 17.433594 30 L 18.597656 30.410156 L 17.574219 31.027344 C 16.074219 31.921875 14.308594 32.425781 12.546875 32.464844 C 11.699219 32.484375 11.003906 32.5625 11.003906 32.621094 C 11.003906 32.816406 13.296875 33.902344 14.628906 34.328125 C 18.628906 35.59375 23.382812 35.046875 26.953125 32.894531 C 29.488281 31.359375 32.027344 28.308594 33.210938 25.359375 C 33.847656 23.785156 34.488281 20.910156 34.488281 19.53125 C 34.488281 18.640625 34.542969 18.523438 35.597656 17.453125 C 36.214844 16.832031 36.796875 16.152344 36.910156 15.960938 C 37.097656 15.589844 37.078125 15.589844 36.121094 15.921875 C 34.523438 16.5 34.296875 16.425781 35.089844 15.550781 C 35.671875 14.929688 36.363281 13.804688 36.363281 13.472656 C 36.363281 13.414062 36.082031 13.511719 35.765625 13.6875 C 35.425781 13.878906 34.675781 14.171875 34.113281 14.347656 L 33.097656 14.675781 L 32.175781 14.035156 C 31.652344 13.6875 30.945312 13.296875 30.570312 13.179688 C 29.613281 12.910156 28.148438 12.949219 27.285156 13.257812 M 27.285156 13.257812 "/>
<path style=" stroke:none;fill-rule:nonzero;fill:rgb(97.647059%,97.647059%,97.647059%);fill-opacity:1;" d="M 27.289062 12.257812 C 24.941406 13.132812 23.457031 15.386719 23.625 17.851562 L 23.679688 18.804688 L 22.742188 18.6875 C 19.324219 18.242188 16.335938 16.726562 13.800781 14.183594 L 12.558594 12.917969 L 12.242188 13.851562 C 11.5625 15.929688 11.996094 18.125 13.40625 19.601562 C 14.15625 20.414062 13.988281 20.53125 12.691406 20.046875 C 12.242188 19.890625 11.84375 19.773438 11.808594 19.832031 C 11.675781 19.96875 12.125 21.738281 12.484375 22.433594 C 12.972656 23.40625 13.96875 24.359375 15.058594 24.921875 L 15.976562 25.367188 L 14.890625 25.386719 C 13.835938 25.386719 13.800781 25.40625 13.910156 25.8125 C 14.289062 27.078125 15.773438 28.417969 17.433594 29 L 18.597656 29.410156 L 17.574219 30.027344 C 16.074219 30.921875 14.308594 31.425781 12.546875 31.464844 C 11.699219 31.484375 11.003906 31.5625 11.003906 31.621094 C 11.003906 31.816406 13.296875 32.902344 14.628906 33.328125 C 18.628906 34.59375 23.382812 34.046875 26.953125 31.894531 C 29.488281 30.359375 32.027344 27.308594 33.210938 24.359375 C 33.847656 22.785156 34.488281 19.910156 34.488281 18.53125 C 34.488281 17.640625 34.542969 17.523438 35.597656 16.453125 C 36.214844 15.832031 36.796875 15.152344 36.910156 14.960938 C 37.097656 14.589844 37.078125 14.589844 36.121094 14.921875 C 34.523438 15.5 34.296875 15.425781 35.089844 14.550781 C 35.671875 13.929688 36.363281 12.804688 36.363281 12.472656 C 36.363281 12.414062 36.082031 12.511719 35.765625 12.6875 C 35.425781 12.878906 34.675781 13.171875 34.113281 13.347656 L 33.097656 13.675781 L 32.175781 13.035156 C 31.652344 12.6875 30.945312 12.296875 30.570312 12.179688 C 29.613281 11.910156 28.148438 11.949219 27.285156 12.257812 M 27.285156 12.257812 "/>
<path style=" stroke:none;fill-rule:nonzero;fill:rgb(0%,0%,0%);fill-opacity:0.101961;" d="M 1 38.996094 L 1 42.996094 C 1 45.214844 2.785156 46.996094 5 46.996094 L 43 46.996094 C 45.214844 46.996094 47 45.214844 47 42.996094 L 47 38.996094 C 47 41.214844 45.214844 42.996094 43 42.996094 L 5 42.996094 C 2.785156 42.996094 1 41.214844 1 38.996094 Z M 1 38.996094 "/>
</g>
</svg>
