<?xml version="1.0" encoding="UTF-8" standalone="no"?>
<svg
   xmlns:dc="http://purl.org/dc/elements/1.1/"
   xmlns:cc="http://creativecommons.org/ns#"
   xmlns:rdf="http://www.w3.org/1999/02/22-rdf-syntax-ns#"
   xmlns:svg="http://www.w3.org/2000/svg"
   xmlns="http://www.w3.org/2000/svg"
   xmlns:xlink="http://www.w3.org/1999/xlink"
   xmlns:sodipodi="http://sodipodi.sourceforge.net/DTD/sodipodi-0.dtd"
   xmlns:inkscape="http://www.inkscape.org/namespaces/inkscape"
   viewBox="0 0 48 48"
   id="svg2"
   version="1.1"
   inkscape:version="0.48.5 r10040"
   width="100%"
   height="100%"
   sodipodi:docname="world.svg">
  <metadata
     id="metadata61">
    <rdf:RDF>
      <cc:Work
         rdf:about="">
        <dc:format>image/svg+xml</dc:format>
        <dc:type
           rdf:resource="http://purl.org/dc/dcmitype/StillImage" />
        <dc:title />
      </cc:Work>
    </rdf:RDF>
  </metadata>
  <sodipodi:namedview
     pagecolor="#ffffff"
     bordercolor="#666666"
     borderopacity="1"
     objecttolerance="10"
     gridtolerance="10"
     guidetolerance="10"
     inkscape:pageopacity="0"
     inkscape:pageshadow="2"
     inkscape:window-width="1280"
     inkscape:window-height="970"
     id="namedview59"
     showgrid="false"
     inkscape:zoom="9.8333333"
     inkscape:cx="36.320401"
     inkscape:cy="21.251218"
     inkscape:window-x="0"
     inkscape:window-y="0"
     inkscape:window-maximized="1"
     inkscape:current-layer="svg2" />
  <defs
     id="defs4">
    <linearGradient
       id="linearGradient3764"
       x1="1"
       x2="47"
       gradientUnits="userSpaceOnUse"
       gradientTransform="matrix(0,-1,1,0,-1.5e-6,47.999998)">
      <stop
         stop-color="#1e94ca"
         stop-opacity="1"
         id="stop7" />
      <stop
         offset="1"
         stop-color="#20a0db"
         stop-opacity="1"
         id="stop9" />
    </linearGradient>
    <clipPath
       id="clipPath-305689015">
      <g
         transform="translate(0,-1004.3622)"
         id="g12">
        <path
           d="m -24 13 c 0 1.105 -0.672 2 -1.5 2 -0.828 0 -1.5 -0.895 -1.5 -2 0 -1.105 0.672 -2 1.5 -2 0.828 0 1.5 0.895 1.5 2 z"
           transform="matrix(15.333333,0,0,11.5,414.99999,878.8622)"
           fill="#1890d0"
           id="path14" />
      </g>
    </clipPath>
    <clipPath
       id="clipPath-314453158">
      <g
         transform="translate(0,-1004.3622)"
         id="g17">
        <path
           d="m -24 13 c 0 1.105 -0.672 2 -1.5 2 -0.828 0 -1.5 -0.895 -1.5 -2 0 -1.105 0.672 -2 1.5 -2 0.828 0 1.5 0.895 1.5 2 z"
           transform="matrix(15.333333,0,0,11.5,414.99999,878.8622)"
           fill="#1890d0"
           id="path19" />
      </g>
    </clipPath>
    <linearGradient
       inkscape:collect="always"
       xlink:href="#linearGradient3764"
       id="linearGradient3013"
       gradientUnits="userSpaceOnUse"
       gradientTransform="matrix(0,-1,1,0,-1.5e-6,47.999998)"
       x1="1"
       x2="47" />
  </defs>
  <path
     inkscape:connector-curvature="0"
     style="fill:url(#linearGradient3013);fill-opacity:1"
     id="path31"
     d="M 24,1 C 36.703,1 47,11.297 47,24 47,36.703 36.703,47 24,47 11.297,47 1,36.703 1,24 1,11.297 11.297,1 24,1 z" />
  <path
     style="opacity:0.1;fill:#000000;fill-opacity:1;fill-rule:nonzero;stroke:none"
     d="M 17 2.90625 L 16.15625 3.15625 L 15.1875 3.21875 L 14.59375 3.65625 L 13.8125 3.625 L 13.875 4.125 L 15 4.09375 L 15.40625 5.1875 L 15.5625 5.78125 L 14.9375 6.125 L 14.6875 6.59375 L 14.875 7.65625 L 15.625 7.78125 L 16.34375 7.09375 L 16.96875 6.4375 L 17.9375 6.1875 L 19.15625 5.59375 L 19.875 4.71875 L 20.90625 3.46875 L 21.625 3.28125 L 21.59375 3 L 20.46875 3 L 17 2.90625 z M 14.71875 2.96875 C 14.081792 3.2504936 13.448755 3.5699361 12.84375 3.90625 C 13.369625 3.624 13.91225 3.34375 13.96875 3.34375 L 14.78125 2.96875 L 14.71875 2.96875 z M 26.96875 3.375 C 26.91375 3.395 25.4375 3.40625 25.4375 3.40625 L 25.0625 3.5 L 25.5625 4.09375 L 26.09375 3.59375 L 26.4375 3.8125 L 26.9375 3.5625 C 26.9375 3.5625 27.02775 3.352 26.96875 3.375 z M 32.59375 3.84375 L 32.125 3.90625 L 31.71875 4.15625 L 31.25 4.5 L 30.96875 5 L 31.40625 5.4375 L 31.78125 5.46875 L 31.9375 5.21875 L 31.5625 4.90625 L 31.78125 4.71875 L 31.8125 4.5625 L 32.28125 4.25 C 32.28125 4.25 32.8945 4.258 32.9375 4.25 C 32.9845 4.238 33.125 4.0625 33.125 4.0625 L 32.96875 3.84375 L 32.59375 3.84375 z M 36.0625 4.4375 L 35.8125 4.59375 L 35.1875 4.96875 L 34.65625 5.40625 L 34.71875 5.59375 L 34.46875 5.625 L 34.4375 5.46875 L 34.125 5.03125 L 33.46875 4.96875 C 33.46875 4.96875 33.625 5.63275 33.625 5.71875 C 33.625 5.80075 33.1875 5.75 33.1875 5.75 L 32.4375 5.78125 C 32.4375 5.78125 31.35575 6.03125 31.21875 6.03125 C 31.08975 6.03125 30.45325 6.2935 30.40625 6.3125 L 30.375 6.3125 L 30.34375 6.3125 L 30.28125 6.375 L 29.15625 6.96875 L 28.84375 6.75 L 28.6875 6.5 L 28.75 6.21875 L 29.4375 6.28125 L 29.75 6.15625 L 29.125 5.84375 L 28.25 5.5 L 27.375 5.34375 L 26.4375 5.5625 L 25.46875 6.34375 L 25.03125 6.78125 L 24.375 7.5 L 24.125 7.53125 L 24.03125 7.875 L 24.15625 8.21875 C 24.15625 8.21875 24.2935 8.375 24.3125 8.375 C 24.3325 8.375 24.5625 8.25 24.5625 8.25 C 24.5625 8.25 24.58575 8.13275 24.71875 8.09375 C 24.84775 8.05475 24.96875 8.03125 24.96875 8.03125 L 25.15625 8.40625 L 25.375 8.71875 L 25.46875 8.96875 C 25.46875 8.96875 25.83175 8.74575 25.84375 8.71875 C 25.85575 8.68775 25.875 8.3125 25.875 8.3125 L 26.15625 8.09375 C 26.15625 8.09375 26.22675 7.9605 26.21875 7.9375 C 26.21075 7.9175 26.03125 7.71875 26.03125 7.71875 L 25.875 7.65625 L 25.9375 7.34375 C 25.9375 7.34375 26.0625 7.293 26.0625 7.25 C 26.0625 7.211 26.25 7.0625 26.25 7.0625 L 26.5 6.78125 L 26.65625 6.59375 L 26.875 6.4375 L 27.125 6.625 L 27.125 6.75 L 26.90625 7 L 26.8125 7.25 L 26.8125 7.59375 L 27.03125 7.75 L 27.375 7.71875 L 27.6875 7.65625 L 27.9375 7.8125 L 27.875 8.03125 C 27.875 8.03125 27.688 8.219 27.625 8.25 C 27.57 8.281 27.211 8.18675 27.125 8.21875 C 27.031 8.24975 26.8125 8.5625 26.8125 8.5625 C 26.8125 8.5625 26.7855 8.812 26.8125 8.875 C 26.8185 8.89225 26.820562 8.9295625 26.8125 8.96875 L 26.78125 9 L 26.40625 9.28125 L 26.375 9.28125 L 26.125 9.1875 C 26.125 9.1875 25.97325 9.192 25.90625 9.25 C 25.84325 9.301 25.78575 9.356 25.59375 9.375 C 25.40275 9.395 25.031 9.375 25 9.375 L 24.78125 9.375 L 24.8125 9.15625 L 24.96875 8.90625 L 24.6875 8.6875 C 24.6875 8.6875 24.503 8.91775 24.5 8.96875 C 24.492 9.02375 24.625 9.25 24.625 9.25 C 24.625 9.25 24.56225 9.42975 24.53125 9.46875 C 24.50025 9.50775 24.1875 9.59375 24.1875 9.59375 L 23.78125 9.375 C 23.78125 9.375 23.601 9.3355 23.625 9.4375 C 23.648 9.5395 23.84375 9.63275 23.84375 9.71875 C 23.84375 9.80075 23.71875 10 23.71875 10 L 23.5625 10.1875 L 23.3125 10.4375 L 22.96875 10.53125 C 22.96875 10.53125 22.72625 10.601 22.65625 10.625 C 22.59325 10.648 22.40625 10.6875 22.40625 10.6875 L 22.125 10.71875 L 22 10.9375 L 22.25 11.125 L 22.4375 11.4375 C 22.4375 11.4375 22.56275 11.65625 22.59375 11.65625 C 22.62475 11.65625 22.6875 11.875 22.6875 11.875 L 22.5 12.125 L 22.40625 12.125 L 21.75 12.25 L 21.625 11.96875 L 21.1875 12.40625 L 21 13.125 L 21 13.71875 L 21.75 14.125 L 22.375 13.90625 L 22.96875 12.84375 L 23.5 12.1875 L 24.46875 12.03125 L 24.6875 11.84375 L 25.78125 13.125 L 25.90625 13.5625 L 26.21875 13.40625 L 26.125 13.03125 L 26.3125 13.03125 L 26.1875 12.78125 L 25.125 11.78125 L 25.21875 11.59375 L 25.5625 11.5625 L 26.3125 12.3125 L 26.6875 12.75 L 26.6875 13.4375 L 26.875 13.5625 L 27.25 13.9375 L 27.53125 13.84375 L 27.375 13.28125 L 27.46875 12.9375 L 27.65625 12.71875 L 28.09375 12.875 L 28.25 12.9375 L 28.21875 12.4375 L 28.46875 11.96875 L 28.625 11.28125 L 29.1875 11.375 L 29.28125 11.6875 L 29.5 11.84375 L 29.75 11.625 L 29.59375 11.28125 L 30.25 11.28125 L 30.03125 11.65625 L 30.46875 12.03125 L 30.84375 12.21875 L 31.0625 12.65625 L 30.5625 12.78125 L 29.84375 12.625 L 29.21875 12.625 L 28.625 12.9375 L 28.5 13.125 L 28.0625 13.21875 L 28.25 13.6875 L 28.59375 14.09375 L 29.21875 13.875 L 29.375 14.15625 L 29.65625 13.9375 L 30.03125 14 L 30.0625 14.40625 L 29.9375 15.1875 L 29.59375 15.15625 L 29.1875 15.09375 L 29 15.5625 L 27.625 15.3125 L 27.375 15 L 27.0625 15.28125 L 26.71875 15.75 L 25.84375 15.25 L 24.96875 14.71875 L 24.96875 13.78125 L 24.40625 13.8125 L 24.375 14.125 L 23 14.0625 L 22.5625 14.46875 L 21.71875 14.5 L 21.15625 15 L 20.8125 15.96875 L 19.9375 16.65625 L 19.3125 17.5 L 19.28125 19.125 L 19.09375 19.625 L 19.03125 20.21875 L 19.40625 20.875 L 19.625 21.5 L 20.375 22.40625 L 20.8125 22.78125 L 21.25 22.875 L 21.34375 22.5 L 22.90625 22.5 L 23.3125 22.3125 L 23.8125 22.375 L 23.96875 22.6875 L 24.5 22.71875 L 24.84375 22.96875 L 24.84375 23.5 L 24.71875 23.9375 L 24.59375 24.28125 L 24.90625 24.84375 L 25.3125 25.3125 L 25.5 26.5 L 25.53125 27.28125 L 25.25 27.9375 L 25.21875 28.5625 L 25.4375 29.71875 L 25.625 29.90625 L 25.90625 31 L 25.9375 31.46875 L 26.5 32.21875 L 26.5625 32.8125 L 26.65625 33.5 L 27 33.15625 L 27.875 33.0625 L 28.40625 33.0625 L 29.375 31.5625 L 29.4375 30.96875 L 30.09375 30.3125 L 30.125 29.5625 L 30.46875 28.8125 L 31.28125 28.03125 L 31.28125 27.15625 L 31.09375 26.34375 L 30.96875 25.21875 L 31.5625 24.28125 L 32.625 22.96875 L 33.03125 22.5625 L 33.1875 22.03125 L 33.4375 21.5625 L 33.5 20.875 L 32.90625 20.875 L 32.625 21.15625 L 32.0625 21 L 31.71875 20.4375 L 31.4375 19.875 L 30.78125 19.375 L 30.625 18.5625 L 30.34375 18.09375 L 30.03125 17.5 L 29.625 16.78125 L 29.53125 16.3125 L 29.96875 16.25 L 30.21875 16.78125 L 30.71875 17.71875 L 31.09375 18.40625 L 31.5 19.15625 L 31.9375 19.875 L 32.53125 20.46875 L 33.0625 19.96875 L 33.6875 19.8125 L 34.125 19.28125 L 34.71875 18.9375 L 35.0625 18.34375 L 35.09375 17.84375 L 34.8125 17.53125 L 34.4375 17.09375 L 34.1875 17.25 L 34.03125 17.5 L 33.625 17.3125 L 33.5 17 L 33.21875 16.59375 L 32.78125 16.1875 L 32.78125 15.375 L 33.0625 15.90625 L 33.40625 16.4375 L 34 16.78125 L 34.40625 16.6875 L 34.65625 16.96875 L 36.4375 16.9375 L 36.40625 16.96875 L 36.96875 17.46875 L 37.375 18.03125 L 37.5 18.3125 L 37.78125 18.3125 L 37.875 18 L 37.96875 18.46875 L 38.125 19.3125 L 38.46875 20.125 L 38.65625 20.8125 L 38.9375 21.46875 L 39.15625 21.75 L 39.46875 21.5625 L 39.5625 21.25 L 39.6875 20.46875 L 39.65625 19.78125 L 39.90625 19.46875 C 39.90625 19.46875 40.17175 19.10975 40.21875 19.09375 C 40.26975 19.08175 40.84375 18.4375 40.84375 18.4375 L 41.125 18.09375 L 41.4375 17.90625 L 41.8125 17.6875 L 41.96875 17.6875 L 42.03125 18.03125 L 42.1875 18.4375 L 42.6875 19.0625 L 42.6875 19.3125 L 42.78125 19.59375 L 43.125 19.4375 L 43.09375 19.0625 L 43.40625 19.15625 L 43.46875 19.5 L 43.4375 20.03125 L 43.53125 20.40625 L 43.8125 20.46875 L 43.90625 20.15625 L 44.25 20.375 L 44.3125 20.6875 L 44.625 21.15625 L 44.9375 21.5 L 45.15625 21.6875 L 45.6875 21.21875 L 45.90625 20.78125 L 45.8125 20.28125 L 45.71875 19.625 L 45.125 19.0625 L 45.03125 18.5 L 45.28125 18.09375 C 45.28125 18.09375 45.44075 17.7735 45.59375 17.9375 C 45.74575 18.1055 45.821 18.1255 45.75 18.3125 C 45.684 18.4965 45.5625 18.90625 45.5625 18.90625 L 45.9375 19.0625 L 46.09375 18.53125 L 45.9375 18.15625 L 46.21875 18.03125 C 44.683052 12.299492 40.99107 7.4779846 36.0625 4.4375 z M 11.21875 4.875 C 11.03411 4.99843 10.868314 5.1214193 10.6875 5.25 L 10.84375 5.59375 L 11.40625 5.5 L 11.65625 5.96875 L 11.15625 6.5 L 10.59375 6.5625 L 11.09375 6.8125 L 11.625 7.28125 L 12.15625 7.40625 L 12.34375 6.6875 L 12.375 6.21875 L 13 6.3125 C 13 6.3125 12.81325 6.65625 12.90625 6.65625 C 13.00825 6.65625 13.375 6.25 13.375 6.25 L 12.3125 5.125 C 12.3125 5.125 11.875 4.781 11.75 4.875 C 11.617 4.965 11.28125 4.9375 11.28125 4.9375 L 11.21875 4.875 z M 10.53125 5.65625 L 10.09375 6.15625 L 9.8125 5.90625 C 9.3957671 6.2337399 8.9865778 6.5825543 8.59375 6.9375 C 8.956624 7.0364267 9.3885613 7.2139858 9.46875 7.15625 C 9.59775 7.06225 10.09375 6.28125 10.09375 6.28125 L 10.53125 5.65625 z M 19.625 6.40625 L 19.5 6.8125 C 19.949 7.1605 20.125 7.15625 20.125 7.15625 L 20.65625 7.03125 L 21 6.6875 L 20.78125 6.40625 L 19.625 6.40625 z M 10.75 7.1875 C 10.75 7.1875 10.32025 7.4065 9.90625 7.5625 C 9.49225 7.7185 9.59375 8.0625 9.59375 8.0625 L 9.5625 8.90625 L 8.875 9.46875 L 8.4375 10.125 C 8.4375 10.125 8.15625 9.9375 8.15625 9.8125 C 8.15625 9.6875 8.09375 9.3125 8.09375 9.3125 L 7.375 8.75 C 7.375 8.75 7.20009 8.612678 7.03125 8.46875 C 4.9425675 10.749274 3.319388 13.454964 2.28125 16.4375 L 2.8125 16.0625 L 3.375 15.875 L 4.1875 15.875 L 5.3125 15.625 L 5.71875 16.15625 L 5.65625 16.78125 L 6.125 17.1875 L 6.1875 16.71875 C 6.1875 16.71875 6.15675 15.9995 6.09375 15.8125 C 6.03075 15.6245 6.65625 15.1875 6.65625 15.1875 L 7.15625 14.59375 L 7.75 13.875 L 8.03125 13.3125 L 8.96875 12.8125 L 9.59375 12.125 C 9.59375 12.125 10.53175 11.94975 10.71875 11.84375 C 10.90975 11.75375 10.78475 11.40975 10.59375 11.09375 C 10.40275 10.78075 10.6875 10.46875 10.6875 10.46875 L 11.40625 10.0625 L 12.03125 10.15625 L 12.09375 10.9375 C 12.09375 10.9375 12.684 11.473 12.875 11.375 C 13.066 11.285 13.15625 10.96875 13.15625 10.96875 L 12.84375 10.15625 L 13.03125 9.375 L 12.1875 9.46875 L 12.1875 8.09375 L 11.9375 8.375 L 11.28125 8.40625 L 11.1875 7.6875 L 10.75 7.1875 z M 22.40625 8.1875 L 22.15625 8.40625 C 22.09325 8.71125 22 9.03125 22 9.03125 L 22.46875 9.25 L 22.53125 9.53125 L 22.28125 9.78125 L 22.0625 10.15625 L 22.21875 10.3125 L 22.78125 10.21875 L 23.28125 10 L 23 9.625 L 22.90625 8.96875 L 22.5625 8.59375 L 22.40625 8.1875 z M 21.625 9.375 L 21.34375 9.84375 L 21.71875 10 L 21.875 9.71875 L 21.625 9.375 z M 6.1875 10.46875 L 6.84375 10.75 L 7.28125 11.3125 L 7.5625 11.75 C 7.5625 11.75 7.317 12.594 7.25 12.75 C 7.184 12.906 7 12.4375 7 12.4375 L 6.84375 11.625 L 6.3125 11.84375 L 5.90625 12.8125 L 6 12 L 6.125 11.4375 L 5.46875 11.1875 L 6.03125 10.65625 L 6.1875 10.46875 z M 32.5625 11.21875 C 32.6955 11.17575 32.9375 11.375 32.9375 11.375 L 32.6875 11.59375 L 32.78125 11.90625 L 33.0625 12.65625 L 33.34375 13.125 L 33.71875 13.71875 L 33.3125 13.90625 L 32.78125 13.5625 L 32.5625 12.90625 C 32.5625 12.90625 32.265 12.5005 32.125 12.4375 C 31.992 12.3715 31.875 12.15625 31.875 12.15625 L 32 11.625 C 32 11.625 32.4265 11.26575 32.5625 11.21875 z M 24.65625 12.40625 L 24.28125 13.125 L 24.5625 13.40625 L 24.8125 13.1875 L 24.84375 12.875 L 24.65625 12.40625 z M 23.40625 13.15625 L 23.40625 13.34375 L 23.5625 13.3125 L 23.40625 13.15625 z M 25.5625 13.625 L 25.375 13.6875 L 25.6875 14.21875 L 25.96875 14 L 25.5625 13.625 z M 2.125 16.9375 C 1.8595103 17.760699 1.6098023 18.607916 1.4375 19.46875 L 1.90625 19.71875 L 2.40625 19.65625 L 3.125 20 L 4.21875 20.59375 L 4.375 21.3125 L 5.25 22.15625 L 5.75 21.78125 L 6.15625 22.09375 L 6.0625 21.375 L 5.3125 21.5625 L 5.0625 20.65625 L 4.9375 20.25 L 4.25 19.625 L 4.25 19.1875 L 4.78125 18.625 L 4.4375 18.21875 L 3.875 18.3125 L 3.03125 19.15625 L 2.34375 19.0625 C 2.34375 19.0625 2.03075 18.53125 1.96875 18.40625 C 1.90575 18.28125 2.15625 17.84375 2.15625 17.84375 L 2.125 16.9375 z M 5.4375 17.8125 L 5.125 17.96875 L 5.65625 18.25 L 6.25 18.375 L 6.59375 18.84375 L 7 18.59375 L 6.9375 18.3125 L 6.25 17.8125 L 5.4375 17.8125 z M 7.125 20.90625 L 6.3125 21.34375 L 6.21875 22.25 L 6.03125 23.25 L 5.46875 24 L 5.5 25.125 L 5.96875 26.28125 L 6.46875 27.6875 L 7.78125 29 L 7.84375 29.75 L 7.9375 33.125 L 8.40625 35.03125 C 8.40625 35.03125 8.695 36.12975 8.625 36.21875 C 8.559 36.30475 9 37.125 9 37.125 L 9.875 38.5 L 11.09375 39.03125 L 10.59375 38.4375 L 10.34375 37.75 L 10.59375 37.03125 L 9.9375 36.6875 C 9.9375 36.6875 10.3755 36.4025 10.4375 36.3125 C 10.5035 36.2225 10.34375 35.84375 10.34375 35.84375 L 10.15625 35.375 L 10.65625 34.71875 L 11.4375 34.53125 L 11.5625 33.90625 L 11.09375 33.6875 L 11.28125 33.1875 L 12.03125 33.125 L 12.6875 31.5 L 13.15625 30.40625 L 14.125 29.9375 C 14.125 29.9375 14.4375 29.011 14.4375 28.875 C 14.4375 28.746 14.53125 27.34375 14.53125 27.34375 L 15.28125 26.3125 L 15.375 25.625 L 14.8125 25.28125 L 14.34375 24.71875 L 13.5 24.78125 L 12.15625 24 L 11.875 23.34375 C 11.875 23.34375 11.4055 22.5625 11.3125 22.5625 C 11.2225 22.5625 10.65625 22.59375 10.65625 22.59375 L 10.125 22.0625 L 9.78125 21.40625 L 8.4375 21.125 L 8 20.90625 L 7.125 20.90625 z M 43.5625 21.375 C 43.6755 21.504 44.37475 23.59375 44.46875 23.59375 C 44.55475 23.59375 45.09375 23.6875 45.09375 23.6875 L 44.8125 22.84375 L 43.5625 21.375 z M 39.96875 21.46875 L 39.65625 21.875 L 39.8125 22.46875 L 40.15625 22.09375 L 40.09375 21.625 L 39.96875 21.46875 z M 43.46875 22.625 L 43.03125 22.6875 L 45.03125 25.6875 L 45.5625 26.28125 L 46.875 26.34375 C 46.885627 26.239102 46.897031 26.136308 46.90625 26.03125 L 46.8125 25.96875 L 45.5625 25.625 L 45.25 24.46875 L 44.5625 23.90625 L 43.46875 22.625 z M 46.96875 22.8125 L 46.59375 23 C 46.59375 23.09 45.875 23.6875 45.875 23.6875 L 46.0625 24.3125 L 46.46875 24.75 L 46.75 25.46875 L 46.96875 25.34375 C 46.994272 24.899884 47 24.450263 47 24 C 47 23.603031 46.988621 23.204529 46.96875 22.8125 z M 32.96875 27.46875 L 32.96875 27.9375 C 32.94875 28.0005 32.5625 28.3125 32.5625 28.3125 L 32.09375 28.53125 L 31.75 28.8125 L 32 29.15625 L 32.15625 29.3125 L 31.75 29.65625 L 31.75 30.21875 L 31.90625 30.8125 L 32.25 30.90625 L 32.65625 30.28125 L 32.90625 29.875 L 32.84375 29.375 L 33.21875 28.78125 L 33.34375 28.5 L 33.34375 27.9375 L 33.25 27.5 L 32.96875 27.46875 z M 12.5 36.96875 L 12.28125 37.09375 L 12.1875 37.125 L 12.6875 37.375 L 12.5 36.96875 z M 11.65625 37.125 L 11.4375 37.625 L 11.875 37.53125 L 11.65625 37.125 z M 13.15625 41.28125 L 12.6875 41.96875 L 11.8125 42.375 L 12.3125 43 L 11.59375 43.375 C 12.205941 43.767161 12.850027 44.134847 13.5 44.46875 L 13.59375 44.5 L 14.84375 44.90625 L 14.4375 44.90625 C 17.352025 46.241982 20.584075 47 24 47 C 29.541909 47 34.622933 45.04567 38.59375 41.78125 L 38.21875 41.78125 L 35.15625 42.375 C 35.15625 42.375 33.679 43.19525 33.5 43.15625 C 33.32 43.11325 34.125 42.125 34.125 42.125 L 32.6875 42.21875 L 31.78125 41.46875 L 30.875 42.0625 C 30.875 42.0625 29.65575 42.15625 29.34375 42.15625 C 29.02775 42.15625 28.625 42.71875 28.625 42.71875 L 26.15625 42.65625 L 21.90625 42.84375 L 20.78125 43.78125 L 20.5 43.84375 L 17.28125 43.59375 L 15.0625 43.84375 L 14.28125 43.4375 L 14.3125 43.375 C 14.3125 43.375 13.65625 42.055 13.65625 41.875 C 13.65625 41.699 13.15625 41.28125 13.15625 41.28125 z "
     id="path45" />
  <path
     style="fill:#abd6ec;fill-opacity:1;fill-rule:nonzero;stroke:none"
     d="M 17.46875 1.9375 C 16.287172 2.2866295 15.156456 2.7557948 14.0625 3.28125 L 14.40625 4.1875 L 14.5625 4.78125 L 13.9375 5.125 L 13.6875 5.59375 L 13.875 6.65625 L 14.625 6.78125 L 15.34375 6.09375 L 15.96875 5.4375 L 16.9375 5.1875 L 18.15625 4.59375 L 18.875 3.71875 L 19.90625 2.46875 L 20.625 2.28125 L 20.59375 2 L 19.46875 2 L 17.46875 1.9375 z M 25.96875 2.375 C 25.91375 2.395 24.4375 2.40625 24.4375 2.40625 L 24.0625 2.5 L 24.5625 3.09375 L 25.09375 2.59375 L 25.4375 2.8125 L 25.9375 2.5625 C 25.9375 2.5625 26.02775 2.352 25.96875 2.375 z M 31.59375 2.84375 L 31.125 2.90625 L 30.71875 3.15625 L 30.25 3.5 L 29.96875 4 L 30.40625 4.4375 L 30.78125 4.46875 L 30.9375 4.21875 L 30.5625 3.90625 L 30.78125 3.71875 L 30.8125 3.5625 L 31.28125 3.25 C 31.28125 3.25 31.8945 3.258 31.9375 3.25 C 31.9845 3.238 32.125 3.0625 32.125 3.0625 L 31.96875 2.84375 L 31.59375 2.84375 z M 34.71875 3.65625 L 34.1875 3.96875 L 33.65625 4.40625 L 33.71875 4.59375 L 33.46875 4.625 L 33.4375 4.46875 L 33.125 4.03125 L 32.46875 3.96875 C 32.46875 3.96875 32.625 4.63275 32.625 4.71875 C 32.625 4.80075 32.1875 4.75 32.1875 4.75 L 31.4375 4.78125 C 31.4375 4.78125 30.35575 5.03125 30.21875 5.03125 C 30.08975 5.03125 29.45325 5.2935 29.40625 5.3125 L 29.375 5.3125 L 29.34375 5.3125 L 29.28125 5.375 L 28.15625 5.96875 L 27.84375 5.75 L 27.6875 5.5 L 27.75 5.21875 L 28.4375 5.28125 L 28.75 5.15625 L 28.125 4.84375 L 27.25 4.5 L 26.375 4.34375 L 25.4375 4.5625 L 24.46875 5.34375 L 24.03125 5.78125 L 23.375 6.5 L 23.125 6.53125 L 23.03125 6.875 L 23.15625 7.21875 C 23.15625 7.21875 23.2935 7.375 23.3125 7.375 C 23.3325 7.375 23.5625 7.25 23.5625 7.25 C 23.5625 7.25 23.58575 7.13275 23.71875 7.09375 C 23.84775 7.05475 23.96875 7.03125 23.96875 7.03125 L 24.15625 7.40625 L 24.375 7.71875 L 24.46875 7.96875 C 24.46875 7.96875 24.83175 7.74575 24.84375 7.71875 C 24.85575 7.68775 24.875 7.3125 24.875 7.3125 L 25.15625 7.09375 C 25.15625 7.09375 25.22675 6.9605 25.21875 6.9375 C 25.21075 6.9175 25.03125 6.71875 25.03125 6.71875 L 24.875 6.65625 L 24.9375 6.34375 C 24.9375 6.34375 25.0625 6.293 25.0625 6.25 C 25.0625 6.211 25.25 6.0625 25.25 6.0625 L 25.5 5.78125 L 25.65625 5.59375 L 25.875 5.4375 L 26.125 5.625 L 26.125 5.75 L 25.90625 6 L 25.8125 6.25 L 25.8125 6.59375 L 26.03125 6.75 L 26.375 6.71875 L 26.6875 6.65625 L 26.9375 6.8125 L 26.875 7.03125 C 26.875 7.03125 26.688 7.219 26.625 7.25 C 26.57 7.281 26.211 7.18675 26.125 7.21875 C 26.031 7.24975 25.8125 7.5625 25.8125 7.5625 C 25.8125 7.5625 25.7855 7.812 25.8125 7.875 C 25.8185 7.89225 25.820562 7.9295625 25.8125 7.96875 L 25.78125 8 L 25.40625 8.28125 L 25.375 8.28125 L 25.125 8.1875 C 25.125 8.1875 24.97325 8.192 24.90625 8.25 C 24.84325 8.301 24.78575 8.356 24.59375 8.375 C 24.40275 8.395 24.031 8.375 24 8.375 L 23.78125 8.375 L 23.8125 8.15625 L 23.96875 7.90625 L 23.6875 7.6875 C 23.6875 7.6875 23.503 7.91775 23.5 7.96875 C 23.492 8.02375 23.625 8.25 23.625 8.25 C 23.625 8.25 23.56225 8.42975 23.53125 8.46875 C 23.50025 8.50775 23.1875 8.59375 23.1875 8.59375 L 22.78125 8.375 C 22.78125 8.375 22.601 8.3355 22.625 8.4375 C 22.648 8.5395 22.84375 8.63275 22.84375 8.71875 C 22.84375 8.80075 22.71875 9 22.71875 9 L 22.5625 9.1875 L 22.3125 9.4375 L 21.96875 9.53125 C 21.96875 9.53125 21.72625 9.601 21.65625 9.625 C 21.59325 9.648 21.40625 9.6875 21.40625 9.6875 L 21.125 9.71875 L 21 9.9375 L 21.25 10.125 L 21.4375 10.4375 C 21.4375 10.4375 21.56275 10.65625 21.59375 10.65625 C 21.62475 10.65625 21.6875 10.875 21.6875 10.875 L 21.5 11.125 L 21.40625 11.125 L 20.75 11.25 L 20.625 10.96875 L 20.1875 11.40625 L 20 12.125 L 20 12.71875 L 20.75 13.125 L 21.375 12.90625 L 21.96875 11.84375 L 22.5 11.1875 L 23.46875 11.03125 L 23.6875 10.84375 L 24.78125 12.125 L 24.90625 12.5625 L 25.21875 12.40625 L 25.125 12.03125 L 25.3125 12.03125 L 25.1875 11.78125 L 24.125 10.78125 L 24.21875 10.59375 L 24.5625 10.5625 L 25.3125 11.3125 L 25.6875 11.75 L 25.6875 12.4375 L 25.875 12.5625 L 26.25 12.9375 L 26.53125 12.84375 L 26.375 12.28125 L 26.46875 11.9375 L 26.65625 11.71875 L 27.09375 11.875 L 27.25 11.9375 L 27.21875 11.4375 L 27.46875 10.96875 L 27.625 10.28125 L 28.1875 10.375 L 28.28125 10.6875 L 28.5 10.84375 L 28.75 10.625 L 28.59375 10.28125 L 29.25 10.28125 L 29.03125 10.65625 L 29.46875 11.03125 L 29.84375 11.21875 L 30.0625 11.65625 L 29.5625 11.78125 L 28.84375 11.625 L 28.21875 11.625 L 27.625 11.9375 L 27.5 12.125 L 27.0625 12.21875 L 27.25 12.6875 L 27.59375 13.09375 L 28.21875 12.875 L 28.375 13.15625 L 28.65625 12.9375 L 29.03125 13 L 29.0625 13.40625 L 28.9375 14.1875 L 28.59375 14.15625 L 28.1875 14.09375 L 28 14.5625 L 26.625 14.3125 L 26.375 14 L 26.0625 14.28125 L 25.71875 14.75 L 24.84375 14.25 L 23.96875 13.71875 L 23.96875 12.78125 L 23.40625 12.8125 L 23.375 13.125 L 22 13.0625 L 21.5625 13.46875 L 20.71875 13.5 L 20.15625 14 L 19.8125 14.96875 L 18.9375 15.65625 L 18.3125 16.5 L 18.28125 18.125 L 18.09375 18.625 L 18.03125 19.21875 L 18.40625 19.875 L 18.625 20.5 L 19.375 21.40625 L 19.8125 21.78125 L 20.25 21.875 L 20.34375 21.5 L 21.90625 21.5 L 22.3125 21.3125 L 22.8125 21.375 L 22.96875 21.6875 L 23.5 21.71875 L 23.84375 21.96875 L 23.84375 22.5 L 23.71875 22.9375 L 23.59375 23.28125 L 23.90625 23.84375 L 24.3125 24.3125 L 24.5 25.5 L 24.53125 26.28125 L 24.25 26.9375 L 24.21875 27.5625 L 24.4375 28.71875 L 24.625 28.90625 L 24.90625 30 L 24.9375 30.46875 L 25.5 31.21875 L 25.5625 31.8125 L 25.65625 32.5 L 26 32.15625 L 26.875 32.0625 L 27.40625 32.0625 L 28.375 30.5625 L 28.4375 29.96875 L 29.09375 29.3125 L 29.125 28.5625 L 29.46875 27.8125 L 30.28125 27.03125 L 30.28125 26.15625 L 30.09375 25.34375 L 29.96875 24.21875 L 30.5625 23.28125 L 31.625 21.96875 L 32.03125 21.5625 L 32.1875 21.03125 L 32.4375 20.5625 L 32.5 19.875 L 31.90625 19.875 L 31.625 20.15625 L 31.0625 20 L 30.71875 19.4375 L 30.4375 18.875 L 29.78125 18.375 L 29.625 17.5625 L 29.34375 17.09375 L 29.03125 16.5 L 28.625 15.78125 L 28.53125 15.3125 L 28.96875 15.25 L 29.21875 15.78125 L 29.71875 16.71875 L 30.09375 17.40625 L 30.5 18.15625 L 30.9375 18.875 L 31.53125 19.46875 L 32.0625 18.96875 L 32.6875 18.8125 L 33.125 18.28125 L 33.71875 17.9375 L 34.0625 17.34375 L 34.09375 16.84375 L 33.8125 16.53125 L 33.4375 16.09375 L 33.1875 16.25 L 33.03125 16.5 L 32.625 16.3125 L 32.5 16 L 32.21875 15.59375 L 31.78125 15.1875 L 31.78125 14.375 L 32.0625 14.90625 L 32.40625 15.4375 L 33 15.78125 L 33.40625 15.6875 L 33.65625 15.96875 L 35.4375 15.9375 L 35.40625 15.96875 L 35.96875 16.46875 L 36.375 17.03125 L 36.5 17.3125 L 36.78125 17.3125 L 36.875 17 L 36.96875 17.46875 L 37.125 18.3125 L 37.46875 19.125 L 37.65625 19.8125 L 37.9375 20.46875 L 38.15625 20.75 L 38.46875 20.5625 L 38.5625 20.25 L 38.6875 19.46875 L 38.65625 18.78125 L 38.90625 18.46875 C 38.90625 18.46875 39.17175 18.10975 39.21875 18.09375 C 39.26975 18.08175 39.84375 17.4375 39.84375 17.4375 L 40.125 17.09375 L 40.4375 16.90625 L 40.8125 16.6875 L 40.96875 16.6875 L 41.03125 17.03125 L 41.1875 17.4375 L 41.6875 18.0625 L 41.6875 18.3125 L 41.78125 18.59375 L 42.125 18.4375 L 42.09375 18.0625 L 42.40625 18.15625 L 42.46875 18.5 L 42.4375 19.03125 L 42.53125 19.40625 L 42.8125 19.46875 L 42.90625 19.15625 L 43.25 19.375 L 43.3125 19.6875 L 43.625 20.15625 L 43.9375 20.5 L 44.15625 20.6875 L 44.6875 20.21875 L 44.90625 19.78125 L 44.8125 19.28125 L 44.71875 18.625 L 44.125 18.0625 L 44.03125 17.5 L 44.28125 17.09375 C 44.28125 17.09375 44.44075 16.7735 44.59375 16.9375 C 44.74575 17.1055 44.821 17.1255 44.75 17.3125 C 44.684 17.4965 44.5625 17.90625 44.5625 17.90625 L 44.9375 18.0625 L 45.09375 17.53125 L 44.9375 17.15625 L 45.3125 17 L 45.8125 16.75 C 43.930843 11.084422 39.9262 6.4037579 34.71875 3.65625 z M 11.71875 4.5625 C 11.120877 4.9404196 10.558931 5.3201713 10 5.75 L 10.09375 5.8125 L 10.625 6.28125 L 11.15625 6.40625 L 11.34375 5.6875 L 11.375 5.21875 L 12 5.3125 C 12 5.3125 11.81325 5.65625 11.90625 5.65625 C 12.00825 5.65625 12.375 5.25 12.375 5.25 L 11.71875 4.5625 z M 18.625 5.40625 L 18.5 5.8125 C 18.949 6.1605 19.125 6.15625 19.125 6.15625 L 19.65625 6.03125 L 20 5.6875 L 19.78125 5.40625 L 18.625 5.40625 z M 9.75 6.1875 C 9.75 6.1875 9.4350404 6.3201053 9.09375 6.46875 C 8.9257598 6.6117747 8.7575224 6.7585302 8.59375 6.90625 C 8.5842593 6.9809317 8.59375 7.0625 8.59375 7.0625 L 8.5625 7.90625 L 7.875 8.46875 L 7.4375 9.125 C 7.4375 9.125 7.15625 8.9375 7.15625 8.8125 C 7.15625 8.7105769 7.1099519 8.4941703 7.09375 8.40625 C 6.6795095 8.8550863 6.2840901 9.3316961 5.90625 9.8125 L 6.28125 10.3125 L 6.5625 10.75 C 6.5625 10.75 6.317 11.594 6.25 11.75 C 6.184 11.906 6 11.4375 6 11.4375 L 5.84375 10.625 L 5.3125 10.84375 L 4.90625 11.8125 L 5 11.03125 C 4.1840665 12.226008 3.4882497 13.532967 2.90625 14.875 L 3.1875 14.875 L 4.3125 14.625 L 4.71875 15.15625 L 4.65625 15.78125 L 5.125 16.1875 L 5.1875 15.71875 C 5.1875 15.71875 5.15675 14.9995 5.09375 14.8125 C 5.03075 14.6245 5.65625 14.1875 5.65625 14.1875 L 6.15625 13.59375 L 6.75 12.875 L 7.03125 12.3125 L 7.96875 11.8125 L 8.59375 11.125 C 8.59375 11.125 9.53175 10.94975 9.71875 10.84375 C 9.90975 10.75375 9.78475 10.40975 9.59375 10.09375 C 9.40275 9.78075 9.6875 9.46875 9.6875 9.46875 L 10.40625 9.0625 L 11.03125 9.15625 L 11.09375 9.9375 C 11.09375 9.9375 11.684 10.473 11.875 10.375 C 12.066 10.285 12.15625 9.96875 12.15625 9.96875 L 11.84375 9.15625 L 12.03125 8.375 L 11.1875 8.46875 L 11.1875 7.09375 L 10.9375 7.375 L 10.28125 7.40625 L 10.1875 6.6875 L 9.75 6.1875 z M 21.40625 7.1875 L 21.15625 7.40625 C 21.09325 7.71125 21 8.03125 21 8.03125 L 21.46875 8.25 L 21.53125 8.53125 L 21.28125 8.78125 L 21.0625 9.15625 L 21.21875 9.3125 L 21.78125 9.21875 L 22.28125 9 L 22 8.625 L 21.90625 7.96875 L 21.5625 7.59375 L 21.40625 7.1875 z M 20.625 8.375 L 20.34375 8.84375 L 20.71875 9 L 20.875 8.71875 L 20.625 8.375 z M 31.5625 10.21875 C 31.6955 10.17575 31.9375 10.375 31.9375 10.375 L 31.6875 10.59375 L 31.78125 10.90625 L 32.0625 11.65625 L 32.34375 12.125 L 32.71875 12.71875 L 32.3125 12.90625 L 31.78125 12.5625 L 31.5625 11.90625 C 31.5625 11.90625 31.265 11.5005 31.125 11.4375 C 30.992 11.3715 30.875 11.15625 30.875 11.15625 L 31 10.625 C 31 10.625 31.4265 10.26575 31.5625 10.21875 z M 23.65625 11.40625 L 23.28125 12.125 L 23.5625 12.40625 L 23.8125 12.1875 L 23.84375 11.875 L 23.65625 11.40625 z M 22.40625 12.15625 L 22.40625 12.34375 L 22.5625 12.3125 L 22.40625 12.15625 z M 24.5625 12.625 L 24.375 12.6875 L 24.6875 13.21875 L 24.96875 13 L 24.5625 12.625 z M 4.4375 16.8125 L 4.125 16.96875 L 4.65625 17.25 L 5.25 17.375 L 5.59375 17.84375 L 6 17.59375 L 5.9375 17.3125 L 5.25 16.8125 L 4.4375 16.8125 z M 3.4375 17.21875 L 2.875 17.3125 L 2.03125 18.15625 L 1.75 18.125 C 1.6959134 18.330419 1.6422544 18.542376 1.59375 18.75 L 2.125 19 L 3.21875 19.59375 L 3.375 20.3125 L 4.25 21.15625 L 4.75 20.78125 L 5.15625 21.09375 L 5.0625 20.375 L 4.3125 20.5625 L 4.0625 19.65625 L 3.9375 19.25 L 3.25 18.625 L 3.25 18.1875 L 3.78125 17.625 L 3.4375 17.21875 z M 6.125 19.90625 L 5.3125 20.34375 L 5.21875 21.25 L 5.03125 22.25 L 4.46875 23 L 4.5 24.125 L 4.96875 25.28125 L 5.46875 26.6875 L 6.78125 28 L 6.84375 28.75 L 6.9375 32.125 L 7.40625 34.03125 C 7.40625 34.03125 7.695 35.12975 7.625 35.21875 C 7.559 35.30475 8 36.125 8 36.125 L 8.875 37.5 L 10.09375 38.03125 L 9.59375 37.4375 L 9.34375 36.75 L 9.59375 36.03125 L 8.9375 35.6875 C 8.9375 35.6875 9.3755 35.4025 9.4375 35.3125 C 9.5035 35.2225 9.34375 34.84375 9.34375 34.84375 L 9.15625 34.375 L 9.65625 33.71875 L 10.4375 33.53125 L 10.5625 32.90625 L 10.09375 32.6875 L 10.28125 32.1875 L 11.03125 32.125 L 11.6875 30.5 L 12.15625 29.40625 L 13.125 28.9375 C 13.125 28.9375 13.4375 28.011 13.4375 27.875 C 13.4375 27.746 13.53125 26.34375 13.53125 26.34375 L 14.28125 25.3125 L 14.375 24.625 L 13.8125 24.28125 L 13.34375 23.71875 L 12.5 23.78125 L 11.15625 23 L 10.875 22.34375 C 10.875 22.34375 10.4055 21.5625 10.3125 21.5625 C 10.2225 21.5625 9.65625 21.59375 9.65625 21.59375 L 9.125 21.0625 L 8.78125 20.40625 L 7.4375 20.125 L 7 19.90625 L 6.125 19.90625 z M 42.5625 20.375 C 42.6755 20.504 43.37475 22.59375 43.46875 22.59375 C 43.55475 22.59375 44.09375 22.6875 44.09375 22.6875 L 43.8125 21.84375 L 42.5625 20.375 z M 38.96875 20.46875 L 38.65625 20.875 L 38.8125 21.46875 L 39.15625 21.09375 L 39.09375 20.625 L 38.96875 20.46875 z M 46.84375 21.3125 L 45.59375 22 C 45.59375 22.09 44.875 22.6875 44.875 22.6875 L 45.0625 23.3125 L 45.46875 23.75 L 45.75 24.46875 L 47 23.65625 C 46.988362 22.862113 46.933927 22.085189 46.84375 21.3125 z M 42.46875 21.625 L 42.03125 21.6875 L 44.03125 24.6875 L 44.5625 25.28125 L 45.875 25.34375 L 46.6875 25.59375 L 45.8125 24.96875 L 44.5625 24.625 L 44.25 23.46875 L 43.5625 22.90625 L 42.46875 21.625 z M 31.96875 26.46875 L 31.96875 26.9375 C 31.94875 27.0005 31.5625 27.3125 31.5625 27.3125 L 31.09375 27.53125 L 30.75 27.8125 L 31 28.15625 L 31.15625 28.3125 L 30.75 28.65625 L 30.75 29.21875 L 30.90625 29.8125 L 31.25 29.90625 L 31.65625 29.28125 L 31.90625 28.875 L 31.84375 28.375 L 32.21875 27.78125 L 32.34375 27.5 L 32.34375 26.9375 L 32.25 26.5 L 31.96875 26.46875 z M 46.5625 28.4375 C 46.455391 28.465531 46.38175 28.50875 46.375 28.53125 C 46.355 28.61725 45.8125 28.90625 45.8125 28.90625 C 45.6995 28.90625 45.34375 29.5625 45.34375 29.5625 L 45.28125 31.625 L 45.15625 32.375 L 45.3125 32.59375 C 45.849868 31.263617 46.28029 29.877542 46.5625 28.4375 z M 11.5 35.96875 L 11.28125 36.09375 L 11.1875 36.125 L 11.6875 36.375 L 11.5 35.96875 z M 10.65625 36.125 L 10.4375 36.625 L 10.875 36.53125 L 10.65625 36.125 z M 12.15625 40.28125 L 11.6875 40.96875 L 10.8125 41.375 L 11.3125 42 L 10.5625 42.375 L 10.15625 42.34375 C 10.719116 42.76968 11.273411 43.15761 11.875 43.53125 L 12.5 43.46875 L 13.84375 43.90625 L 12.5 43.90625 C 15.882254 45.861984 19.811902 47 24 47 C 30.129198 47 35.689954 44.595524 39.8125 40.6875 L 37.21875 40.78125 L 34.15625 41.375 C 34.15625 41.375 32.679 42.19525 32.5 42.15625 C 32.32 42.11325 33.125 41.125 33.125 41.125 L 31.6875 41.21875 L 30.78125 40.46875 L 29.875 41.0625 C 29.875 41.0625 28.65575 41.15625 28.34375 41.15625 C 28.02775 41.15625 27.625 41.71875 27.625 41.71875 L 25.15625 41.65625 L 20.90625 41.84375 L 19.78125 42.78125 L 19.5 42.84375 L 16.28125 42.59375 L 14.0625 42.84375 L 13.28125 42.4375 L 13.3125 42.375 C 13.3125 42.375 12.65625 41.055 12.65625 40.875 C 12.65625 40.699 12.15625 40.28125 12.15625 40.28125 z "
     id="path53" />
</svg>
