
<svg xmlns="http://www.w3.org/2000/svg" xmlns:xlink="http://www.w3.org/1999/xlink" width="48px" height="48px" viewBox="0 0 48 48" version="1.1">
<defs>
<linearGradient id="linear0" gradientUnits="userSpaceOnUse" x1="1" y1="0" x2="47" y2="0" gradientTransform="matrix(0,-1,1,0,0.00221467,48.000001)">
<stop offset="0" style="stop-color:rgb(11.764706%,58.039216%,79.215686%);stop-opacity:1;"/>
<stop offset="1" style="stop-color:rgb(12.54902%,62.745098%,85.882353%);stop-opacity:1;"/>
</linearGradient>
</defs>
<g id="surface1">
<path style=" stroke:none;fill-rule:nonzero;fill:rgb(0%,0%,0%);fill-opacity:0.0196078;" d="M 1 43 L 1 43.25 C 1 45.464844 2.785156 47.25 5 47.25 L 43 47.25 C 45.214844 47.25 47 45.464844 47 43.25 L 47 43 C 47 45.214844 45.214844 47 43 47 L 5 47 C 2.785156 47 1 45.214844 1 43 Z M 1 43.5 L 1 44 C 1 46.214844 2.785156 48 5 48 L 43 48 C 45.214844 48 47 46.214844 47 44 L 47 43.5 C 47 45.714844 45.214844 47.5 43 47.5 L 5 47.5 C 2.785156 47.5 1 45.714844 1 43.5 Z M 1 43.5 "/>
<path style=" stroke:none;fill-rule:nonzero;fill:rgb(0%,0%,0%);fill-opacity:0.0509804;" d="M 1 43.25 L 1 43.5 C 1 45.714844 2.785156 47.5 5 47.5 L 43 47.5 C 45.214844 47.5 47 45.714844 47 43.5 L 47 43.25 C 47 45.464844 45.214844 47.25 43 47.25 L 5 47.25 C 2.785156 47.25 1 45.464844 1 43.25 Z M 1 43.25 "/>
<path style=" stroke:none;fill-rule:nonzero;fill:rgb(0%,0%,0%);fill-opacity:0.101961;" d="M 1 43 L 1 43.25 C 1 45.464844 2.785156 47.25 5 47.25 L 43 47.25 C 45.214844 47.25 47 45.464844 47 43.25 L 47 43 C 47 45.214844 45.214844 47 43 47 L 5 47 C 2.785156 47 1 45.214844 1 43 Z M 1 43 "/>
<path style=" stroke:none;fill-rule:nonzero;fill:url(#linear0);" d="M 1 43 L 1 5 C 1 2.789062 2.789062 1 5 1 L 43 1 C 45.210938 1 47 2.789062 47 5 L 47 43 C 47 45.210938 45.210938 47 43 47 L 5 47 C 2.789062 47 1 45.210938 1 43 Z M 1 43 "/>
<path style=" stroke:none;fill-rule:nonzero;fill:rgb(0%,0%,0%);fill-opacity:0.101961;" d="M 16 1.90625 L 15.15625 2.15625 L 14.1875 2.21875 L 13.59375 2.65625 L 12.8125 2.625 L 12.875 3.125 L 14 3.09375 L 14.40625 4.1875 L 14.5625 4.78125 L 13.9375 5.125 L 13.6875 5.59375 L 13.875 6.65625 L 14.625 6.78125 L 15.34375 6.09375 L 15.96875 5.4375 L 16.9375 5.1875 L 18.15625 4.59375 L 18.875 3.71875 L 19.90625 2.46875 L 20.625 2.28125 L 20.59375 2 L 19.46875 2 Z M 13.78125 1.96875 L 12.96875 2 L 11.5625 2.375 L 10.75 2.625 L 9.8125 2.25 L 9.6875 2.8125 L 10.8125 3.46875 C 10.8125 3.46875 12.855469 2.34375 12.96875 2.34375 Z M 34.84375 2.1875 L 34.65625 2.5 L 35.8125 2.65625 L 35.875 2.375 Z M 25.96875 2.375 C 25.914062 2.394531 24.4375 2.40625 24.4375 2.40625 L 24.0625 2.5 L 24.5625 3.09375 L 25.09375 2.59375 L 25.4375 2.8125 L 25.9375 2.5625 C 25.9375 2.5625 26.027344 2.351562 25.96875 2.375 Z M 31.59375 2.84375 L 31.125 2.90625 L 30.71875 3.15625 L 30.25 3.5 L 29.96875 4 L 30.40625 4.4375 L 30.78125 4.46875 L 30.9375 4.21875 L 30.5625 3.90625 L 30.78125 3.71875 L 30.8125 3.5625 L 31.28125 3.25 C 31.28125 3.25 31.894531 3.257812 31.9375 3.25 C 31.984375 3.238281 32.125 3.0625 32.125 3.0625 L 31.96875 2.84375 Z M 5.71875 3.03125 L 5.625 3.34375 L 6.09375 3.5 L 6.625 3.25 Z M 37.59375 3.09375 L 37.5 3.125 L 35.375 3.21875 L 34.8125 3.59375 L 34.1875 3.96875 L 33.65625 4.40625 L 33.71875 4.59375 L 33.4375 4.625 L 31.1875 5 L 33.5 4.59375 L 33.5 4.4375 L 33.15625 4 L 32.53125 3.9375 C 32.53125 3.9375 32.65625 4.601562 32.65625 4.6875 C 32.65625 4.769531 32.21875 4.71875 32.21875 4.71875 L 31.46875 4.75 C 31.46875 4.75 30.390625 5 30.25 5 C 30.117188 5 29.488281 5.273438 29.4375 5.28125 L 29.40625 5.3125 L 29.34375 5.3125 L 29.25 5.375 L 28.21875 5.9375 L 27.90625 5.71875 L 27.75 5.46875 L 27.8125 5.21875 L 28.5 5.25 L 28.8125 5.125 L 28.1875 4.8125 L 27.3125 4.5 L 26.4375 4.34375 L 25.5 4.53125 L 24.53125 5.3125 L 24.09375 5.75 L 23.4375 6.46875 L 23.1875 6.5 L 23.09375 6.84375 L 23.21875 7.1875 C 23.21875 7.1875 23.359375 7.34375 23.375 7.34375 C 23.398438 7.34375 23.625 7.21875 23.625 7.21875 C 23.625 7.21875 23.652344 7.101562 23.78125 7.0625 C 23.914062 7.023438 24.03125 7 24.03125 7 L 24.21875 7.375 L 24.4375 7.6875 L 24.53125 7.9375 C 24.53125 7.9375 24.890625 7.714844 24.90625 7.6875 C 24.921875 7.65625 24.9375 7.28125 24.9375 7.28125 L 25.21875 7.09375 C 25.21875 7.09375 25.289062 6.960938 25.28125 6.9375 C 25.269531 6.914062 25.09375 6.71875 25.09375 6.71875 L 24.9375 6.65625 L 25 6.34375 C 25 6.34375 25.125 6.257812 25.125 6.21875 C 25.125 6.183594 25.3125 6.03125 25.3125 6.03125 L 25.5625 5.78125 L 25.6875 5.5625 L 25.9375 5.4375 L 26.1875 5.625 L 26.1875 5.75 L 25.9375 6 L 25.875 6.25 L 25.875 6.59375 L 26.0625 6.75 L 26.4375 6.71875 L 26.75 6.65625 L 27 6.8125 L 26.9375 7.03125 C 26.9375 7.03125 26.765625 7.21875 26.6875 7.25 C 26.628906 7.277344 26.277344 7.183594 26.1875 7.21875 C 26.085938 7.25 25.875 7.53125 25.875 7.53125 C 25.875 7.53125 25.851562 7.78125 25.875 7.84375 C 25.882812 7.867188 25.859375 7.910156 25.84375 7.96875 L 25.78125 8 L 25.40625 8.28125 L 25.375 8.28125 L 25.125 8.1875 C 25.125 8.1875 24.972656 8.191406 24.90625 8.25 C 24.84375 8.300781 24.785156 8.355469 24.59375 8.375 C 24.402344 8.394531 24.03125 8.375 24 8.375 L 23.78125 8.375 L 23.8125 8.15625 L 23.96875 7.90625 L 23.6875 7.6875 C 23.6875 7.6875 23.5 7.917969 23.5 7.96875 C 23.492188 8.023438 23.625 8.25 23.625 8.25 C 23.625 8.25 23.5625 8.429688 23.53125 8.46875 C 23.5 8.507812 23.1875 8.59375 23.1875 8.59375 L 22.78125 8.375 C 22.78125 8.375 22.601562 8.335938 22.625 8.4375 C 22.648438 8.539062 22.84375 8.632812 22.84375 8.71875 C 22.84375 8.800781 22.71875 9 22.71875 9 L 22.5625 9.1875 L 22.3125 9.4375 L 21.96875 9.53125 C 21.96875 9.53125 21.726562 9.601562 21.65625 9.625 C 21.59375 9.648438 21.40625 9.6875 21.40625 9.6875 L 21.125 9.71875 L 21 9.9375 L 21.25 10.125 L 21.4375 10.4375 C 21.4375 10.4375 21.5625 10.65625 21.59375 10.65625 C 21.625 10.65625 21.6875 10.875 21.6875 10.875 L 21.5 11.125 L 21.40625 11.125 L 20.75 11.25 L 20.625 10.96875 L 20.1875 11.40625 L 20 12.125 L 20 12.71875 L 20.75 13.125 L 21.375 12.90625 L 21.96875 11.84375 L 22.5 11.1875 L 23.46875 11.03125 L 23.6875 10.84375 L 24.78125 12.125 L 24.90625 12.5625 L 25.21875 12.40625 L 25.125 12.03125 L 25.3125 12.03125 L 25.1875 11.78125 L 24.125 10.78125 L 24.21875 10.59375 L 24.5625 10.5625 L 25.3125 11.3125 L 25.6875 11.75 L 25.6875 12.4375 L 25.875 12.5625 L 26.25 12.9375 L 26.53125 12.84375 L 26.375 12.28125 L 26.46875 11.9375 L 26.65625 11.71875 L 27.09375 11.875 L 27.25 11.9375 L 27.21875 11.4375 L 27.46875 10.96875 L 27.625 10.28125 L 28.1875 10.375 L 28.28125 10.6875 L 28.5 10.84375 L 28.75 10.625 L 28.59375 10.28125 L 29.25 10.28125 L 29.03125 10.65625 L 29.46875 11.03125 L 29.84375 11.21875 L 30.0625 11.65625 L 29.5625 11.78125 L 28.84375 11.625 L 28.21875 11.625 L 27.625 11.9375 L 27.5 12.15625 L 27.0625 12.25 L 27.25 12.71875 L 27.59375 13.125 L 28.21875 12.90625 L 28.375 13.15625 L 28.65625 12.9375 L 29.03125 13 L 29.0625 13.40625 L 28.9375 14.1875 L 28.59375 14.15625 L 28.1875 14.09375 L 28 14.5625 L 26.625 14.3125 L 26.375 14 L 26.0625 14.28125 L 25.71875 14.75 L 24.84375 14.25 L 23.96875 13.71875 L 23.96875 12.78125 L 23.40625 12.8125 L 23.375 13.125 L 22 13.0625 L 21.5625 13.46875 L 20.71875 13.5 L 20.15625 14 L 19.8125 14.96875 L 18.9375 15.65625 L 18.3125 16.5 L 18.28125 18.125 L 18.09375 18.625 L 18.03125 19.21875 L 18.40625 19.875 L 18.625 20.5 L 19.375 21.40625 L 19.8125 21.78125 L 20.25 21.875 L 20.34375 21.5 L 21.90625 21.5 L 22.3125 21.3125 L 22.8125 21.375 L 22.96875 21.6875 L 23.5 21.71875 L 23.84375 21.96875 L 23.84375 22.5 L 23.71875 22.9375 L 23.59375 23.28125 L 23.90625 23.84375 L 24.3125 24.3125 L 24.5 25.5 L 24.53125 26.28125 L 24.25 26.9375 L 24.21875 27.5625 L 24.4375 28.71875 L 24.625 28.90625 L 24.90625 30 L 24.9375 30.46875 L 25.5 31.21875 L 25.5625 31.8125 L 25.65625 32.5 L 26 32.15625 L 26.875 32.0625 L 27.40625 32.0625 L 28.375 30.5625 L 28.4375 29.96875 L 29.09375 29.3125 L 29.125 28.5625 L 29.46875 27.8125 L 30.28125 27.03125 L 30.28125 26.15625 L 30.09375 25.34375 L 29.96875 24.21875 L 30.5625 23.28125 L 31.625 21.96875 L 32.03125 21.5625 L 32.1875 21.03125 L 32.4375 20.5625 L 32.5 19.875 L 31.90625 19.875 L 31.625 20.15625 L 31.0625 20 L 30.71875 19.4375 L 30.4375 18.875 L 29.78125 18.375 L 29.625 17.5625 L 29.34375 17.09375 L 29.03125 16.5 L 28.625 15.78125 L 28.53125 15.3125 L 28.96875 15.21875 L 29.21875 15.75 L 29.71875 16.6875 L 30.09375 17.40625 L 30.5 18.15625 L 30.9375 18.875 L 31.53125 19.46875 L 32.0625 18.96875 L 32.6875 18.8125 L 33.125 18.28125 L 33.71875 17.9375 L 34.0625 17.34375 L 34.09375 16.84375 L 33.8125 16.53125 L 33.4375 16.09375 L 33.1875 16.25 L 33.03125 16.5 L 32.625 16.3125 L 32.5 16 L 32.21875 15.59375 L 31.78125 15.1875 L 31.78125 14.375 L 32.0625 14.90625 L 32.40625 15.4375 L 33 15.78125 L 33.40625 15.6875 L 33.65625 15.96875 L 35.4375 15.9375 L 35.40625 15.96875 L 35.96875 16.46875 L 36.375 17.03125 L 36.5 17.3125 L 36.78125 17.3125 L 36.875 17 L 36.96875 17.46875 L 37.125 18.3125 L 37.46875 19.125 L 37.65625 19.8125 L 37.9375 20.46875 L 38.15625 20.71875 L 38.46875 20.53125 L 38.5625 20.21875 L 38.6875 19.46875 L 38.65625 18.78125 L 38.90625 18.4375 C 38.90625 18.4375 39.175781 18.082031 39.21875 18.0625 C 39.269531 18.050781 39.84375 17.4375 39.84375 17.4375 L 40.125 17.0625 L 40.4375 16.875 L 40.8125 16.65625 L 40.96875 16.65625 L 41.03125 17 L 41.1875 17.40625 L 41.6875 18.0625 L 41.6875 18.3125 L 41.78125 18.59375 L 42.125 18.4375 L 42.09375 18.0625 L 42.4375 18.125 L 42.5 18.46875 L 42.46875 19 L 42.5625 19.375 L 42.84375 19.4375 L 42.9375 19.125 L 43.28125 19.34375 L 43.34375 19.65625 L 43.65625 20.125 L 43.96875 20.46875 L 44.1875 20.65625 L 44.71875 20.1875 L 44.9375 19.75 L 44.84375 19.25 L 44.75 18.59375 L 44.15625 18.03125 L 44.0625 17.46875 L 44.3125 17.0625 C 44.3125 17.0625 44.460938 16.773438 44.625 16.9375 C 44.769531 17.105469 44.855469 17.125 44.78125 17.3125 C 44.71875 17.496094 44.59375 17.90625 44.59375 17.90625 L 44.96875 18.0625 L 45.125 17.53125 L 44.96875 17.15625 L 45.34375 17 L 46.03125 16.65625 L 46.46875 16.125 L 46.8125 15.3125 L 46.8125 14.6875 L 46.4375 13.9375 L 45.75 13.125 L 45.3125 12.71875 L 45.09375 12.09375 L 45.5 12 C 45.5 12 45.730469 11.605469 45.9375 11.8125 C 46.140625 12.03125 46.4375 12.3125 46.4375 12.3125 C 46.4375 12.3125 46.792969 12.878906 46.84375 12.9375 C 46.859375 12.957031 46.9375 13.035156 47 13.09375 L 47 8.3125 C 46.808594 8.226562 46.3125 7.875 46.3125 7.875 L 46.375 7.375 L 46.625 6.9375 L 47 6.90625 L 47 5.0625 L 46.375 4.25 L 44.71875 4.0625 L 43.4375 3.75 C 43.4375 3.75 43.050781 4.046875 42.84375 4.0625 C 42.640625 4.085938 41.9375 4.1875 41.9375 4.1875 L 41.21875 3.75 L 39.71875 3.625 L 39.65625 3.59375 L 38.375 3.53125 Z M 4.375 3.46875 L 3.875 4.03125 L 4.3125 4.25 L 4.875 4 L 4.90625 4.625 L 5.375 4.9375 L 5.875 4.46875 L 6.5625 4.59375 L 6.84375 3.9375 L 5.71875 3.84375 Z M 7.5 3.5625 L 7.9375 4.65625 L 7.40625 4.71875 L 7 5.21875 L 6.09375 4.9375 L 5.28125 5.28125 L 4.5 5.0625 L 3.59375 4.5 L 2.34375 4.53125 L 1.25 5 L 1 4.875 C 1 4.917969 1 4.957031 1 5 L 1 17.25 C 1.042969 17.074219 1.1875 16.84375 1.1875 16.84375 L 1.125 15.5625 L 1.84375 15.0625 L 2.40625 14.875 L 3.21875 14.875 L 4.34375 14.625 L 4.75 15.15625 L 4.6875 15.78125 L 5.15625 16.1875 L 5.21875 15.75 C 5.21875 15.75 5.195312 15.03125 5.125 14.84375 C 5.058594 14.65625 5.6875 14.21875 5.6875 14.21875 L 6.1875 13.59375 L 6.78125 12.875 L 7.0625 12.3125 L 8 11.8125 L 8.625 11.125 C 8.625 11.125 9.5625 10.984375 9.75 10.875 C 9.9375 10.785156 9.8125 10.441406 9.625 10.125 C 9.433594 9.8125 9.71875 9.5 9.71875 9.5 L 10.4375 9.0625 L 11.0625 9.1875 L 11.125 9.9375 C 11.125 9.9375 11.722656 10.503906 11.90625 10.40625 C 12.097656 10.316406 12.1875 10 12.1875 10 L 11.875 9.1875 L 12.0625 8.375 L 11.21875 8.5 L 11.21875 7.125 L 10.96875 7.375 L 10.3125 7.40625 L 10.21875 6.71875 L 9.78125 6.1875 C 9.78125 6.1875 9.351562 6.449219 8.9375 6.59375 C 8.527344 6.75 8.59375 7.0625 8.59375 7.0625 L 8.59375 7.90625 L 7.90625 8.46875 L 7.46875 9.125 C 7.46875 9.125 7.1875 8.9375 7.1875 8.8125 C 7.1875 8.6875 7.125 8.3125 7.125 8.3125 L 6.40625 7.75 C 6.40625 7.75 5.84375 7.34375 5.8125 7.21875 C 5.78125 7.09375 6.15625 6.53125 6.15625 6.53125 C 6.15625 6.53125 6.972656 6.03125 7.15625 5.875 C 7.347656 5.71875 8.375 6.246094 8.5 6.15625 C 8.628906 6.0625 9.125 5.28125 9.125 5.28125 L 9.5625 4.65625 L 9.125 5.15625 L 8.375 4.4375 L 8.5 3.71875 Z M 9.96875 3.625 L 9.71875 4.21875 L 9.875 4.5625 L 10.4375 4.5 L 10.6875 4.96875 L 10.1875 5.5 L 9.625 5.5625 L 10.125 5.8125 L 10.65625 6.28125 L 11.1875 6.40625 L 11.375 5.6875 L 11.40625 5.21875 L 12.03125 5.3125 C 12.03125 5.3125 11.820312 5.65625 11.90625 5.65625 C 12.007812 5.65625 12.40625 5.25 12.40625 5.25 L 11.34375 4.125 C 11.34375 4.125 10.875 3.773438 10.75 3.875 C 10.617188 3.964844 10.28125 3.9375 10.28125 3.9375 Z M 18.625 5.40625 L 18.5 5.8125 C 18.9375 6.160156 19.125 6.15625 19.125 6.15625 L 19.65625 6.03125 L 20 5.6875 L 19.78125 5.40625 Z M 21.40625 7.1875 L 21.15625 7.40625 C 21.09375 7.710938 21 8.03125 21 8.03125 L 21.46875 8.25 L 21.53125 8.53125 L 21.28125 8.78125 L 21.0625 9.15625 L 21.21875 9.3125 L 21.78125 9.21875 L 22.28125 8.96875 L 22 8.59375 L 21.90625 7.96875 L 21.5625 7.59375 Z M 20.59375 8.34375 L 20.34375 8.8125 L 20.71875 8.96875 L 20.84375 8.6875 Z M 5.15625 9.46875 L 5.8125 9.71875 L 6.25 10.3125 L 6.53125 10.71875 C 6.53125 10.71875 6.285156 11.5625 6.21875 11.71875 C 6.152344 11.875 5.9375 11.40625 5.9375 11.40625 L 5.78125 10.59375 L 5.28125 10.84375 L 4.875 11.8125 L 4.96875 10.96875 L 5.09375 10.40625 L 4.4375 10.15625 L 5 9.625 Z M 31.53125 10.21875 C 31.664062 10.15625 31.90625 10.375 31.90625 10.375 L 31.65625 10.59375 L 31.75 10.90625 L 32.03125 11.65625 L 32.6875 12.75 L 32.28125 12.9375 L 31.75 12.59375 L 31.53125 11.9375 C 31.53125 11.9375 31.21875 11.539062 31.09375 11.46875 C 30.960938 11.40625 30.84375 11.1875 30.84375 11.1875 L 30.96875 10.65625 C 30.96875 10.65625 31.40625 10.300781 31.53125 10.25 Z M 23.65625 11.4375 L 23.28125 12.15625 L 23.5625 12.4375 L 23.8125 12.21875 L 23.84375 11.90625 Z M 22.40625 12.1875 L 22.40625 12.375 L 22.5625 12.34375 Z M 24.5625 12.65625 L 24.34375 12.71875 L 24.6875 13.25 L 24.9375 13.03125 Z M 4.40625 16.8125 L 4.4375 16.84375 L 4.09375 17 L 4.625 17.28125 L 5.21875 17.375 L 5.59375 17.84375 L 5.96875 17.59375 L 5.90625 17.3125 L 5.21875 16.8125 Z M 3.46875 17.21875 L 2.90625 17.3125 L 2.0625 18.15625 L 1.375 18.0625 C 1.375 18.0625 1.058594 17.53125 1 17.40625 L 1 18.6875 L 1.4375 18.625 L 2.15625 18.96875 L 3.25 19.59375 L 3.40625 20.3125 L 4.28125 21.15625 L 4.78125 20.78125 L 5.1875 21.09375 L 5.125 20.375 L 4.34375 20.5625 L 4.09375 19.65625 L 4 19.25 L 3.3125 18.625 L 3.3125 18.1875 L 3.84375 17.625 Z M 5.1875 21.09375 L 5.1875 21.25 L 5 22.25 L 4.4375 23 L 4.46875 24.125 L 4.9375 25.28125 L 5.4375 26.6875 L 6.75 28 L 6.8125 28.75 L 6.90625 32.125 L 7.375 34.03125 C 7.375 34.03125 7.660156 35.132812 7.59375 35.21875 C 7.527344 35.304688 7.96875 36.125 7.96875 36.125 L 8.84375 37.5 L 10.09375 38.03125 L 9.59375 37.4375 L 9.34375 36.75 L 9.59375 36.03125 L 8.9375 35.65625 C 8.9375 35.65625 9.375 35.382812 9.4375 35.28125 C 9.5 35.191406 9.34375 34.8125 9.34375 34.8125 L 9.15625 34.34375 L 9.65625 33.6875 L 10.4375 33.5 L 10.5625 32.90625 L 10.09375 32.6875 L 10.28125 32.1875 L 11.03125 32.09375 L 11.6875 30.5 L 12.15625 29.40625 L 13.125 28.9375 C 13.125 28.9375 13.4375 27.96875 13.4375 27.84375 C 13.4375 27.707031 13.53125 26.34375 13.53125 26.34375 L 14.28125 25.3125 L 14.375 24.625 L 13.8125 24.25 L 13.34375 23.6875 L 12.5 23.75 L 11.15625 23 L 10.875 22.34375 C 10.875 22.34375 10.398438 21.53125 10.3125 21.53125 C 10.222656 21.53125 9.6875 21.5625 9.6875 21.5625 L 9.15625 21.03125 L 8.8125 20.375 L 7.4375 20.09375 L 7 19.875 L 6.125 19.875 L 6.09375 19.9375 L 5.28125 20.375 Z M 42.5625 20.375 C 42.675781 20.503906 43.375 22.59375 43.46875 22.59375 C 43.554688 22.59375 44.09375 22.65625 44.09375 22.65625 L 43.8125 21.8125 Z M 38.96875 20.4375 L 38.65625 20.84375 L 38.8125 21.4375 L 39.15625 21.0625 L 39.09375 20.59375 Z M 47 21.1875 L 45.59375 21.96875 C 45.59375 22.058594 44.875 22.65625 44.875 22.65625 L 45.0625 23.28125 L 45.46875 23.75 L 45.75 24.4375 L 47 23.625 Z M 42.46875 21.59375 L 42.03125 21.65625 L 44.03125 24.65625 L 44.5625 25.28125 L 45.875 25.34375 L 46.6875 25.59375 L 45.8125 24.96875 L 44.5625 24.625 L 44.25 23.46875 L 43.5625 22.90625 L 42.46875 21.65625 Z M 31.96875 26.5 L 31.96875 26.9375 C 31.945312 27.003906 31.5625 27.3125 31.5625 27.3125 L 31.09375 27.53125 L 30.75 27.8125 L 31 28.15625 L 31.15625 28.3125 L 30.75 28.65625 L 30.75 29.21875 L 30.90625 29.84375 L 31.25 29.9375 L 31.65625 29.3125 L 31.90625 28.90625 L 31.84375 28.40625 L 32.21875 27.8125 L 32.34375 27.53125 L 32.34375 26.96875 L 32.25 26.53125 Z M 46.9375 28.40625 C 46.660156 28.457031 46.355469 28.515625 46.34375 28.5625 C 46.324219 28.660156 45.78125 28.9375 45.78125 28.9375 C 45.667969 28.9375 45.3125 29.59375 45.3125 29.59375 L 45.25 31.65625 L 45.125 32.40625 L 45.4375 32.8125 L 46.96875 32.28125 L 47 32.25 L 47 28.40625 C 46.96875 28.410156 46.96875 28.398438 46.9375 28.40625 Z M 11.46875 35.96875 L 11.25 36.125 L 11.15625 36.15625 L 11.65625 36.40625 Z M 10.59375 36.15625 L 10.375 36.65625 L 10.8125 36.5625 Z M 12.09375 40.28125 L 12.03125 40.3125 C 12.03125 40.3125 12.058594 40.339844 12.0625 40.34375 Z M 12.0625 40.34375 L 11.625 41 L 10.75 41.40625 L 11.25 42.03125 L 10.46875 42.40625 L 8 42.28125 L 7.25 41.53125 L 6.59375 41.40625 L 7.25 42.78125 L 6.09375 42.5625 L 2.125 42.6875 L 1.28125 43.78125 L 1.09375 43.75 C 1.441406 45.605469 3.039062 47 5 47 L 43 47 C 45.214844 47 47 45.214844 47 43 L 47 42.9375 L 46.84375 42.90625 L 45.625 43.0625 L 44.75 43.84375 L 43.25 44.4375 L 43.875 43.6875 L 45.25 42.90625 L 47 42.5 L 47 41.53125 L 46.625 41.53125 C 46.625 41.53125 45.28125 40.863281 45.28125 40.6875 C 45.28125 40.5 43.78125 40.5625 43.78125 40.5625 L 42.0625 40.75 L 40.40625 40.65625 L 37.09375 40.78125 L 34.03125 41.40625 C 34.03125 41.40625 32.546875 42.195312 32.375 42.15625 C 32.1875 42.113281 33 41.125 33 41.125 L 31.5625 41.25 L 30.65625 40.5 L 29.75 41.09375 C 29.75 41.09375 28.550781 41.1875 28.25 41.1875 C 27.933594 41.1875 27.5 41.78125 27.5 41.78125 L 25.03125 41.6875 L 20.78125 41.875 L 19.65625 42.8125 L 19.40625 42.875 L 16.15625 42.625 L 13.9375 42.875 L 13.15625 42.46875 L 13.1875 42.40625 C 13.1875 42.40625 12.53125 41.089844 12.53125 40.90625 C 12.53125 40.738281 12.117188 40.390625 12.0625 40.34375 Z M 12.375 43.5 L 13.71875 43.9375 L 12.09375 43.9375 L 11.4375 43.59375 Z M 12.375 43.5 "/>
<path style=" stroke:none;fill-rule:nonzero;fill:rgb(67.058824%,83.921569%,92.54902%);fill-opacity:1;" d="M 12.96875 1 L 11.5625 1.375 L 10.75 1.625 L 9.8125 1.25 L 9.6875 1.8125 L 10.8125 2.46875 C 10.8125 2.46875 12.855469 1.34375 12.96875 1.34375 L 13.71875 1 Z M 15.6875 1 L 15.15625 1.15625 L 14.1875 1.21875 L 13.59375 1.65625 L 12.8125 1.625 L 12.875 2.125 L 14 2.09375 L 14.40625 3.1875 L 14.5625 3.78125 L 13.9375 4.125 L 13.6875 4.59375 L 13.875 5.65625 L 14.625 5.78125 L 15.34375 5.09375 L 15.96875 4.4375 L 16.9375 4.1875 L 18.15625 3.59375 L 18.875 2.71875 L 19.90625 1.46875 L 20.625 1.28125 L 20.59375 1 Z M 34.84375 1.1875 L 34.65625 1.5 L 35.8125 1.65625 L 35.875 1.375 Z M 25.96875 1.375 C 25.914062 1.394531 24.4375 1.40625 24.4375 1.40625 L 24.0625 1.5 L 24.5625 2.09375 L 25.09375 1.59375 L 25.4375 1.8125 L 25.9375 1.5625 C 25.9375 1.5625 26.027344 1.351562 25.96875 1.375 Z M 31.59375 1.84375 L 31.125 1.90625 L 30.71875 2.15625 L 30.25 2.5 L 29.96875 3 L 30.40625 3.4375 L 30.78125 3.46875 L 30.9375 3.21875 L 30.5625 2.90625 L 30.78125 2.71875 L 30.8125 2.5625 L 31.28125 2.25 C 31.28125 2.25 31.894531 2.257812 31.9375 2.25 C 31.984375 2.238281 32.125 2.0625 32.125 2.0625 L 31.96875 1.84375 Z M 5.71875 2.03125 L 5.625 2.34375 L 6.09375 2.5 L 6.625 2.25 Z M 37.59375 2.09375 L 37.5 2.125 L 35.375 2.21875 L 34.8125 2.59375 L 34.1875 2.96875 L 33.65625 3.40625 L 33.71875 3.59375 L 33.4375 3.625 L 31.1875 4 L 33.5 3.59375 L 33.5 3.4375 L 33.15625 3 L 32.53125 2.9375 C 32.53125 2.9375 32.65625 3.601562 32.65625 3.6875 C 32.65625 3.769531 32.21875 3.71875 32.21875 3.71875 L 31.46875 3.75 C 31.46875 3.75 30.390625 4 30.25 4 C 30.117188 4 29.488281 4.273438 29.4375 4.28125 L 29.40625 4.3125 L 29.34375 4.3125 L 29.25 4.375 L 28.21875 4.9375 L 27.90625 4.71875 L 27.75 4.46875 L 27.8125 4.21875 L 28.5 4.25 L 28.8125 4.125 L 28.1875 3.8125 L 27.3125 3.5 L 26.4375 3.34375 L 25.5 3.53125 L 24.53125 4.3125 L 24.09375 4.75 L 23.4375 5.46875 L 23.1875 5.5 L 23.09375 5.84375 L 23.21875 6.1875 C 23.21875 6.1875 23.359375 6.34375 23.375 6.34375 C 23.398438 6.34375 23.625 6.21875 23.625 6.21875 C 23.625 6.21875 23.652344 6.101562 23.78125 6.0625 C 23.914062 6.023438 24.03125 6 24.03125 6 L 24.21875 6.375 L 24.4375 6.6875 L 24.53125 6.9375 C 24.53125 6.9375 24.890625 6.714844 24.90625 6.6875 C 24.921875 6.65625 24.9375 6.28125 24.9375 6.28125 L 25.21875 6.09375 C 25.21875 6.09375 25.289062 5.960938 25.28125 5.9375 C 25.269531 5.914062 25.09375 5.71875 25.09375 5.71875 L 24.9375 5.65625 L 25 5.34375 C 25 5.34375 25.125 5.257812 25.125 5.21875 C 25.125 5.183594 25.3125 5.03125 25.3125 5.03125 L 25.5625 4.78125 L 25.6875 4.5625 L 25.9375 4.4375 L 26.1875 4.625 L 26.1875 4.75 L 25.9375 5 L 25.875 5.25 L 25.875 5.59375 L 26.0625 5.75 L 26.4375 5.71875 L 26.75 5.65625 L 27 5.8125 L 26.9375 6.03125 C 26.9375 6.03125 26.765625 6.21875 26.6875 6.25 C 26.628906 6.277344 26.277344 6.183594 26.1875 6.21875 C 26.085938 6.25 25.875 6.53125 25.875 6.53125 C 25.875 6.53125 25.851562 6.78125 25.875 6.84375 C 25.882812 6.867188 25.859375 6.910156 25.84375 6.96875 L 25.78125 7 L 25.40625 7.28125 L 25.375 7.28125 L 25.125 7.1875 C 25.125 7.1875 24.972656 7.191406 24.90625 7.25 C 24.84375 7.300781 24.785156 7.355469 24.59375 7.375 C 24.402344 7.394531 24.03125 7.375 24 7.375 L 23.78125 7.375 L 23.8125 7.15625 L 23.96875 6.90625 L 23.6875 6.6875 C 23.6875 6.6875 23.5 6.917969 23.5 6.96875 C 23.492188 7.023438 23.625 7.25 23.625 7.25 C 23.625 7.25 23.5625 7.429688 23.53125 7.46875 C 23.5 7.507812 23.1875 7.59375 23.1875 7.59375 L 22.78125 7.375 C 22.78125 7.375 22.601562 7.335938 22.625 7.4375 C 22.648438 7.539062 22.84375 7.632812 22.84375 7.71875 C 22.84375 7.800781 22.71875 8 22.71875 8 L 22.5625 8.1875 L 22.3125 8.4375 L 21.96875 8.53125 C 21.96875 8.53125 21.726562 8.601562 21.65625 8.625 C 21.59375 8.648438 21.40625 8.6875 21.40625 8.6875 L 21.125 8.71875 L 21 8.9375 L 21.25 9.125 L 21.4375 9.4375 C 21.4375 9.4375 21.5625 9.65625 21.59375 9.65625 C 21.625 9.65625 21.6875 9.875 21.6875 9.875 L 21.5 10.125 L 21.40625 10.125 L 20.75 10.25 L 20.625 9.96875 L 20.1875 10.40625 L 20 11.125 L 20 11.71875 L 20.75 12.125 L 21.375 11.90625 L 21.96875 10.84375 L 22.5 10.1875 L 23.46875 10.03125 L 23.6875 9.84375 L 24.78125 11.125 L 24.90625 11.5625 L 25.21875 11.40625 L 25.125 11.03125 L 25.3125 11.03125 L 25.1875 10.78125 L 24.125 9.78125 L 24.21875 9.59375 L 24.5625 9.5625 L 25.3125 10.3125 L 25.6875 10.75 L 25.6875 11.4375 L 25.875 11.5625 L 26.25 11.9375 L 26.53125 11.84375 L 26.375 11.28125 L 26.46875 10.9375 L 26.65625 10.71875 L 27.09375 10.875 L 27.25 10.9375 L 27.21875 10.4375 L 27.46875 9.96875 L 27.625 9.28125 L 28.1875 9.375 L 28.28125 9.6875 L 28.5 9.84375 L 28.75 9.625 L 28.59375 9.28125 L 29.25 9.28125 L 29.03125 9.65625 L 29.46875 10.03125 L 29.84375 10.21875 L 30.0625 10.65625 L 29.5625 10.78125 L 28.84375 10.625 L 28.21875 10.625 L 27.625 10.9375 L 27.5 11.15625 L 27.0625 11.25 L 27.25 11.71875 L 27.59375 12.125 L 28.21875 11.90625 L 28.375 12.15625 L 28.65625 11.9375 L 29.03125 12 L 29.0625 12.40625 L 28.9375 13.1875 L 28.59375 13.15625 L 28.1875 13.09375 L 28 13.5625 L 26.625 13.3125 L 26.375 13 L 26.0625 13.28125 L 25.71875 13.75 L 24.84375 13.25 L 23.96875 12.71875 L 23.96875 11.78125 L 23.40625 11.8125 L 23.375 12.125 L 22 12.0625 L 21.5625 12.46875 L 20.71875 12.5 L 20.15625 13 L 19.8125 13.96875 L 18.9375 14.65625 L 18.3125 15.5 L 18.28125 17.125 L 18.09375 17.625 L 18.03125 18.21875 L 18.40625 18.875 L 18.625 19.5 L 19.375 20.40625 L 19.8125 20.78125 L 20.25 20.875 L 20.34375 20.5 L 21.90625 20.5 L 22.3125 20.3125 L 22.8125 20.375 L 22.96875 20.6875 L 23.5 20.71875 L 23.84375 20.96875 L 23.84375 21.5 L 23.71875 21.9375 L 23.59375 22.28125 L 23.90625 22.84375 L 24.3125 23.3125 L 24.5 24.5 L 24.53125 25.28125 L 24.25 25.9375 L 24.21875 26.5625 L 24.4375 27.71875 L 24.625 27.90625 L 24.90625 29 L 24.9375 29.46875 L 25.5 30.21875 L 25.5625 30.8125 L 25.65625 31.5 L 26 31.15625 L 26.875 31.0625 L 27.40625 31.0625 L 28.375 29.5625 L 28.4375 28.96875 L 29.09375 28.3125 L 29.125 27.5625 L 29.46875 26.8125 L 30.28125 26.03125 L 30.28125 25.15625 L 30.09375 24.34375 L 29.96875 23.21875 L 30.5625 22.28125 L 31.625 20.96875 L 32.03125 20.5625 L 32.1875 20.03125 L 32.4375 19.5625 L 32.5 18.875 L 31.90625 18.875 L 31.625 19.15625 L 31.0625 19 L 30.71875 18.4375 L 30.4375 17.875 L 29.78125 17.375 L 29.625 16.5625 L 29.34375 16.09375 L 29.03125 15.5 L 28.625 14.78125 L 28.53125 14.3125 L 28.96875 14.21875 L 29.21875 14.75 L 29.71875 15.6875 L 30.09375 16.40625 L 30.5 17.15625 L 30.9375 17.875 L 31.53125 18.46875 L 32.0625 17.96875 L 32.6875 17.8125 L 33.125 17.28125 L 33.71875 16.9375 L 34.0625 16.34375 L 34.09375 15.84375 L 33.8125 15.53125 L 33.4375 15.09375 L 33.1875 15.25 L 33.03125 15.5 L 32.625 15.3125 L 32.5 15 L 32.21875 14.59375 L 31.78125 14.1875 L 31.78125 13.375 L 32.0625 13.90625 L 32.40625 14.4375 L 33 14.78125 L 33.40625 14.6875 L 33.65625 14.96875 L 35.4375 14.9375 L 35.40625 14.96875 L 35.96875 15.46875 L 36.375 16.03125 L 36.5 16.3125 L 36.78125 16.3125 L 36.875 16 L 36.96875 16.46875 L 37.125 17.3125 L 37.46875 18.125 L 37.65625 18.8125 L 37.9375 19.46875 L 38.15625 19.71875 L 38.46875 19.53125 L 38.5625 19.21875 L 38.6875 18.46875 L 38.65625 17.78125 L 38.90625 17.4375 C 38.90625 17.4375 39.175781 17.082031 39.21875 17.0625 C 39.269531 17.050781 39.84375 16.4375 39.84375 16.4375 L 40.125 16.0625 L 40.4375 15.875 L 40.8125 15.65625 L 40.96875 15.65625 L 41.03125 16 L 41.1875 16.40625 L 41.6875 17.0625 L 41.6875 17.3125 L 41.78125 17.59375 L 42.125 17.4375 L 42.09375 17.0625 L 42.4375 17.125 L 42.5 17.46875 L 42.46875 18 L 42.5625 18.375 L 42.84375 18.4375 L 42.9375 18.125 L 43.28125 18.34375 L 43.34375 18.65625 L 43.65625 19.125 L 43.96875 19.46875 L 44.1875 19.65625 L 44.71875 19.1875 L 44.9375 18.75 L 44.84375 18.25 L 44.75 17.59375 L 44.15625 17.03125 L 44.0625 16.46875 L 44.3125 16.0625 C 44.3125 16.0625 44.460938 15.773438 44.625 15.9375 C 44.769531 16.105469 44.855469 16.125 44.78125 16.3125 C 44.71875 16.496094 44.59375 16.90625 44.59375 16.90625 L 44.96875 17.0625 L 45.125 16.53125 L 44.96875 16.15625 L 45.34375 16 L 46.03125 15.65625 L 46.46875 15.125 L 46.8125 14.3125 L 46.8125 13.6875 L 46.4375 12.9375 L 45.75 12.125 L 45.3125 11.71875 L 45.09375 11.09375 L 45.5 11 C 45.5 11 45.730469 10.605469 45.9375 10.8125 C 46.140625 11.03125 46.4375 11.3125 46.4375 11.3125 C 46.4375 11.3125 46.792969 11.878906 46.84375 11.9375 C 46.859375 11.957031 46.9375 12.035156 47 12.09375 L 47 7.3125 C 46.808594 7.226562 46.3125 6.875 46.3125 6.875 L 46.375 6.375 L 46.625 5.9375 L 47 5.90625 L 47 5 C 47 4.574219 46.90625 4.167969 46.78125 3.78125 L 46.375 3.25 L 44.71875 3.0625 L 43.4375 2.75 C 43.4375 2.75 43.050781 3.046875 42.84375 3.0625 C 42.640625 3.085938 41.9375 3.1875 41.9375 3.1875 L 41.21875 2.75 L 39.71875 2.625 L 39.65625 2.59375 L 38.375 2.53125 Z M 4.375 2.46875 L 3.875 3.03125 L 4.3125 3.25 L 4.875 3 L 4.90625 3.625 L 5.375 3.9375 L 5.875 3.46875 L 6.5625 3.59375 L 6.84375 2.9375 L 5.71875 2.84375 Z M 7.5 2.5625 L 7.9375 3.65625 L 7.40625 3.71875 L 7 4.21875 L 6.09375 3.9375 L 5.28125 4.28125 L 4.5 4.0625 L 3.59375 3.5 L 2.34375 3.53125 L 1.25 4 L 1.15625 3.96875 C 1.070312 4.296875 1 4.640625 1 5 L 1 16.25 C 1.042969 16.074219 1.1875 15.84375 1.1875 15.84375 L 1.125 14.5625 L 1.84375 14.0625 L 2.40625 13.875 L 3.21875 13.875 L 4.34375 13.625 L 4.75 14.15625 L 4.6875 14.78125 L 5.15625 15.1875 L 5.21875 14.75 C 5.21875 14.75 5.195312 14.03125 5.125 13.84375 C 5.058594 13.65625 5.6875 13.21875 5.6875 13.21875 L 6.1875 12.59375 L 6.78125 11.875 L 7.0625 11.3125 L 8 10.8125 L 8.625 10.125 C 8.625 10.125 9.5625 9.984375 9.75 9.875 C 9.9375 9.785156 9.8125 9.441406 9.625 9.125 C 9.433594 8.8125 9.71875 8.5 9.71875 8.5 L 10.4375 8.0625 L 11.0625 8.1875 L 11.125 8.9375 C 11.125 8.9375 11.722656 9.503906 11.90625 9.40625 C 12.097656 9.316406 12.1875 9 12.1875 9 L 11.875 8.1875 L 12.0625 7.375 L 11.21875 7.5 L 11.21875 6.125 L 10.96875 6.375 L 10.3125 6.40625 L 10.21875 5.71875 L 9.78125 5.1875 C 9.78125 5.1875 9.351562 5.449219 8.9375 5.59375 C 8.527344 5.75 8.59375 6.0625 8.59375 6.0625 L 8.59375 6.90625 L 7.90625 7.46875 L 7.46875 8.125 C 7.46875 8.125 7.1875 7.9375 7.1875 7.8125 C 7.1875 7.6875 7.125 7.3125 7.125 7.3125 L 6.40625 6.75 C 6.40625 6.75 5.84375 6.34375 5.8125 6.21875 C 5.78125 6.09375 6.15625 5.53125 6.15625 5.53125 C 6.15625 5.53125 6.972656 5.03125 7.15625 4.875 C 7.347656 4.71875 8.375 5.246094 8.5 5.15625 C 8.628906 5.0625 9.125 4.28125 9.125 4.28125 L 9.5625 3.65625 L 9.125 4.15625 L 8.375 3.4375 L 8.5 2.71875 Z M 9.96875 2.625 L 9.71875 3.21875 L 9.875 3.5625 L 10.4375 3.5 L 10.6875 3.96875 L 10.1875 4.5 L 9.625 4.5625 L 10.125 4.8125 L 10.65625 5.28125 L 11.1875 5.40625 L 11.375 4.6875 L 11.40625 4.21875 L 12.03125 4.3125 C 12.03125 4.3125 11.820312 4.65625 11.90625 4.65625 C 12.007812 4.65625 12.40625 4.25 12.40625 4.25 L 11.34375 3.125 C 11.34375 3.125 10.875 2.773438 10.75 2.875 C 10.617188 2.964844 10.28125 2.9375 10.28125 2.9375 Z M 18.625 4.40625 L 18.5 4.8125 C 18.9375 5.160156 19.125 5.15625 19.125 5.15625 L 19.65625 5.03125 L 20 4.6875 L 19.78125 4.40625 Z M 21.40625 6.1875 L 21.15625 6.40625 C 21.09375 6.710938 21 7.03125 21 7.03125 L 21.46875 7.25 L 21.53125 7.53125 L 21.28125 7.78125 L 21.0625 8.15625 L 21.21875 8.3125 L 21.78125 8.21875 L 22.28125 7.96875 L 22 7.59375 L 21.90625 6.96875 L 21.5625 6.59375 Z M 20.59375 7.34375 L 20.34375 7.8125 L 20.71875 7.96875 L 20.84375 7.6875 Z M 5.15625 8.46875 L 5.8125 8.71875 L 6.25 9.3125 L 6.53125 9.71875 C 6.53125 9.71875 6.285156 10.5625 6.21875 10.71875 C 6.152344 10.875 5.9375 10.40625 5.9375 10.40625 L 5.78125 9.59375 L 5.28125 9.84375 L 4.875 10.8125 L 4.96875 9.96875 L 5.09375 9.40625 L 4.4375 9.15625 L 5 8.625 Z M 31.53125 9.21875 C 31.664062 9.15625 31.90625 9.375 31.90625 9.375 L 31.65625 9.59375 L 31.75 9.90625 L 32.03125 10.65625 L 32.6875 11.75 L 32.28125 11.9375 L 31.75 11.59375 L 31.53125 10.9375 C 31.53125 10.9375 31.21875 10.539062 31.09375 10.46875 C 30.960938 10.40625 30.84375 10.1875 30.84375 10.1875 L 30.96875 9.65625 C 30.96875 9.65625 31.40625 9.300781 31.53125 9.25 Z M 23.65625 10.4375 L 23.28125 11.15625 L 23.5625 11.4375 L 23.8125 11.21875 L 23.84375 10.90625 Z M 22.40625 11.1875 L 22.40625 11.375 L 22.5625 11.34375 Z M 24.5625 11.65625 L 24.34375 11.71875 L 24.6875 12.25 L 24.9375 12.03125 Z M 4.40625 15.8125 L 4.4375 15.84375 L 4.09375 16 L 4.625 16.28125 L 5.21875 16.375 L 5.59375 16.84375 L 5.96875 16.59375 L 5.90625 16.3125 L 5.21875 15.8125 Z M 3.46875 16.21875 L 2.90625 16.3125 L 2.0625 17.15625 L 1.375 17.0625 C 1.375 17.0625 1.058594 16.53125 1 16.40625 L 1 17.6875 L 1.4375 17.625 L 2.15625 17.96875 L 3.25 18.59375 L 3.40625 19.3125 L 4.28125 20.15625 L 4.78125 19.78125 L 5.1875 20.09375 L 5.125 19.375 L 4.34375 19.5625 L 4.09375 18.65625 L 4 18.25 L 3.3125 17.625 L 3.3125 17.1875 L 3.84375 16.625 Z M 5.1875 20.09375 L 5.1875 20.25 L 5 21.25 L 4.4375 22 L 4.46875 23.125 L 4.9375 24.28125 L 5.4375 25.6875 L 6.75 27 L 6.8125 27.75 L 6.90625 31.125 L 7.375 33.03125 C 7.375 33.03125 7.660156 34.132812 7.59375 34.21875 C 7.527344 34.304688 7.96875 35.125 7.96875 35.125 L 8.84375 36.5 L 10.09375 37.03125 L 9.59375 36.4375 L 9.34375 35.75 L 9.59375 35.03125 L 8.9375 34.65625 C 8.9375 34.65625 9.375 34.382812 9.4375 34.28125 C 9.5 34.191406 9.34375 33.8125 9.34375 33.8125 L 9.15625 33.34375 L 9.65625 32.6875 L 10.4375 32.5 L 10.5625 31.90625 L 10.09375 31.6875 L 10.28125 31.1875 L 11.03125 31.09375 L 11.6875 29.5 L 12.15625 28.40625 L 13.125 27.9375 C 13.125 27.9375 13.4375 26.96875 13.4375 26.84375 C 13.4375 26.707031 13.53125 25.34375 13.53125 25.34375 L 14.28125 24.3125 L 14.375 23.625 L 13.8125 23.25 L 13.34375 22.6875 L 12.5 22.75 L 11.15625 22 L 10.875 21.34375 C 10.875 21.34375 10.398438 20.53125 10.3125 20.53125 C 10.222656 20.53125 9.6875 20.5625 9.6875 20.5625 L 9.15625 20.03125 L 8.8125 19.375 L 7.4375 19.09375 L 7 18.875 L 6.125 18.875 L 6.09375 18.9375 L 5.28125 19.375 Z M 42.5625 19.375 C 42.675781 19.503906 43.375 21.59375 43.46875 21.59375 C 43.554688 21.59375 44.09375 21.65625 44.09375 21.65625 L 43.8125 20.8125 Z M 38.96875 19.4375 L 38.65625 19.84375 L 38.8125 20.4375 L 39.15625 20.0625 L 39.09375 19.59375 Z M 47 20.1875 L 45.59375 20.96875 C 45.59375 21.058594 44.875 21.65625 44.875 21.65625 L 45.0625 22.28125 L 45.46875 22.75 L 45.75 23.4375 L 47 22.625 Z M 42.46875 20.59375 L 42.03125 20.65625 L 44.03125 23.65625 L 44.5625 24.28125 L 45.875 24.34375 L 46.6875 24.59375 L 45.8125 23.96875 L 44.5625 23.625 L 44.25 22.46875 L 43.5625 21.90625 L 42.46875 20.65625 Z M 31.96875 25.5 L 31.96875 25.9375 C 31.945312 26.003906 31.5625 26.3125 31.5625 26.3125 L 31.09375 26.53125 L 30.75 26.8125 L 31 27.15625 L 31.15625 27.3125 L 30.75 27.65625 L 30.75 28.21875 L 30.90625 28.84375 L 31.25 28.9375 L 31.65625 28.3125 L 31.90625 27.90625 L 31.84375 27.40625 L 32.21875 26.8125 L 32.34375 26.53125 L 32.34375 25.96875 L 32.25 25.53125 Z M 46.9375 27.40625 C 46.660156 27.457031 46.355469 27.515625 46.34375 27.5625 C 46.324219 27.660156 45.78125 27.9375 45.78125 27.9375 C 45.667969 27.9375 45.3125 28.59375 45.3125 28.59375 L 45.25 30.65625 L 45.125 31.40625 L 45.4375 31.8125 L 46.96875 31.28125 L 47 31.25 L 47 27.40625 C 46.96875 27.410156 46.96875 27.398438 46.9375 27.40625 Z M 11.46875 34.96875 L 11.25 35.125 L 11.15625 35.15625 L 11.65625 35.40625 Z M 10.59375 35.15625 L 10.375 35.65625 L 10.8125 35.5625 Z M 12.09375 39.28125 L 12.03125 39.3125 C 12.03125 39.3125 12.058594 39.339844 12.0625 39.34375 Z M 12.0625 39.34375 L 11.625 40 L 10.75 40.40625 L 11.25 41.03125 L 10.46875 41.40625 L 8 41.28125 L 7.25 40.53125 L 6.59375 40.40625 L 7.25 41.78125 L 6.09375 41.5625 L 2.125 41.6875 L 1.28125 42.78125 L 1 42.75 L 1 43 C 1 45.214844 2.785156 47 5 47 L 43 47 C 45.214844 47 47 45.214844 47 43 L 47 41.9375 L 46.84375 41.90625 L 45.625 42.0625 L 44.75 42.84375 L 43.25 43.4375 L 43.875 42.6875 L 45.25 41.90625 L 47 41.5 L 47 40.53125 L 46.625 40.53125 C 46.625 40.53125 45.28125 39.863281 45.28125 39.6875 C 45.28125 39.5 43.78125 39.5625 43.78125 39.5625 L 42.0625 39.75 L 40.40625 39.65625 L 37.09375 39.78125 L 34.03125 40.40625 C 34.03125 40.40625 32.546875 41.195312 32.375 41.15625 C 32.1875 41.113281 33 40.125 33 40.125 L 31.5625 40.25 L 30.65625 39.5 L 29.75 40.09375 C 29.75 40.09375 28.550781 40.1875 28.25 40.1875 C 27.933594 40.1875 27.5 40.78125 27.5 40.78125 L 25.03125 40.6875 L 20.78125 40.875 L 19.65625 41.8125 L 19.40625 41.875 L 16.15625 41.625 L 13.9375 41.875 L 13.15625 41.46875 L 13.1875 41.40625 C 13.1875 41.40625 12.53125 40.089844 12.53125 39.90625 C 12.53125 39.738281 12.117188 39.390625 12.0625 39.34375 Z M 12.375 42.5 L 13.71875 42.9375 L 12.09375 42.9375 L 11.4375 42.59375 Z M 12.375 42.5 "/>
<path style=" stroke:none;fill-rule:nonzero;fill:rgb(0%,0%,0%);fill-opacity:0.101961;" d="M 1 38.996094 L 1 42.996094 C 1 45.214844 2.785156 46.996094 5 46.996094 L 43 46.996094 C 45.214844 46.996094 47 45.214844 47 42.996094 L 47 38.996094 C 47 41.214844 45.214844 42.996094 43 42.996094 L 5 42.996094 C 2.785156 42.996094 1 41.214844 1 38.996094 Z M 1 38.996094 "/>
</g>
</svg>
