<?xml version="1.0" encoding="UTF-8" standalone="no"?>
<svg
   xmlns:dc="http://purl.org/dc/elements/1.1/"
   xmlns:cc="http://creativecommons.org/ns#"
   xmlns:rdf="http://www.w3.org/1999/02/22-rdf-syntax-ns#"
   xmlns:svg="http://www.w3.org/2000/svg"
   xmlns="http://www.w3.org/2000/svg"
   xmlns:xlink="http://www.w3.org/1999/xlink"
   xmlns:sodipodi="http://sodipodi.sourceforge.net/DTD/sodipodi-0.dtd"
   xmlns:inkscape="http://www.inkscape.org/namespaces/inkscape"
   viewBox="0 0 48 48"
   id="svg3515"
   version="1.1"
   inkscape:version="0.48.5 r10040"
   width="100%"
   height="100%"
   sodipodi:docname="world.svg">
  <metadata
     id="metadata3574">
    <rdf:RDF>
      <cc:Work
         rdf:about="">
        <dc:format>image/svg+xml</dc:format>
        <dc:type
           rdf:resource="http://purl.org/dc/dcmitype/StillImage" />
      </cc:Work>
    </rdf:RDF>
  </metadata>
  <sodipodi:namedview
     pagecolor="#ffffff"
     bordercolor="#666666"
     borderopacity="1"
     objecttolerance="10"
     gridtolerance="10"
     guidetolerance="10"
     inkscape:pageopacity="0"
     inkscape:pageshadow="2"
     inkscape:window-width="1280"
     inkscape:window-height="970"
     id="namedview3572"
     showgrid="false"
     inkscape:zoom="6.9532167"
     inkscape:cx="35.411123"
     inkscape:cy="25.242425"
     inkscape:window-x="0"
     inkscape:window-y="0"
     inkscape:window-maximized="1"
     inkscape:current-layer="svg3515" />
  <defs
     id="defs3517">
    <linearGradient
       id="linearGradient3764"
       x1="1"
       x2="47"
       gradientUnits="userSpaceOnUse"
       gradientTransform="translate(-48.000001,0.00221467)">
      <stop
         stop-color="#1e94ca"
         stop-opacity="1"
         id="stop3520" />
      <stop
         offset="1"
         stop-color="#20a0db"
         stop-opacity="1"
         id="stop3522" />
    </linearGradient>
    <clipPath
       id="clipPath-337772318">
      <g
         transform="translate(0,-1004.3622)"
         id="g3525">
        <rect
           rx="4"
           y="1005.36"
           x="1"
           height="46"
           width="46"
           fill="#1890d0"
           id="rect3527" />
      </g>
    </clipPath>
    <clipPath
       id="clipPath-354596756">
      <g
         transform="translate(0,-1004.3622)"
         id="g3530">
        <rect
           rx="4"
           y="1005.36"
           x="1"
           height="46"
           width="46"
           fill="#1890d0"
           id="rect3532" />
      </g>
    </clipPath>
    <linearGradient
       inkscape:collect="always"
       xlink:href="#linearGradient3764"
       id="linearGradient3580"
       gradientUnits="userSpaceOnUse"
       gradientTransform="translate(-48.000001,0.00221467)"
       x1="1"
       x2="47" />
    <linearGradient
       inkscape:collect="always"
       xlink:href="#linearGradient3764"
       id="linearGradient3337"
       gradientUnits="userSpaceOnUse"
       gradientTransform="translate(-48.000001,0.00221467)"
       x1="1"
       x2="47" />
    <linearGradient
       inkscape:collect="always"
       xlink:href="#linearGradient3764"
       id="linearGradient3343"
       gradientUnits="userSpaceOnUse"
       gradientTransform="translate(-48.000001,0.00221467)"
       x1="1"
       x2="47" />
  </defs>
  <path
     style="opacity:0.02000002"
     inkscape:connector-curvature="0"
     id="path3536"
     d="m 1,43 0,0.25 c 0,2.216 1.784,4 4,4 l 38,0 c 2.216,0 4,-1.784 4,-4 L 47,43 c 0,2.216 -1.784,4 -4,4 L 5,47 C 2.784,47 1,45.216 1,43 z m 0,0.5 0,0.5 c 0,2.216 1.784,4 4,4 l 38,0 c 2.216,0 4,-1.784 4,-4 l 0,-0.5 c 0,2.216 -1.784,4 -4,4 l -38,0 c -2.216,0 -4,-1.784 -4,-4 z" />
  <path
     style="opacity:0.05"
     inkscape:connector-curvature="0"
     id="path3538"
     d="m 1,43.25 0,0.25 c 0,2.216 1.784,4 4,4 l 38,0 c 2.216,0 4,-1.784 4,-4 l 0,-0.25 c 0,2.216 -1.784,4 -4,4 l -38,0 c -2.216,0 -4,-1.784 -4,-4 z" />
  <path
     style="opacity:0.1"
     inkscape:connector-curvature="0"
     id="path3540"
     d="m 1,43 0,0.25 c 0,2.216 1.784,4 4,4 l 38,0 c 2.216,0 4,-1.784 4,-4 L 47,43 c 0,2.216 -1.784,4 -4,4 L 5,47 C 2.784,47 1,45.216 1,43 z" />
  <rect
     style="fill:url(#linearGradient3343);fill-opacity:1"
     id="rect3544"
     transform="matrix(0,-1,1,0,0,0)"
     rx="4"
     y="1"
     x="-47"
     height="46"
     width="46" />
  <path
     inkscape:connector-curvature="0"
     style="opacity:0.1;fill:#000000;fill-opacity:1;fill-rule:nonzero;stroke:none"
     d="m 16,1.90625 -0.84375,0.25 -0.96875,0.0625 -0.59375,0.4375 L 12.8125,2.625 12.875,3.125 14,3.09375 14.40625,4.1875 14.5625,4.78125 13.9375,5.125 l -0.25,0.46875 0.1875,1.0625 0.75,0.125 0.71875,-0.6875 0.625,-0.65625 0.96875,-0.25 1.21875,-0.59375 0.71875,-0.875 1.03125,-1.25 L 20.625,2.28125 20.59375,2 19.46875,2 16,1.90625 z M 13.78125,1.96875 12.96875,2 11.5625,2.375 10.75,2.625 9.8125,2.25 l -0.125,0.5625 1.125,0.65625 c 0,0 2.04325,-1.125 2.15625,-1.125 l 0.8125,-0.375 z M 34.84375,2.1875 34.65625,2.5 35.8125,2.65625 35.875,2.375 34.84375,2.1875 z m -8.875,0.1875 c -0.055,0.02 -1.53125,0.03125 -1.53125,0.03125 L 24.0625,2.5 l 0.5,0.59375 0.53125,-0.5 0.34375,0.21875 0.5,-0.25 c 0,0 0.09025,-0.2105 0.03125,-0.1875 z m 5.625,0.46875 -0.46875,0.0625 -0.40625,0.25 L 30.25,3.5 29.96875,4 l 0.4375,0.4375 0.375,0.03125 0.15625,-0.25 -0.375,-0.3125 0.21875,-0.1875 L 30.8125,3.5625 31.28125,3.25 c 0,0 0.61325,0.008 0.65625,0 0.047,-0.012 0.1875,-0.1875 0.1875,-0.1875 l -0.15625,-0.21875 -0.375,0 z M 5.71875,3.03125 5.625,3.34375 6.09375,3.5 6.625,3.25 5.71875,3.03125 z m 31.875,0.0625 L 37.5,3.125 l -2.125,0.09375 -0.5625,0.375 -0.625,0.375 -0.53125,0.4375 0.0625,0.1875 L 33.4375,4.625 31.1875,5 33.5,4.59375 33.5,4.4375 33.15625,4 32.53125,3.9375 c 0,0 0.125,0.664 0.125,0.75 0,0.082 -0.4375,0.03125 -0.4375,0.03125 L 31.46875,4.75 C 31.46875,4.75 30.391,5 30.25,5 30.117,5 29.4875,5.27325 29.4375,5.28125 l -0.03125,0.03125 -0.0625,0 L 29.25,5.375 28.21875,5.9375 27.90625,5.71875 27.75,5.46875 27.8125,5.21875 28.5,5.25 28.8125,5.125 28.1875,4.8125 27.3125,4.5 26.4375,4.34375 25.5,4.53125 24.53125,5.3125 24.09375,5.75 23.4375,6.46875 23.1875,6.5 l -0.09375,0.34375 0.125,0.34375 c 0,0 0.14125,0.15625 0.15625,0.15625 0.023,0 0.25,-0.125 0.25,-0.125 0,0 0.02725,-0.11725 0.15625,-0.15625 0.133,-0.039 0.25,-0.0625 0.25,-0.0625 l 0.1875,0.375 0.21875,0.3125 0.09375,0.25 c 0,0 0.359,-0.223 0.375,-0.25 0.016,-0.031 0.03125,-0.40625 0.03125,-0.40625 l 0.28125,-0.1875 c 0,0 0.0705,-0.13325 0.0625,-0.15625 -0.012,-0.023 -0.1875,-0.21875 -0.1875,-0.21875 L 24.9375,6.65625 25,6.34375 c 0,0 0.125,-0.086 0.125,-0.125 0,-0.035 0.1875,-0.1875 0.1875,-0.1875 l 0.25,-0.25 0.125,-0.21875 0.25,-0.125 0.25,0.1875 0,0.125 -0.25,0.25 -0.0625,0.25 0,0.34375 L 26.0625,6.75 26.4375,6.71875 26.75,6.65625 27,6.8125 26.9375,7.03125 c 0,0 -0.172,0.18675 -0.25,0.21875 -0.059,0.027 -0.411,-0.06625 -0.5,-0.03125 -0.102,0.031 -0.3125,0.3125 -0.3125,0.3125 0,0 -0.023,0.2495 0,0.3125 0.008,0.023 -0.01625,0.066 -0.03125,0.125 L 25.78125,8 l -0.375,0.28125 -0.03125,0 -0.25,-0.09375 c 0,0 -0.15175,0.0045 -0.21875,0.0625 -0.063,0.051 -0.1205,0.106 -0.3125,0.125 -0.191,0.02 -0.56275,0 -0.59375,0 l -0.21875,0 0.03125,-0.21875 0.15625,-0.25 L 23.6875,7.6875 c 0,0 -0.1875,0.23025 -0.1875,0.28125 -0.008,0.055 0.125,0.28125 0.125,0.28125 0,0 -0.06275,0.17975 -0.09375,0.21875 -0.031,0.039 -0.34375,0.125 -0.34375,0.125 L 22.78125,8.375 c 0,0 -0.18025,-0.0395 -0.15625,0.0625 0.023,0.102 0.21875,0.19525 0.21875,0.28125 0,0.082 -0.125,0.28125 -0.125,0.28125 l -0.15625,0.1875 -0.25,0.25 -0.34375,0.09375 c 0,0 -0.2425,0.06975 -0.3125,0.09375 -0.063,0.023 -0.25,0.0625 -0.25,0.0625 L 21.125,9.71875 21,9.9375 l 0.25,0.1875 0.1875,0.3125 c 0,0 0.12525,0.21875 0.15625,0.21875 0.031,0 0.09375,0.21875 0.09375,0.21875 l -0.1875,0.25 -0.09375,0 L 20.75,11.25 20.625,10.96875 20.1875,11.40625 20,12.125 l 0,0.59375 0.75,0.40625 0.625,-0.21875 0.59375,-1.0625 0.53125,-0.65625 0.96875,-0.15625 0.21875,-0.1875 1.09375,1.28125 0.125,0.4375 0.3125,-0.15625 -0.09375,-0.375 0.1875,0 -0.125,-0.25 -1.0625,-1 0.09375,-0.1875 0.34375,-0.03125 0.75,0.75 0.375,0.4375 0,0.6875 0.1875,0.125 0.375,0.375 0.28125,-0.09375 -0.15625,-0.5625 0.09375,-0.34375 0.1875,-0.21875 0.4375,0.15625 0.15625,0.0625 -0.03125,-0.5 0.25,-0.46875 0.15625,-0.6875 0.5625,0.09375 0.09375,0.3125 0.21875,0.15625 0.25,-0.21875 -0.15625,-0.34375 0.65625,0 -0.21875,0.375 0.4375,0.375 0.375,0.1875 0.21875,0.4375 -0.5,0.125 -0.71875,-0.15625 -0.625,0 -0.59375,0.3125 -0.125,0.21875 -0.4375,0.09375 0.1875,0.46875 0.34375,0.40625 0.625,-0.21875 0.15625,0.25 0.28125,-0.21875 0.375,0.0625 0.03125,0.40625 -0.125,0.78125 L 28.59375,14.15625 28.1875,14.09375 28,14.5625 26.625,14.3125 26.375,14 26.0625,14.28125 25.71875,14.75 l -0.875,-0.5 -0.875,-0.53125 0,-0.9375 -0.5625,0.03125 L 23.375,13.125 22,13.0625 21.5625,13.46875 20.71875,13.5 l -0.5625,0.5 -0.34375,0.96875 -0.875,0.6875 -0.625,0.84375 -0.03125,1.625 -0.1875,0.5 -0.0625,0.59375 0.375,0.65625 0.21875,0.625 0.75,0.90625 0.4375,0.375 0.4375,0.09375 0.09375,-0.375 1.5625,0 0.40625,-0.1875 0.5,0.0625 0.15625,0.3125 0.53125,0.03125 0.34375,0.25 0,0.53125 -0.125,0.4375 -0.125,0.34375 0.3125,0.5625 L 24.3125,24.3125 24.5,25.5 24.53125,26.28125 24.25,26.9375 l -0.03125,0.625 0.21875,1.15625 0.1875,0.1875 L 24.90625,30 24.9375,30.46875 25.5,31.21875 25.5625,31.8125 25.65625,32.5 26,32.15625 l 0.875,-0.09375 0.53125,0 0.96875,-1.5 0.0625,-0.59375 0.65625,-0.65625 0.03125,-0.75 0.34375,-0.75 0.8125,-0.78125 0,-0.875 -0.1875,-0.8125 -0.125,-1.125 0.59375,-0.9375 1.0625,-1.3125 0.40625,-0.40625 0.15625,-0.53125 0.25,-0.46875 0.0625,-0.6875 -0.59375,0 L 31.625,20.15625 31.0625,20 30.71875,19.4375 30.4375,18.875 29.78125,18.375 29.625,17.5625 29.34375,17.09375 29.03125,16.5 28.625,15.78125 28.53125,15.3125 l 0.4375,-0.09375 0.25,0.53125 0.5,0.9375 0.375,0.71875 0.40625,0.75 0.4375,0.71875 0.59375,0.59375 0.53125,-0.5 0.625,-0.15625 0.4375,-0.53125 0.59375,-0.34375 0.34375,-0.59375 0.03125,-0.5 -0.28125,-0.3125 -0.375,-0.4375 L 33.1875,16.25 33.03125,16.5 32.625,16.3125 32.5,16 l -0.28125,-0.40625 -0.4375,-0.40625 0,-0.8125 0.28125,0.53125 0.34375,0.53125 0.59375,0.34375 0.40625,-0.09375 0.25,0.28125 1.78125,-0.03125 -0.03125,0.03125 0.5625,0.5 0.40625,0.5625 0.125,0.28125 0.28125,0 L 36.875,17 l 0.09375,0.46875 0.15625,0.84375 0.34375,0.8125 0.1875,0.6875 0.28125,0.65625 0.21875,0.25 0.3125,-0.1875 0.09375,-0.3125 0.125,-0.75 -0.03125,-0.6875 0.25,-0.34375 c 0,0 0.2695,-0.355 0.3125,-0.375 0.051,-0.012 0.625,-0.625 0.625,-0.625 l 0.28125,-0.375 0.3125,-0.1875 0.375,-0.21875 0.15625,0 0.0625,0.34375 0.15625,0.40625 0.5,0.65625 0,0.25 0.09375,0.28125 L 42.125,18.4375 42.09375,18.0625 42.4375,18.125 42.5,18.46875 42.46875,19 l 0.09375,0.375 0.28125,0.0625 0.09375,-0.3125 0.34375,0.21875 0.0625,0.3125 0.3125,0.46875 0.3125,0.34375 0.21875,0.1875 0.53125,-0.46875 0.21875,-0.4375 -0.09375,-0.5 -0.09375,-0.65625 -0.59375,-0.5625 -0.09375,-0.5625 0.25,-0.40625 c 0,0 0.1485,-0.289 0.3125,-0.125 0.145,0.168 0.23125,0.188 0.15625,0.375 -0.063,0.184 -0.1875,0.59375 -0.1875,0.59375 l 0.375,0.15625 0.15625,-0.53125 -0.15625,-0.375 0.375,-0.15625 0.6875,-0.34375 0.4375,-0.53125 0.34375,-0.8125 0,-0.625 -0.375,-0.75 L 45.75,13.125 45.3125,12.71875 45.09375,12.09375 45.5,12 c 0,0 0.2295,-0.3945 0.4375,-0.1875 0.203,0.219 0.5,0.5 0.5,0.5 0,0 0.35525,0.566 0.40625,0.625 0.01644,0.02127 0.09534,0.09724 0.15625,0.15625 L 47,8.3125 C 46.810109,8.2265416 46.3125,7.875 46.3125,7.875 L 46.375,7.375 46.625,6.9375 47,6.90625 47,5.0625 46.375,4.25 44.71875,4.0625 43.4375,3.75 c 0,0 -0.38675,0.2965 -0.59375,0.3125 -0.203,0.023 -0.90625,0.125 -0.90625,0.125 L 41.21875,3.75 39.71875,3.625 39.65625,3.59375 38.375,3.53125 37.59375,3.09375 z M 4.375,3.46875 3.875,4.03125 4.3125,4.25 4.875,4 4.90625,4.625 5.375,4.9375 5.875,4.46875 6.5625,4.59375 6.84375,3.9375 5.71875,3.84375 4.375,3.46875 z M 7.5,3.5625 7.9375,4.65625 7.40625,4.71875 7,5.21875 6.09375,4.9375 5.28125,5.28125 4.5,5.0625 3.59375,4.5 2.34375,4.53125 1.25,5 1,4.875 C 0.99872416,4.916735 1,4.9579445 1,5 L 1,17.25 C 1.043594,17.074078 1.1875,16.84375 1.1875,16.84375 L 1.125,15.5625 l 0.71875,-0.5 0.5625,-0.1875 0.8125,0 1.125,-0.25 0.40625,0.53125 -0.0625,0.625 0.46875,0.40625 0.0625,-0.4375 c 0,0 -0.02275,-0.71925 -0.09375,-0.90625 -0.066,-0.188 0.5625,-0.625 0.5625,-0.625 l 0.5,-0.625 L 6.78125,12.875 7.0625,12.3125 8,11.8125 8.625,11.125 c 0,0 0.938,-0.141 1.125,-0.25 0.188,-0.09 0.063,-0.434 -0.125,-0.75 C 9.434,9.812 9.71875,9.5 9.71875,9.5 l 0.71875,-0.4375 0.625,0.125 0.0625,0.75 c 0,0 0.59725,0.56675 0.78125,0.46875 C 12.09725,10.31625 12.1875,10 12.1875,10 L 11.875,9.1875 12.0625,8.375 11.21875,8.5 l 0,-1.375 -0.25,0.25 L 10.3125,7.40625 10.21875,6.71875 9.78125,6.1875 c 0,0 -0.42975,0.26125 -0.84375,0.40625 -0.41,0.156 -0.34375,0.46875 -0.34375,0.46875 l 0,0.84375 -0.6875,0.5625 -0.4375,0.65625 c 0,0 -0.28125,-0.1875 -0.28125,-0.3125 0,-0.125 -0.0625,-0.5 -0.0625,-0.5 L 6.40625,7.75 c 0,0 -0.56275,-0.40625 -0.59375,-0.53125 -0.031,-0.125 0.34375,-0.6875 0.34375,-0.6875 0,0 0.816,-0.50025 1,-0.65625 C 7.34725,5.719 8.375,6.24625 8.5,6.15625 c 0.129,-0.094 0.625,-0.875 0.625,-0.875 l 0.4375,-0.625 -0.4375,0.5 L 8.375,4.4375 8.5,3.71875 7.5,3.5625 z M 9.96875,3.625 9.71875,4.21875 9.875,4.5625 10.4375,4.5 l 0.25,0.46875 -0.5,0.53125 -0.5625,0.0625 0.5,0.25 0.53125,0.46875 0.53125,0.125 0.1875,-0.71875 0.03125,-0.46875 0.625,0.09375 c 0,0 -0.211,0.34375 -0.125,0.34375 0.102,0 0.5,-0.40625 0.5,-0.40625 l -1.0625,-1.125 c 0,0 -0.46875,-0.352 -0.59375,-0.25 -0.133,0.09 -0.46875,0.0625 -0.46875,0.0625 L 9.96875,3.625 z M 18.625,5.40625 18.5,5.8125 c 0.438,0.348 0.625,0.34375 0.625,0.34375 L 19.65625,6.03125 20,5.6875 19.78125,5.40625 l -1.15625,0 z m 2.78125,1.78125 -0.25,0.21875 C 21.09325,7.71125 21,8.03125 21,8.03125 l 0.46875,0.21875 0.0625,0.28125 -0.25,0.25 -0.21875,0.375 0.15625,0.15625 0.5625,-0.09375 0.5,-0.25 L 22,8.59375 21.90625,7.96875 21.5625,7.59375 21.40625,7.1875 z m -0.8125,1.15625 -0.25,0.46875 0.375,0.15625 0.125,-0.28125 -0.25,-0.34375 z m -15.4375,1.125 0.65625,0.25 0.4375,0.59375 0.28125,0.40625 c 0,0 -0.2455,0.844 -0.3125,1 -0.066,0.156 -0.28125,-0.3125 -0.28125,-0.3125 l -0.15625,-0.8125 -0.5,0.25 -0.40625,0.96875 0.09375,-0.84375 0.125,-0.5625 -0.65625,-0.25 L 5,9.625 5.15625,9.46875 z m 26.375,0.75 c 0.133,-0.063 0.375,0.15625 0.375,0.15625 l -0.25,0.21875 0.09375,0.3125 0.28125,0.75 0.28125,0.46875 0.375,0.625 -0.40625,0.1875 L 31.75,12.59375 31.53125,11.9375 c 0,0 -0.3125,-0.39775 -0.4375,-0.46875 -0.133,-0.063 -0.25,-0.28125 -0.25,-0.28125 l 0.125,-0.53125 c 0,0 0.4375,-0.35625 0.5625,-0.40625 l 0,-0.03125 z m -7.875,1.21875 -0.375,0.71875 0.28125,0.28125 0.25,-0.21875 0.03125,-0.3125 -0.1875,-0.46875 z m -1.25,0.75 0,0.1875 0.15625,-0.03125 -0.15625,-0.15625 z m 2.15625,0.46875 -0.21875,0.0625 0.34375,0.53125 0.25,-0.21875 -0.375,-0.375 z M 4.40625,16.8125 4.4375,16.84375 4.09375,17 4.625,17.28125 5.21875,17.375 l 0.375,0.46875 0.375,-0.25 -0.0625,-0.28125 -0.6875,-0.5 -0.8125,0 z M 3.46875,17.21875 2.90625,17.3125 2.0625,18.15625 1.375,18.0625 c 0,0 -0.316,-0.53125 -0.375,-0.65625 l 0,1.28125 0.4375,-0.0625 0.71875,0.34375 1.09375,0.625 0.15625,0.71875 0.875,0.84375 0.5,-0.375 0.40625,0.3125 L 5.125,20.375 4.34375,20.5625 4.09375,19.65625 4,19.25 3.3125,18.625 l 0,-0.4375 0.53125,-0.5625 -0.375,-0.40625 z m 1.71875,3.875 0,0.15625 L 5,22.25 4.4375,23 4.46875,24.125 4.9375,25.28125 5.4375,26.6875 6.75,28 6.8125,28.75 6.90625,32.125 7.375,34.03125 c 0,0 0.28475,1.1015 0.21875,1.1875 -0.066,0.086 0.375,0.90625 0.375,0.90625 l 0.875,1.375 1.25,0.53125 -0.5,-0.59375 -0.25,-0.6875 0.25,-0.71875 -0.65625,-0.375 c 0,0 0.438,-0.273 0.5,-0.375 0.063,-0.09 -0.09375,-0.46875 -0.09375,-0.46875 l -0.1875,-0.46875 0.5,-0.65625 0.78125,-0.1875 0.125,-0.59375 -0.46875,-0.21875 0.1875,-0.5 0.75,-0.09375 L 11.6875,30.5 12.15625,29.40625 13.125,28.9375 c 0,0 0.3125,-0.96875 0.3125,-1.09375 0,-0.137 0.09375,-1.5 0.09375,-1.5 l 0.75,-1.03125 L 14.375,24.625 13.8125,24.25 13.34375,23.6875 12.5,23.75 11.15625,23 10.875,22.34375 c 0,0 -0.4765,-0.8125 -0.5625,-0.8125 -0.09,0 -0.625,0.03125 -0.625,0.03125 L 9.15625,21.03125 8.8125,20.375 7.4375,20.09375 7,19.875 l -0.875,0 -0.03125,0.0625 -0.8125,0.4375 -0.09375,0.71875 z M 42.5625,20.375 c 0.113,0.129 0.81225,2.21875 0.90625,2.21875 0.086,0 0.625,0.0625 0.625,0.0625 L 43.8125,21.8125 42.5625,20.375 z m -3.59375,0.0625 -0.3125,0.40625 0.15625,0.59375 0.34375,-0.375 -0.0625,-0.46875 -0.125,-0.15625 z M 47,21.1875 45.59375,21.96875 c 0,0.09 -0.71875,0.6875 -0.71875,0.6875 l 0.1875,0.625 L 45.46875,23.75 45.75,24.4375 47,23.625 47,21.1875 z m -4.53125,0.40625 -0.4375,0.0625 2,3 0.53125,0.625 1.3125,0.0625 0.8125,0.25 -0.875,-0.625 -1.25,-0.34375 -0.3125,-1.15625 -0.6875,-0.5625 -1.09375,-1.25 0,-0.0625 z m -10.5,4.90625 0,0.4375 c -0.023,0.066 -0.40625,0.375 -0.40625,0.375 L 31.09375,27.53125 30.75,27.8125 31,28.15625 31.15625,28.3125 30.75,28.65625 l 0,0.5625 0.15625,0.625 0.34375,0.09375 0.40625,-0.625 0.25,-0.40625 -0.0625,-0.5 0.375,-0.59375 0.125,-0.28125 0,-0.5625 L 32.25,26.53125 31.96875,26.5 z m 14.96875,1.90625 c -0.278875,0.05225 -0.58025,0.11125 -0.59375,0.15625 -0.02,0.098 -0.5625,0.375 -0.5625,0.375 -0.113,0 -0.46875,0.65625 -0.46875,0.65625 l -0.0625,2.0625 -0.125,0.75 0.3125,0.40625 1.53125,-0.53125 L 47,32.25 47,28.40625 c -0.03133,0.0056 -0.03068,-0.006 -0.0625,0 z M 11.46875,35.96875 11.25,36.125 l -0.09375,0.03125 0.5,0.25 -0.1875,-0.4375 z m -0.875,0.1875 -0.21875,0.5 0.4375,-0.09375 -0.21875,-0.40625 z m 1.5,4.125 -0.0625,0.03125 c 0,0 0.02759,0.02806 0.03125,0.03125 l 0.03125,-0.0625 z M 12.0625,40.34375 11.625,41 l -0.875,0.40625 0.5,0.625 -0.78125,0.375 L 8,42.28125 7.25,41.53125 6.59375,41.40625 7.25,42.78125 6.09375,42.5625 2.125,42.6875 1.28125,43.78125 1.09375,43.75 C 1.4423303,45.605799 3.0399723,47 5,47 l 38,0 c 2.216,0 4,-1.784 4,-4 l 0,-0.0625 -0.15625,-0.03125 -1.21875,0.15625 -0.875,0.78125 -1.5,0.59375 0.625,-0.75 L 45.25,42.90625 47,42.5 l 0,-0.96875 -0.375,0 c 0,0 -1.34375,-0.66775 -1.34375,-0.84375 0,-0.188 -1.5,-0.125 -1.5,-0.125 l -1.71875,0.1875 -1.65625,-0.09375 -3.3125,0.125 -3.0625,0.625 c 0,0 -1.48525,0.789 -1.65625,0.75 C 32.187,42.11325 33,41.125 33,41.125 L 31.5625,41.25 30.65625,40.5 29.75,41.09375 c 0,0 -1.199,0.09375 -1.5,0.09375 -0.316,0 -0.75,0.59375 -0.75,0.59375 l -2.46875,-0.09375 -4.25,0.1875 -1.125,0.9375 -0.25,0.0625 -3.25,-0.25 -2.21875,0.25 -0.78125,-0.40625 0.03125,-0.0625 c 0,0 -0.65625,-1.316 -0.65625,-1.5 0,-0.16875 -0.413818,-0.514709 -0.46875,-0.5625 z M 12.375,43.5 l 1.34375,0.4375 -1.625,0 L 11.4375,43.59375 12.375,43.5 z"
     id="path3554" />
  <path
     inkscape:connector-curvature="0"
     style="fill:#abd6ec;fill-opacity:1;fill-rule:nonzero;stroke:none"
     d="M 12.96875,1 11.5625,1.375 10.75,1.625 9.8125,1.25 l -0.125,0.5625 1.125,0.65625 c 0,0 2.04325,-1.125 2.15625,-1.125 L 13.71875,1 l -0.75,0 z M 15.6875,1 15.15625,1.15625 14.1875,1.21875 13.59375,1.65625 12.8125,1.625 12.875,2.125 14,2.09375 14.40625,3.1875 14.5625,3.78125 13.9375,4.125 l -0.25,0.46875 0.1875,1.0625 0.75,0.125 0.71875,-0.6875 0.625,-0.65625 0.96875,-0.25 1.21875,-0.59375 0.71875,-0.875 1.03125,-1.25 L 20.625,1.28125 20.59375,1 19.46875,1 15.6875,1 z M 34.84375,1.1875 34.65625,1.5 35.8125,1.65625 35.875,1.375 34.84375,1.1875 z m -8.875,0.1875 c -0.055,0.02 -1.53125,0.03125 -1.53125,0.03125 L 24.0625,1.5 l 0.5,0.59375 0.53125,-0.5 0.34375,0.21875 0.5,-0.25 c 0,0 0.09025,-0.2105 0.03125,-0.1875 z m 5.625,0.46875 -0.46875,0.0625 -0.40625,0.25 L 30.25,2.5 29.96875,3 l 0.4375,0.4375 0.375,0.03125 0.15625,-0.25 -0.375,-0.3125 0.21875,-0.1875 L 30.8125,2.5625 31.28125,2.25 c 0,0 0.61325,0.008 0.65625,0 0.047,-0.012 0.1875,-0.1875 0.1875,-0.1875 l -0.15625,-0.21875 -0.375,0 z M 5.71875,2.03125 5.625,2.34375 6.09375,2.5 6.625,2.25 5.71875,2.03125 z m 31.875,0.0625 L 37.5,2.125 l -2.125,0.09375 -0.5625,0.375 -0.625,0.375 -0.53125,0.4375 0.0625,0.1875 L 33.4375,3.625 31.1875,4 33.5,3.59375 33.5,3.4375 33.15625,3 32.53125,2.9375 c 0,0 0.125,0.664 0.125,0.75 0,0.082 -0.4375,0.03125 -0.4375,0.03125 L 31.46875,3.75 C 31.46875,3.75 30.391,4 30.25,4 30.117,4 29.4875,4.27325 29.4375,4.28125 l -0.03125,0.03125 -0.0625,0 L 29.25,4.375 28.21875,4.9375 27.90625,4.71875 27.75,4.46875 27.8125,4.21875 28.5,4.25 28.8125,4.125 28.1875,3.8125 27.3125,3.5 26.4375,3.34375 25.5,3.53125 24.53125,4.3125 24.09375,4.75 23.4375,5.46875 23.1875,5.5 l -0.09375,0.34375 0.125,0.34375 c 0,0 0.14125,0.15625 0.15625,0.15625 0.023,0 0.25,-0.125 0.25,-0.125 0,0 0.02725,-0.11725 0.15625,-0.15625 0.133,-0.039 0.25,-0.0625 0.25,-0.0625 l 0.1875,0.375 0.21875,0.3125 0.09375,0.25 c 0,0 0.359,-0.223 0.375,-0.25 0.016,-0.031 0.03125,-0.40625 0.03125,-0.40625 l 0.28125,-0.1875 c 0,0 0.0705,-0.13325 0.0625,-0.15625 -0.012,-0.023 -0.1875,-0.21875 -0.1875,-0.21875 L 24.9375,5.65625 25,5.34375 c 0,0 0.125,-0.086 0.125,-0.125 0,-0.035 0.1875,-0.1875 0.1875,-0.1875 l 0.25,-0.25 0.125,-0.21875 0.25,-0.125 0.25,0.1875 0,0.125 -0.25,0.25 -0.0625,0.25 0,0.34375 L 26.0625,5.75 26.4375,5.71875 26.75,5.65625 27,5.8125 26.9375,6.03125 c 0,0 -0.172,0.18675 -0.25,0.21875 -0.059,0.027 -0.411,-0.06625 -0.5,-0.03125 -0.102,0.031 -0.3125,0.3125 -0.3125,0.3125 0,0 -0.023,0.2495 0,0.3125 0.008,0.023 -0.01625,0.066 -0.03125,0.125 L 25.78125,7 l -0.375,0.28125 -0.03125,0 -0.25,-0.09375 c 0,0 -0.15175,0.0045 -0.21875,0.0625 -0.063,0.051 -0.1205,0.106 -0.3125,0.125 -0.191,0.02 -0.56275,0 -0.59375,0 l -0.21875,0 0.03125,-0.21875 0.15625,-0.25 L 23.6875,6.6875 c 0,0 -0.1875,0.23025 -0.1875,0.28125 -0.008,0.055 0.125,0.28125 0.125,0.28125 0,0 -0.06275,0.17975 -0.09375,0.21875 -0.031,0.039 -0.34375,0.125 -0.34375,0.125 L 22.78125,7.375 c 0,0 -0.18025,-0.0395 -0.15625,0.0625 0.023,0.102 0.21875,0.19525 0.21875,0.28125 0,0.082 -0.125,0.28125 -0.125,0.28125 l -0.15625,0.1875 -0.25,0.25 -0.34375,0.09375 c 0,0 -0.2425,0.06975 -0.3125,0.09375 -0.063,0.023 -0.25,0.0625 -0.25,0.0625 L 21.125,8.71875 21,8.9375 21.25,9.125 21.4375,9.4375 c 0,0 0.12525,0.21875 0.15625,0.21875 0.031,0 0.09375,0.21875 0.09375,0.21875 l -0.1875,0.25 -0.09375,0 L 20.75,10.25 20.625,9.96875 20.1875,10.40625 20,11.125 l 0,0.59375 0.75,0.40625 0.625,-0.21875 0.59375,-1.0625 0.53125,-0.65625 0.96875,-0.15625 0.21875,-0.1875 1.09375,1.28125 0.125,0.4375 0.3125,-0.15625 -0.09375,-0.375 0.1875,0 -0.125,-0.25 -1.0625,-1 0.09375,-0.1875 0.34375,-0.03125 0.75,0.75 0.375,0.4375 0,0.6875 0.1875,0.125 0.375,0.375 0.28125,-0.09375 -0.15625,-0.5625 0.09375,-0.34375 0.1875,-0.21875 0.4375,0.15625 0.15625,0.0625 -0.03125,-0.5 0.25,-0.46875 L 27.625,9.28125 28.1875,9.375 28.28125,9.6875 28.5,9.84375 28.75,9.625 28.59375,9.28125 l 0.65625,0 -0.21875,0.375 0.4375,0.375 0.375,0.1875 0.21875,0.4375 -0.5,0.125 -0.71875,-0.15625 -0.625,0 -0.59375,0.3125 -0.125,0.21875 -0.4375,0.09375 0.1875,0.46875 0.34375,0.40625 0.625,-0.21875 0.15625,0.25 0.28125,-0.21875 0.375,0.0625 0.03125,0.40625 -0.125,0.78125 L 28.59375,13.15625 28.1875,13.09375 28,13.5625 26.625,13.3125 26.375,13 26.0625,13.28125 25.71875,13.75 l -0.875,-0.5 -0.875,-0.53125 0,-0.9375 -0.5625,0.03125 L 23.375,12.125 22,12.0625 21.5625,12.46875 20.71875,12.5 l -0.5625,0.5 -0.34375,0.96875 -0.875,0.6875 -0.625,0.84375 -0.03125,1.625 -0.1875,0.5 -0.0625,0.59375 0.375,0.65625 0.21875,0.625 0.75,0.90625 0.4375,0.375 0.4375,0.09375 0.09375,-0.375 1.5625,0 0.40625,-0.1875 0.5,0.0625 0.15625,0.3125 0.53125,0.03125 0.34375,0.25 0,0.53125 -0.125,0.4375 -0.125,0.34375 0.3125,0.5625 L 24.3125,23.3125 24.5,24.5 24.53125,25.28125 24.25,25.9375 l -0.03125,0.625 0.21875,1.15625 0.1875,0.1875 L 24.90625,29 24.9375,29.46875 25.5,30.21875 25.5625,30.8125 25.65625,31.5 26,31.15625 l 0.875,-0.09375 0.53125,0 0.96875,-1.5 0.0625,-0.59375 0.65625,-0.65625 0.03125,-0.75 0.34375,-0.75 0.8125,-0.78125 0,-0.875 -0.1875,-0.8125 -0.125,-1.125 0.59375,-0.9375 1.0625,-1.3125 0.40625,-0.40625 0.15625,-0.53125 0.25,-0.46875 0.0625,-0.6875 -0.59375,0 L 31.625,19.15625 31.0625,19 30.71875,18.4375 30.4375,17.875 29.78125,17.375 29.625,16.5625 29.34375,16.09375 29.03125,15.5 28.625,14.78125 28.53125,14.3125 l 0.4375,-0.09375 0.25,0.53125 0.5,0.9375 0.375,0.71875 0.40625,0.75 0.4375,0.71875 0.59375,0.59375 0.53125,-0.5 0.625,-0.15625 0.4375,-0.53125 0.59375,-0.34375 0.34375,-0.59375 0.03125,-0.5 -0.28125,-0.3125 -0.375,-0.4375 L 33.1875,15.25 33.03125,15.5 32.625,15.3125 32.5,15 l -0.28125,-0.40625 -0.4375,-0.40625 0,-0.8125 0.28125,0.53125 0.34375,0.53125 0.59375,0.34375 0.40625,-0.09375 0.25,0.28125 1.78125,-0.03125 -0.03125,0.03125 0.5625,0.5 0.40625,0.5625 0.125,0.28125 0.28125,0 L 36.875,16 l 0.09375,0.46875 0.15625,0.84375 0.34375,0.8125 0.1875,0.6875 0.28125,0.65625 0.21875,0.25 0.3125,-0.1875 0.09375,-0.3125 0.125,-0.75 -0.03125,-0.6875 0.25,-0.34375 c 0,0 0.2695,-0.355 0.3125,-0.375 0.051,-0.012 0.625,-0.625 0.625,-0.625 l 0.28125,-0.375 0.3125,-0.1875 0.375,-0.21875 0.15625,0 0.0625,0.34375 0.15625,0.40625 0.5,0.65625 0,0.25 0.09375,0.28125 L 42.125,17.4375 42.09375,17.0625 42.4375,17.125 42.5,17.46875 42.46875,18 l 0.09375,0.375 0.28125,0.0625 0.09375,-0.3125 0.34375,0.21875 0.0625,0.3125 0.3125,0.46875 0.3125,0.34375 0.21875,0.1875 0.53125,-0.46875 0.21875,-0.4375 -0.09375,-0.5 -0.09375,-0.65625 -0.59375,-0.5625 -0.09375,-0.5625 0.25,-0.40625 c 0,0 0.1485,-0.289 0.3125,-0.125 0.145,0.168 0.23125,0.188 0.15625,0.375 -0.063,0.184 -0.1875,0.59375 -0.1875,0.59375 l 0.375,0.15625 0.15625,-0.53125 -0.15625,-0.375 0.375,-0.15625 0.6875,-0.34375 0.4375,-0.53125 0.34375,-0.8125 0,-0.625 -0.375,-0.75 L 45.75,12.125 45.3125,11.71875 45.09375,11.09375 45.5,11 c 0,0 0.2295,-0.3945 0.4375,-0.1875 0.203,0.219 0.5,0.5 0.5,0.5 0,0 0.35525,0.566 0.40625,0.625 0.01644,0.02127 0.09534,0.09724 0.15625,0.15625 L 47,7.3125 C 46.810109,7.2265416 46.3125,6.875 46.3125,6.875 L 46.375,6.375 46.625,5.9375 47,5.90625 47,5 C 47,4.572312 46.904435,4.1670353 46.78125,3.78125 L 46.375,3.25 44.71875,3.0625 43.4375,2.75 c 0,0 -0.38675,0.2965 -0.59375,0.3125 -0.203,0.023 -0.90625,0.125 -0.90625,0.125 L 41.21875,2.75 39.71875,2.625 39.65625,2.59375 38.375,2.53125 37.59375,2.09375 z M 4.375,2.46875 3.875,3.03125 4.3125,3.25 4.875,3 4.90625,3.625 5.375,3.9375 5.875,3.46875 6.5625,3.59375 6.84375,2.9375 5.71875,2.84375 4.375,2.46875 z M 7.5,2.5625 7.9375,3.65625 7.40625,3.71875 7,4.21875 6.09375,3.9375 5.28125,4.28125 4.5,4.0625 3.59375,3.5 2.34375,3.53125 1.25,4 1.15625,3.96875 C 1.0689882,4.2982208 1,4.6423376 1,5 L 1,16.25 C 1.043594,16.074078 1.1875,15.84375 1.1875,15.84375 L 1.125,14.5625 l 0.71875,-0.5 0.5625,-0.1875 0.8125,0 1.125,-0.25 0.40625,0.53125 -0.0625,0.625 0.46875,0.40625 0.0625,-0.4375 c 0,0 -0.02275,-0.71925 -0.09375,-0.90625 -0.066,-0.188 0.5625,-0.625 0.5625,-0.625 l 0.5,-0.625 L 6.78125,11.875 7.0625,11.3125 8,10.8125 8.625,10.125 c 0,0 0.938,-0.141 1.125,-0.25 C 9.938,9.785 9.813,9.441 9.625,9.125 9.434,8.812 9.71875,8.5 9.71875,8.5 l 0.71875,-0.4375 0.625,0.125 0.0625,0.75 c 0,0 0.59725,0.56675 0.78125,0.46875 C 12.09725,9.31625 12.1875,9 12.1875,9 L 11.875,8.1875 12.0625,7.375 11.21875,7.5 l 0,-1.375 -0.25,0.25 L 10.3125,6.40625 10.21875,5.71875 9.78125,5.1875 c 0,0 -0.42975,0.26125 -0.84375,0.40625 -0.41,0.156 -0.34375,0.46875 -0.34375,0.46875 l 0,0.84375 -0.6875,0.5625 -0.4375,0.65625 c 0,0 -0.28125,-0.1875 -0.28125,-0.3125 0,-0.125 -0.0625,-0.5 -0.0625,-0.5 L 6.40625,6.75 c 0,0 -0.56275,-0.40625 -0.59375,-0.53125 -0.031,-0.125 0.34375,-0.6875 0.34375,-0.6875 0,0 0.816,-0.50025 1,-0.65625 C 7.34725,4.719 8.375,5.24625 8.5,5.15625 c 0.129,-0.094 0.625,-0.875 0.625,-0.875 l 0.4375,-0.625 -0.4375,0.5 L 8.375,3.4375 8.5,2.71875 7.5,2.5625 z M 9.96875,2.625 9.71875,3.21875 9.875,3.5625 10.4375,3.5 l 0.25,0.46875 -0.5,0.53125 -0.5625,0.0625 0.5,0.25 0.53125,0.46875 0.53125,0.125 0.1875,-0.71875 0.03125,-0.46875 0.625,0.09375 c 0,0 -0.211,0.34375 -0.125,0.34375 0.102,0 0.5,-0.40625 0.5,-0.40625 l -1.0625,-1.125 c 0,0 -0.46875,-0.352 -0.59375,-0.25 -0.133,0.09 -0.46875,0.0625 -0.46875,0.0625 L 9.96875,2.625 z M 18.625,4.40625 18.5,4.8125 c 0.438,0.348 0.625,0.34375 0.625,0.34375 L 19.65625,5.03125 20,4.6875 19.78125,4.40625 l -1.15625,0 z m 2.78125,1.78125 -0.25,0.21875 C 21.09325,6.71125 21,7.03125 21,7.03125 l 0.46875,0.21875 0.0625,0.28125 -0.25,0.25 -0.21875,0.375 0.15625,0.15625 0.5625,-0.09375 0.5,-0.25 L 22,7.59375 21.90625,6.96875 21.5625,6.59375 21.40625,6.1875 z m -0.8125,1.15625 -0.25,0.46875 0.375,0.15625 0.125,-0.28125 -0.25,-0.34375 z m -15.4375,1.125 0.65625,0.25 L 6.25,9.3125 6.53125,9.71875 c 0,0 -0.2455,0.844 -0.3125,1 -0.066,0.156 -0.28125,-0.3125 -0.28125,-0.3125 l -0.15625,-0.8125 -0.5,0.25 L 4.875,10.8125 4.96875,9.96875 5.09375,9.40625 4.4375,9.15625 5,8.625 5.15625,8.46875 z m 26.375,0.75 c 0.133,-0.063 0.375,0.15625 0.375,0.15625 l -0.25,0.21875 0.09375,0.3125 0.28125,0.75 0.28125,0.46875 0.375,0.625 -0.40625,0.1875 L 31.75,11.59375 31.53125,10.9375 c 0,0 -0.3125,-0.39775 -0.4375,-0.46875 -0.133,-0.063 -0.25,-0.28125 -0.25,-0.28125 l 0.125,-0.53125 c 0,0 0.4375,-0.35625 0.5625,-0.40625 l 0,-0.03125 z m -7.875,1.21875 -0.375,0.71875 0.28125,0.28125 0.25,-0.21875 0.03125,-0.3125 -0.1875,-0.46875 z m -1.25,0.75 0,0.1875 0.15625,-0.03125 -0.15625,-0.15625 z m 2.15625,0.46875 -0.21875,0.0625 0.34375,0.53125 0.25,-0.21875 -0.375,-0.375 z M 4.40625,15.8125 4.4375,15.84375 4.09375,16 4.625,16.28125 5.21875,16.375 l 0.375,0.46875 0.375,-0.25 -0.0625,-0.28125 -0.6875,-0.5 -0.8125,0 z M 3.46875,16.21875 2.90625,16.3125 2.0625,17.15625 1.375,17.0625 c 0,0 -0.316,-0.53125 -0.375,-0.65625 l 0,1.28125 0.4375,-0.0625 0.71875,0.34375 1.09375,0.625 0.15625,0.71875 0.875,0.84375 0.5,-0.375 0.40625,0.3125 L 5.125,19.375 4.34375,19.5625 4.09375,18.65625 4,18.25 3.3125,17.625 l 0,-0.4375 0.53125,-0.5625 -0.375,-0.40625 z m 1.71875,3.875 0,0.15625 L 5,21.25 4.4375,22 4.46875,23.125 4.9375,24.28125 5.4375,25.6875 6.75,27 6.8125,27.75 6.90625,31.125 7.375,33.03125 c 0,0 0.28475,1.1015 0.21875,1.1875 -0.066,0.086 0.375,0.90625 0.375,0.90625 l 0.875,1.375 1.25,0.53125 -0.5,-0.59375 -0.25,-0.6875 0.25,-0.71875 -0.65625,-0.375 c 0,0 0.438,-0.273 0.5,-0.375 0.063,-0.09 -0.09375,-0.46875 -0.09375,-0.46875 l -0.1875,-0.46875 0.5,-0.65625 0.78125,-0.1875 0.125,-0.59375 -0.46875,-0.21875 0.1875,-0.5 0.75,-0.09375 L 11.6875,29.5 12.15625,28.40625 13.125,27.9375 c 0,0 0.3125,-0.96875 0.3125,-1.09375 0,-0.137 0.09375,-1.5 0.09375,-1.5 l 0.75,-1.03125 L 14.375,23.625 13.8125,23.25 13.34375,22.6875 12.5,22.75 11.15625,22 10.875,21.34375 c 0,0 -0.4765,-0.8125 -0.5625,-0.8125 -0.09,0 -0.625,0.03125 -0.625,0.03125 L 9.15625,20.03125 8.8125,19.375 7.4375,19.09375 7,18.875 l -0.875,0 -0.03125,0.0625 -0.8125,0.4375 -0.09375,0.71875 z M 42.5625,19.375 c 0.113,0.129 0.81225,2.21875 0.90625,2.21875 0.086,0 0.625,0.0625 0.625,0.0625 L 43.8125,20.8125 42.5625,19.375 z m -3.59375,0.0625 -0.3125,0.40625 0.15625,0.59375 0.34375,-0.375 -0.0625,-0.46875 -0.125,-0.15625 z M 47,20.1875 45.59375,20.96875 c 0,0.09 -0.71875,0.6875 -0.71875,0.6875 l 0.1875,0.625 L 45.46875,22.75 45.75,23.4375 47,22.625 47,20.1875 z m -4.53125,0.40625 -0.4375,0.0625 2,3 0.53125,0.625 1.3125,0.0625 0.8125,0.25 -0.875,-0.625 -1.25,-0.34375 -0.3125,-1.15625 -0.6875,-0.5625 -1.09375,-1.25 0,-0.0625 z m -10.5,4.90625 0,0.4375 c -0.023,0.066 -0.40625,0.375 -0.40625,0.375 L 31.09375,26.53125 30.75,26.8125 31,27.15625 31.15625,27.3125 30.75,27.65625 l 0,0.5625 0.15625,0.625 0.34375,0.09375 0.40625,-0.625 0.25,-0.40625 -0.0625,-0.5 0.375,-0.59375 0.125,-0.28125 0,-0.5625 L 32.25,25.53125 31.96875,25.5 z m 14.96875,1.90625 c -0.278875,0.05225 -0.58025,0.11125 -0.59375,0.15625 -0.02,0.098 -0.5625,0.375 -0.5625,0.375 -0.113,0 -0.46875,0.65625 -0.46875,0.65625 l -0.0625,2.0625 -0.125,0.75 0.3125,0.40625 1.53125,-0.53125 L 47,31.25 47,27.40625 c -0.03133,0.0056 -0.03068,-0.006 -0.0625,0 z M 11.46875,34.96875 11.25,35.125 l -0.09375,0.03125 0.5,0.25 -0.1875,-0.4375 z m -0.875,0.1875 -0.21875,0.5 0.4375,-0.09375 -0.21875,-0.40625 z m 1.5,4.125 -0.0625,0.03125 c 0,0 0.02759,0.02806 0.03125,0.03125 l 0.03125,-0.0625 z M 12.0625,39.34375 11.625,40 l -0.875,0.40625 0.5,0.625 -0.78125,0.375 L 8,41.28125 7.25,40.53125 6.59375,40.40625 7.25,41.78125 6.09375,41.5625 2.125,41.6875 1.28125,42.78125 1,42.75 1,43 c 0,2.216 1.784,4 4,4 l 38,0 c 2.216,0 4,-1.784 4,-4 l 0,-1.0625 -0.15625,-0.03125 -1.21875,0.15625 -0.875,0.78125 -1.5,0.59375 0.625,-0.75 L 45.25,41.90625 47,41.5 l 0,-0.96875 -0.375,0 c 0,0 -1.34375,-0.66775 -1.34375,-0.84375 0,-0.188 -1.5,-0.125 -1.5,-0.125 l -1.71875,0.1875 -1.65625,-0.09375 -3.3125,0.125 -3.0625,0.625 c 0,0 -1.48525,0.789 -1.65625,0.75 C 32.187,41.11325 33,40.125 33,40.125 L 31.5625,40.25 30.65625,39.5 29.75,40.09375 c 0,0 -1.199,0.09375 -1.5,0.09375 -0.316,0 -0.75,0.59375 -0.75,0.59375 l -2.46875,-0.09375 -4.25,0.1875 -1.125,0.9375 -0.25,0.0625 -3.25,-0.25 -2.21875,0.25 -0.78125,-0.40625 0.03125,-0.0625 c 0,0 -0.65625,-1.316 -0.65625,-1.5 0,-0.16875 -0.413818,-0.514709 -0.46875,-0.5625 z M 12.375,42.5 l 1.34375,0.4375 -1.625,0 L 11.4375,42.59375 12.375,42.5 z"
     id="path3564" />
  <path
     d="m 1,38.9978 0,4 c 0,2.216 1.784,4 4,4 l 38,0 c 2.216,0 4,-1.784 4,-4 l 0,-4 c 0,2.216 -1.784,4 -4,4 l -38,0 c -2.216,0 -4,-1.784 -4,-4 z"
     id="path3570"
     inkscape:connector-curvature="0"
     style="opacity:0.1" />
</svg>
