<?xml version="1.0" encoding="UTF-8" standalone="no"?>
<svg
   xmlns:dc="http://purl.org/dc/elements/1.1/"
   xmlns:cc="http://creativecommons.org/ns#"
   xmlns:rdf="http://www.w3.org/1999/02/22-rdf-syntax-ns#"
   xmlns:svg="http://www.w3.org/2000/svg"
   xmlns="http://www.w3.org/2000/svg"
   xmlns:sodipodi="http://sodipodi.sourceforge.net/DTD/sodipodi-0.dtd"
   xmlns:inkscape="http://www.inkscape.org/namespaces/inkscape"
   width="48px"
   height="48px"
   viewBox="0 0 48 48"
   version="1.1"
   id="svg3187"
   inkscape:version="0.91 r13725"
   sodipodi:docname="numix.svg">
  <metadata
     id="metadata3213">
    <rdf:RDF>
      <cc:Work
         rdf:about="">
        <dc:format>image/svg+xml</dc:format>
        <dc:type
           rdf:resource="http://purl.org/dc/dcmitype/StillImage" />
      </cc:Work>
    </rdf:RDF>
  </metadata>
  <sodipodi:namedview
     pagecolor="#ffffff"
     bordercolor="#666666"
     borderopacity="1"
     objecttolerance="10"
     gridtolerance="10"
     guidetolerance="10"
     inkscape:pageopacity="0"
     inkscape:pageshadow="2"
     inkscape:window-width="750"
     inkscape:window-height="982"
     id="namedview3211"
     showgrid="false"
     inkscape:zoom="3.4766083"
     inkscape:cx="14.147106"
     inkscape:cy="22.406501"
     inkscape:window-x="520"
     inkscape:window-y="32"
     inkscape:window-maximized="0"
     inkscape:current-layer="svg3187" />
  <defs
     id="defs3189">
    <linearGradient
       id="linear0"
       gradientUnits="userSpaceOnUse"
       x1="1"
       y1="0"
       x2="47"
       y2="0"
       gradientTransform="matrix(0,-1,1,0,0.00221467,48.000001)">
      <stop
         offset="0"
         style="stop-color:rgb(78.431373%,24.313725%,17.254902%);stop-opacity:1;"
         id="stop3192" />
      <stop
         offset="1"
         style="stop-color:rgb(82.745098%,28.235294%,21.176471%);stop-opacity:1;"
         id="stop3194" />
    </linearGradient>
  </defs>
  <path
     inkscape:connector-curvature="0"
     id="path3203"
     d="M 1,43 1,5 C 1,2.789062 2.789062,1 5,1 l 38,0 c 2.210938,0 4,1.789062 4,4 l 0,38 c 0,2.210938 -1.789062,4 -4,4 L 5,47 C 2.789062,47 1,45.210938 1,43 z m 0,0"
     style="fill:#d34836;fill-rule:nonzero;stroke:none;fill-opacity:1" />
  <path
     inkscape:connector-curvature="0"
     id="path3207"
     d="M 23.65625,14.0315 C 19.304688,14.0315 16,17.621344 16,21.93775 L 16,33.469 c 0,0.269531 0.222656,0.5 0.5,0.5 0.277344,0 0.5,-0.230469 0.5,-0.5 l 0,-11.53125 c 0,-3.816406 2.851562,-6.90625 6.65625,-6.90625 3.789062,0 7.375,3.152344 7.375,6.90625 l 0,11.53125 c 0,0.269531 0.222656,0.5 0.5,0.5 0.277344,0 0.5,-0.230469 0.5,-0.5 l 0,-11.53125 c 0,-4.375 -4.039062,-7.90625 -8.375,-7.90625 m -7.25,0.0625 C 16.167969,14.14087 15.996094,14.351812 16,14.594 l 0,2.15625 c 0,0.273438 0.222656,0.5 0.5,0.5 0.277344,0 0.5,-0.226562 0.5,-0.5 L 17,14.594 C 17.0039,14.441656 16.9375,14.297125 16.820312,14.203375 16.707031,14.105715 16.554688,14.066656 16.40625,14.094 m 0,0"
     style="fill:#f8f8f8;fill-opacity:1;fill-rule:nonzero;stroke:none" />
</svg>
